Atma-Medium.ufo
<glyph name="numbersign" format="1">
  <advance width="608"/>
  <unicode hex="0023"/>
  <outline>
    <contour>
      <point x="212" y="235" type="qcurve"/>
      <point x="254" y="232"/>
      <point x="329" y="228"/>
      <point x="364" y="227" type="qcurve"/>
      <point x="375" y="263"/>
      <point x="392" y="328"/>
      <point x="399" y="358" type="qcurve"/>
      <point x="353" y="359"/>
      <point x="281" y="363"/>
      <point x="249" y="366" type="qcurve"/>
      <point x="239" y="327"/>
      <point x="221" y="263"/>
    </contour>
    <contour>
      <point x="588" y="237" type="qcurve"/>
      <point x="590" y="216"/>
      <point x="586" y="179"/>
      <point x="579" y="163" type="qcurve"/>
      <point x="537" y="160"/>
      <point x="455" y="157"/>
      <point x="414" y="157" type="qcurve"/>
      <point x="398" y="111"/>
      <point x="359" y="14"/>
      <point x="335" y="-39" type="qcurve"/>
      <point x="314" y="-36"/>
      <point x="286" y="-26"/>
      <point x="272" y="-16" type="qcurve"/>
      <point x="293" y="29"/>
      <point x="327" y="117"/>
      <point x="341" y="158" type="qcurve"/>
      <point x="304" y="160"/>
      <point x="228" y="166"/>
      <point x="190" y="170" type="qcurve"/>
      <point x="172" y="120"/>
      <point x="131" y="17"/>
      <point x="108" y="-35" type="qcurve"/>
      <point x="89" y="-32"/>
      <point x="60" y="-21"/>
      <point x="44" y="-11" type="qcurve"/>
      <point x="63" y="31"/>
      <point x="101" y="125"/>
      <point x="120" y="179" type="qcurve"/>
      <point x="75" y="186"/>
      <point x="31" y="195"/>
      <point x="11" y="199" type="qcurve"/>
      <point x="9" y="216"/>
      <point x="12" y="245"/>
      <point x="18" y="264" type="qcurve"/>
      <point x="46" y="257"/>
      <point x="107" y="247"/>
      <point x="140" y="243" type="qcurve"/>
      <point x="150" y="275"/>
      <point x="168" y="340"/>
      <point x="176" y="374" type="qcurve"/>
      <point x="128" y="381"/>
      <point x="56" y="393"/>
      <point x="24" y="400" type="qcurve"/>
      <point x="22" y="418"/>
      <point x="25" y="447"/>
      <point x="31" y="465" type="qcurve"/>
      <point x="65" y="457"/>
      <point x="144" y="445"/>
      <point x="190" y="440" type="qcurve"/>
      <point x="200" y="485"/>
      <point x="213" y="577"/>
      <point x="217" y="622" type="qcurve"/>
      <point x="236" y="620"/>
      <point x="274" y="606"/>
      <point x="289" y="595" type="qcurve"/>
      <point x="283" y="547"/>
      <point x="270" y="469"/>
      <point x="263" y="433" type="qcurve"/>
      <point x="310" y="430"/>
      <point x="383" y="428"/>
      <point x="415" y="429" type="qcurve"/>
      <point x="425" y="477"/>
      <point x="438" y="572"/>
      <point x="442" y="617" type="qcurve"/>
      <point x="462" y="615"/>
      <point x="500" y="602"/>
      <point x="514" y="591" type="qcurve"/>
      <point x="508" y="547"/>
      <point x="496" y="467"/>
      <point x="489" y="430" type="qcurve"/>
      <point x="535" y="432"/>
      <point x="582" y="436"/>
      <point x="601" y="438" type="qcurve"/>
      <point x="603" y="419"/>
      <point x="598" y="381"/>
      <point x="592" y="365" type="qcurve"/>
      <point x="562" y="363"/>
      <point x="503" y="360"/>
      <point x="474" y="359" type="qcurve"/>
      <point x="462" y="311"/>
      <point x="446" y="253"/>
      <point x="438" y="228" type="qcurve"/>
      <point x="478" y="229"/>
      <point x="553" y="233"/>
    </contour>
  </outline>
</glyph>
<glyph name="dollar" format="1">
  <advance width="390"/>
  <unicode hex="0024"/>
  <outline>
    <contour>
      <point x="227" y="41" type="qcurve"/>
      <point x="230" y="13"/>
      <point x="230" y="-39"/>
      <point x="228" y="-61" type="qcurve"/>
      <point x="213" y="-66"/>
      <point x="175" y="-68"/>
      <point x="153" y="-65" type="qcurve"/>
      <point x="158" y="-30"/>
      <point x="162" y="17"/>
      <point x="161" y="42" type="qcurve"/>
      <point x="94" y="54"/>
      <point x="18" y="156"/>
      <point x="18" y="232" type="qcurve"/>
      <point x="40" y="240"/>
      <point x="88" y="249"/>
      <point x="107" y="248" type="qcurve"/>
      <point x="104" y="182"/>
      <point x="153" y="104"/>
      <point x="197" y="104" type="qcurve" smooth="yes"/>
      <point x="231" y="104"/>
      <point x="268" y="143"/>
      <point x="268" y="179" type="qcurve" smooth="yes"/>
      <point x="268" y="202"/>
      <point x="249" y="244"/>
      <point x="229" y="265" type="qcurve" smooth="yes"/>
      <point x="222" y="273"/>
      <point x="203" y="290"/>
      <point x="155" y="330" type="qcurve" smooth="yes"/>
      <point x="80" y="391"/>
      <point x="32" y="475"/>
      <point x="32" y="526" type="qcurve" smooth="yes"/>
      <point x="32" y="588"/>
      <point x="105" y="673"/>
      <point x="167" y="682" type="qcurve"/>
      <point x="163" y="711"/>
      <point x="160" y="754"/>
      <point x="161" y="771" type="qcurve"/>
      <point x="177" y="777"/>
      <point x="216" y="780"/>
      <point x="237" y="777" type="qcurve"/>
      <point x="235" y="752"/>
      <point x="234" y="705"/>
      <point x="235" y="683" type="qcurve"/>
      <point x="291" y="675"/>
      <point x="356" y="601"/>
      <point x="369" y="529" type="qcurve"/>
      <point x="351" y="519"/>
      <point x="307" y="509"/>
      <point x="281" y="508" type="qcurve"/>
      <point x="272" y="567"/>
      <point x="236" y="619"/>
      <point x="204" y="619" type="qcurve"/>
      <point x="174" y="619"/>
      <point x="140" y="580"/>
      <point x="140" y="546" type="qcurve" smooth="yes"/>
      <point x="140" y="508"/>
      <point x="184" y="441"/>
      <point x="244" y="394" type="qcurve" smooth="yes"/>
      <point x="321" y="335"/>
      <point x="375" y="249"/>
      <point x="375" y="197" type="qcurve" smooth="yes"/>
      <point x="375" y="135"/>
      <point x="293" y="50"/>
    </contour>
  </outline>
</glyph>
<glyph name="percent" format="1">
  <advance width="839"/>
  <unicode hex="0025"/>
  <outline>
    <contour>
      <point x="528" y="786" type="qcurve"/>
      <point x="550" y="781"/>
      <point x="590" y="759"/>
      <point x="607" y="743" type="qcurve"/>
      <point x="530" y="553"/>
      <point x="359" y="201"/>
      <point x="229" y="-33" type="qcurve"/>
      <point x="215" y="-30"/>
      <point x="189" y="-17"/>
      <point x="164" y="2" type="qcurve"/>
      <point x="282" y="223"/>
      <point x="453" y="592"/>
    </contour>
    <contour>
      <point x="33" y="529" type="qcurve"/>
      <point x="33" y="635"/>
      <point x="136" y="762"/>
      <point x="222" y="762" type="qcurve"/>
      <point x="289" y="762"/>
      <point x="364" y="670"/>
      <point x="364" y="588" type="qcurve"/>
      <point x="364" y="470"/>
      <point x="266" y="327"/>
      <point x="180" y="327" type="qcurve" smooth="yes"/>
      <point x="112" y="327"/>
      <point x="33" y="438"/>
    </contour>
    <contour>
      <point x="271" y="557" type="qcurve" smooth="yes"/>
      <point x="271" y="632"/>
      <point x="239" y="704"/>
      <point x="205" y="704" type="qcurve" smooth="yes"/>
      <point x="169" y="704"/>
      <point x="124" y="615"/>
      <point x="124" y="541" type="qcurve" smooth="yes"/>
      <point x="124" y="474"/>
      <point x="165" y="385"/>
      <point x="198" y="385" type="qcurve" smooth="yes"/>
      <point x="232" y="385"/>
      <point x="271" y="480"/>
    </contour>
    <contour>
      <point x="475" y="188" type="qcurve"/>
      <point x="475" y="294"/>
      <point x="579" y="421"/>
      <point x="665" y="421" type="qcurve"/>
      <point x="731" y="421"/>
      <point x="806" y="329"/>
      <point x="806" y="247" type="qcurve"/>
      <point x="806" y="129"/>
      <point x="709" y="-13"/>
      <point x="623" y="-13" type="qcurve" smooth="yes"/>
      <point x="554" y="-13"/>
      <point x="475" y="97"/>
    </contour>
    <contour>
      <point x="714" y="216" type="qcurve" smooth="yes"/>
      <point x="714" y="291"/>
      <point x="682" y="363"/>
      <point x="648" y="363" type="qcurve" smooth="yes"/>
      <point x="611" y="363"/>
      <point x="566" y="274"/>
      <point x="566" y="200" type="qcurve" smooth="yes"/>
      <point x="566" y="132"/>
      <point x="607" y="44"/>
      <point x="640" y="44" type="qcurve" smooth="yes"/>
      <point x="674" y="44"/>
      <point x="714" y="140"/>
    </contour>
  </outline>
</glyph>
<glyph name="ampersand" format="1">
  <advance width="779"/>
  <unicode hex="0026"/>
  <outline>
    <contour>
      <point x="387" y="660" type="qcurve" smooth="yes"/>
      <point x="356" y="660"/>
      <point x="319" y="590"/>
      <point x="319" y="528" type="qcurve" smooth="yes"/>
      <point x="319" y="506"/>
      <point x="323" y="461"/>
      <point x="327" y="438" type="qcurve"/>
      <point x="383" y="455"/>
      <point x="443" y="526"/>
      <point x="443" y="577" type="qcurve" smooth="yes"/>
      <point x="443" y="617"/>
      <point x="414" y="660"/>
    </contour>
    <contour>
      <point x="145" y="206" type="qcurve" smooth="yes"/>
      <point x="145" y="120"/>
      <point x="257" y="14"/>
      <point x="348" y="14" type="qcurve" smooth="yes"/>
      <point x="381" y="14"/>
      <point x="444" y="36"/>
      <point x="472" y="56" type="qcurve"/>
      <point x="386" y="118"/>
      <point x="269" y="271"/>
      <point x="242" y="359" type="qcurve"/>
      <point x="196" y="338"/>
      <point x="145" y="258"/>
    </contour>
    <contour>
      <point x="741" y="22" type="qcurve"/>
      <point x="732" y="-2"/>
      <point x="699" y="-41"/>
      <point x="678" y="-53" type="qcurve"/>
      <point x="642" y="-39"/>
      <point x="575" y="-7"/>
      <point x="545" y="10" type="qcurve"/>
      <point x="502" y="-25"/>
      <point x="393" y="-61"/>
      <point x="331" y="-61" type="qcurve" smooth="yes"/>
      <point x="200" y="-61"/>
      <point x="40" y="74"/>
      <point x="40" y="183" type="qcurve" smooth="yes"/>
      <point x="40" y="265"/>
      <point x="140" y="383"/>
      <point x="230" y="407" type="qcurve"/>
      <point x="225" y="432"/>
      <point x="220" y="483"/>
      <point x="220" y="511" type="qcurve" smooth="yes"/>
      <point x="220" y="608"/>
      <point x="316" y="721"/>
      <point x="399" y="721" type="qcurve" smooth="yes"/>
      <point x="462" y="721"/>
      <point x="539" y="646"/>
      <point x="539" y="586" type="qcurve" smooth="yes"/>
      <point x="539" y="514"/>
      <point x="436" y="415"/>
      <point x="338" y="393" type="qcurve"/>
      <point x="361" y="317"/>
      <point x="460" y="185"/>
      <point x="537" y="130" type="qcurve"/>
      <point x="556" y="163"/>
      <point x="575" y="239"/>
      <point x="575" y="279" type="qcurve" smooth="yes"/>
      <point x="575" y="306"/>
      <point x="569" y="355"/>
      <point x="563" y="383" type="qcurve"/>
      <point x="588" y="390"/>
      <point x="643" y="386"/>
      <point x="669" y="376" type="qcurve"/>
      <point x="671" y="354"/>
      <point x="671" y="308"/>
      <point x="669" y="278" type="qcurve" smooth="yes"/>
      <point x="665" y="220"/>
      <point x="636" y="123"/>
      <point x="611" y="84" type="qcurve"/>
      <point x="639" y="68"/>
      <point x="703" y="37"/>
    </contour>
  </outline>
</glyph>
<glyph name="quotesingle" format="1">
  <advance width="164"/>
  <unicode hex="0027"/>
  <outline>
    <contour>
      <point x="79" y="742" type="qcurve" smooth="yes"/>
      <point x="89" y="742"/>
      <point x="109" y="739"/>
      <point x="122" y="736" type="qcurve"/>
      <point x="120" y="686"/>
      <point x="110" y="576"/>
      <point x="99" y="498" type="qcurve"/>
      <point x="90" y="495"/>
      <point x="55" y="493"/>
      <point x="40" y="495" type="qcurve"/>
      <point x="38" y="573"/>
      <point x="35" y="680"/>
      <point x="32" y="735" type="qcurve"/>
      <point x="39" y="738"/>
      <point x="64" y="742"/>
    </contour>
  </outline>
</glyph>
<glyph name="parenleft" format="1">
  <advance width="347"/>
  <unicode hex="0028"/>
  <outline>
    <contour>
      <point x="349" y="750" type="qcurve"/>
      <point x="232" y="674"/>
      <point x="110" y="449"/>
      <point x="110" y="311" type="qcurve" smooth="yes"/>
      <point x="110" y="180"/>
      <point x="223" y="-28"/>
      <point x="340" y="-115" type="qcurve"/>
      <point x="325" y="-134"/>
      <point x="295" y="-158"/>
      <point x="273" y="-168" type="qcurve"/>
      <point x="150" y="-75"/>
      <point x="23" y="165"/>
      <point x="23" y="305" type="qcurve" smooth="yes"/>
      <point x="23" y="459"/>
      <point x="153" y="710"/>
      <point x="282" y="804" type="qcurve"/>
      <point x="300" y="796"/>
      <point x="332" y="770"/>
    </contour>
  </outline>
</glyph>
<glyph name="asterisk" format="1">
  <advance width="457"/>
  <unicode hex="002A"/>
  <outline>
    <contour>
      <point x="254" y="462" type="qcurve"/>
      <point x="256" y="421"/>
      <point x="262" y="351"/>
      <point x="268" y="312" type="qcurve"/>
      <point x="259" y="309"/>
      <point x="232" y="304"/>
      <point x="221" y="304" type="qcurve" smooth="yes"/>
      <point x="213" y="304"/>
      <point x="201" y="305"/>
      <point x="191" y="307" type="qcurve"/>
      <point x="190" y="336"/>
      <point x="193" y="409"/>
      <point x="199" y="461" type="qcurve"/>
      <point x="172" y="443"/>
      <point x="116" y="404"/>
      <point x="76" y="376" type="qcurve"/>
      <point x="67" y="384"/>
      <point x="50" y="405"/>
      <point x="46" y="414" type="qcurve" smooth="yes"/>
      <point x="42" y="421"/>
      <point x="36" y="433"/>
      <point x="34" y="441" type="qcurve"/>
      <point x="60" y="457"/>
      <point x="122" y="488"/>
      <point x="172" y="512" type="qcurve"/>
      <point x="142" y="528"/>
      <point x="82" y="556"/>
      <point x="36" y="575" type="qcurve"/>
      <point x="40" y="592"/>
      <point x="48" y="613"/>
      <point x="53" y="620" type="qcurve" smooth="yes"/>
      <point x="57" y="628"/>
      <point x="71" y="645"/>
      <point x="71" y="645" type="qcurve"/>
      <point x="98" y="631"/>
      <point x="159" y="591"/>
      <point x="200" y="562" type="qcurve"/>
      <point x="198" y="599"/>
      <point x="189" y="708"/>
      <point x="189" y="709" type="qcurve"/>
      <point x="198" y="712"/>
      <point x="224" y="717"/>
      <point x="235" y="717" type="qcurve" smooth="yes"/>
      <point x="242" y="717"/>
      <point x="255" y="716"/>
      <point x="266" y="714" type="qcurve"/>
      <point x="266" y="677"/>
      <point x="262" y="603"/>
      <point x="258" y="557" type="qcurve"/>
      <point x="289" y="577"/>
      <point x="345" y="617"/>
      <point x="380" y="645" type="qcurve"/>
      <point x="389" y="637"/>
      <point x="406" y="616"/>
      <point x="411" y="607" type="qcurve" smooth="yes"/>
      <point x="413" y="604"/>
      <point x="419" y="591"/>
      <point x="423" y="580" type="qcurve"/>
      <point x="401" y="566"/>
      <point x="343" y="536"/>
      <point x="286" y="510" type="qcurve"/>
      <point x="320" y="493"/>
      <point x="383" y="462"/>
      <point x="420" y="446" type="qcurve"/>
      <point x="418" y="435"/>
      <point x="409" y="410"/>
      <point x="403" y="401" type="qcurve" smooth="yes"/>
      <point x="401" y="397"/>
      <point x="393" y="385"/>
      <point x="386" y="376" type="qcurve"/>
      <point x="362" y="389"/>
      <point x="306" y="426"/>
    </contour>
  </outline>
</glyph>
<glyph name="comma" format="1">
  <advance width="173"/>
  <unicode hex="002C"/>
  <outline>
    <contour>
      <point x="51" y="96" type="qcurve"/>
      <point x="78" y="98"/>
      <point x="130" y="94"/>
      <point x="152" y="89" type="qcurve"/>
      <point x="149" y="10"/>
      <point x="115" y="-141"/>
      <point x="81" y="-225" type="qcurve"/>
      <point x="61" y="-223"/>
      <point x="26" y="-217"/>
      <point x="9" y="-212" type="qcurve"/>
      <point x="29" y="-132"/>
      <point x="49" y="16"/>
    </contour>
  </outline>
</glyph>
<glyph name="slash" format="1">
  <advance width="464"/>
  <unicode hex="002F"/>
  <outline>
    <contour>
      <point x="394" y="749" type="qcurve"/>
      <point x="412" y="745"/>
      <point x="452" y="723"/>
      <point x="470" y="707" type="qcurve"/>
      <point x="385" y="504"/>
      <point x="153" y="20"/>
      <point x="34" y="-203" type="qcurve"/>
      <point x="12" y="-195"/>
      <point x="-26" y="-176"/>
      <point x="-37" y="-167" type="qcurve"/>
      <point x="46" y="-20"/>
      <point x="288" y="495"/>
    </contour>
  </outline>
</glyph>
<glyph name="one" format="1">
  <advance width="375"/>
  <unicode hex="0031"/>
  <outline>
    <contour>
      <point x="250" y="-34" type="qcurve"/>
      <point x="241" y="-39"/>
      <point x="216" y="-44"/>
      <point x="201" y="-44" type="qcurve" smooth="yes"/>
      <point x="191" y="-45"/>
      <point x="174" y="-44"/>
      <point x="163" y="-42" type="qcurve"/>
      <point x="165" y="14"/>
      <point x="171" y="99"/>
      <point x="177" y="150" type="qcurve" smooth="yes"/>
      <point x="183" y="235"/>
      <point x="212" y="434"/>
      <point x="232" y="526" type="qcurve"/>
      <point x="200" y="501"/>
      <point x="124" y="448"/>
      <point x="77" y="418" type="qcurve"/>
      <point x="57" y="434"/>
      <point x="30" y="470"/>
      <point x="19" y="495" type="qcurve"/>
      <point x="101" y="537"/>
      <point x="249" y="638"/>
      <point x="312" y="695" type="qcurve"/>
      <point x="332" y="686"/>
      <point x="362" y="667"/>
      <point x="374" y="654" type="qcurve"/>
      <point x="337" y="559"/>
      <point x="267" y="168"/>
    </contour>
  </outline>
</glyph>
<glyph name="two" format="1">
  <advance width="432"/>
  <unicode hex="0032"/>
  <outline>
    <contour>
      <point x="403" y="55" type="qcurve"/>
      <point x="402" y="30"/>
      <point x="392" y="-15"/>
      <point x="383" y="-36" type="qcurve"/>
      <point x="268" y="-29"/>
      <point x="71" y="-1"/>
      <point x="0" y="19" type="qcurve"/>
      <point x="0" y="40"/>
      <point x="5" y="71"/>
      <point x="10" y="85" type="qcurve"/>
      <point x="161" y="195"/>
      <point x="300" y="381"/>
      <point x="300" y="474" type="qcurve" smooth="yes"/>
      <point x="300" y="520"/>
      <point x="260" y="574"/>
      <point x="225" y="574" type="qcurve" smooth="yes"/>
      <point x="188" y="574"/>
      <point x="136" y="498"/>
      <point x="122" y="423" type="qcurve"/>
      <point x="96" y="423"/>
      <point x="46" y="434"/>
      <point x="24" y="444" type="qcurve"/>
      <point x="46" y="540"/>
      <point x="152" y="641"/>
      <point x="229" y="641" type="qcurve" smooth="yes"/>
      <point x="309" y="641"/>
      <point x="408" y="544"/>
      <point x="408" y="466" type="qcurve" smooth="yes"/>
      <point x="408" y="370"/>
      <point x="267" y="178"/>
      <point x="118" y="70" type="qcurve"/>
      <point x="209" y="61"/>
      <point x="334" y="54"/>
    </contour>
  </outline>
</glyph>
<glyph name="seven" format="1">
  <advance width="416"/>
  <unicode hex="0037"/>
  <outline>
    <contour>
      <point x="411" y="566" type="qcurve"/>
      <point x="305" y="421"/>
      <point x="172" y="160"/>
      <point x="111" y="-17" type="qcurve"/>
      <point x="83" y="-19"/>
      <point x="32" y="-11"/>
      <point x="7" y="-1" type="qcurve"/>
      <point x="69" y="166"/>
      <point x="214" y="441"/>
      <point x="309" y="569" type="qcurve"/>
      <point x="208" y="566"/>
      <point x="67" y="573"/>
      <point x="-9" y="583" type="qcurve"/>
      <point x="-10" y="608"/>
      <point x="-2" y="655"/>
      <point x="7" y="677" type="qcurve"/>
      <point x="130" y="655"/>
      <point x="309" y="638"/>
      <point x="408" y="639" type="qcurve"/>
      <point x="411" y="623"/>
      <point x="413" y="591"/>
    </contour>
  </outline>
</glyph>
<glyph name="nine" format="1">
  <advance width="518"/>
  <unicode hex="0039"/>
  <outline>
    <contour>
      <point x="151" y="478" type="qcurve" smooth="yes"/>
      <point x="151" y="409"/>
      <point x="208" y="332"/>
      <point x="258" y="332" type="qcurve" smooth="yes"/>
      <point x="300" y="332"/>
      <point x="361" y="399"/>
      <point x="374" y="460" type="qcurve"/>
      <point x="365" y="545"/>
      <point x="306" y="636"/>
      <point x="260" y="636" type="qcurve" smooth="yes"/>
      <point x="212" y="636"/>
      <point x="151" y="547"/>
    </contour>
    <contour>
      <point x="486" y="392" type="qcurve" smooth="yes"/>
      <point x="486" y="210"/>
      <point x="322" y="-30"/>
      <point x="197" y="-30" type="qcurve" smooth="yes"/>
      <point x="146" y="-30"/>
      <point x="64" y="8"/>
      <point x="32" y="47" type="qcurve"/>
      <point x="44" y="72"/>
      <point x="72" y="109"/>
      <point x="89" y="125" type="qcurve"/>
      <point x="108" y="88"/>
      <point x="171" y="49"/>
      <point x="209" y="49" type="qcurve"/>
      <point x="276" y="49"/>
      <point x="369" y="207"/>
      <point x="377" y="336" type="qcurve"/>
      <point x="348" y="297"/>
      <point x="274" y="257"/>
      <point x="230" y="257" type="qcurve" smooth="yes"/>
      <point x="148" y="257"/>
      <point x="42" y="372"/>
      <point x="42" y="460" type="qcurve" smooth="yes"/>
      <point x="42" y="569"/>
      <point x="165" y="711"/>
      <point x="262" y="711" type="qcurve" smooth="yes"/>
      <point x="366" y="711"/>
      <point x="486" y="540"/>
    </contour>
  </outline>
</glyph>
<glyph name="semicolon" format="1">
  <advance width="194"/>
  <unicode hex="003B"/>
  <outline>
    <contour>
      <point x="164" y="540" type="qcurve"/>
      <point x="165" y="508"/>
      <point x="164" y="457"/>
      <point x="163" y="438" type="qcurve"/>
      <point x="132" y="437"/>
      <point x="80" y="439"/>
      <point x="51" y="441" type="qcurve"/>
      <point x="50" y="452"/>
      <point x="49" y="475"/>
      <point x="48" y="497" type="qcurve" smooth="yes"/>
      <point x="47" y="515"/>
      <point x="45" y="533"/>
      <point x="45" y="542" type="qcurve"/>
      <point x="60" y="545"/>
      <point x="92" y="548"/>
      <point x="109" y="548" type="qcurve" smooth="yes"/>
      <point x="124" y="548"/>
      <point x="152" y="544"/>
    </contour>
    <contour>
      <point x="54" y="97" type="qcurve"/>
      <point x="81" y="97"/>
      <point x="133" y="94"/>
      <point x="155" y="91" type="qcurve"/>
      <point x="155" y="14"/>
      <point x="120" y="-138"/>
      <point x="82" y="-224" type="qcurve"/>
      <point x="62" y="-222"/>
      <point x="28" y="-215"/>
      <point x="12" y="-210" type="qcurve"/>
      <point x="35" y="-118"/>
      <point x="55" y="24"/>
    </contour>
  </outline>
</glyph>
<glyph name="less" format="1">
  <advance width="396"/>
  <unicode hex="003C"/>
  <outline>
    <contour>
      <point x="365" y="211" type="qcurve"/>
      <point x="362" y="193"/>
      <point x="352" y="164"/>
      <point x="344" y="148" type="qcurve"/>
      <point x="256" y="181"/>
      <point x="88" y="272"/>
      <point x="30" y="318" type="qcurve"/>
      <point x="32" y="363" type="line"/>
      <point x="94" y="409"/>
      <point x="258" y="497"/>
      <point x="345" y="532" type="qcurve"/>
      <point x="355" y="511"/>
      <point x="364" y="485"/>
      <point x="367" y="470" type="qcurve"/>
      <point x="295" y="439"/>
      <point x="174" y="375"/>
      <point x="120" y="339" type="qcurve"/>
      <point x="167" y="307"/>
      <point x="287" y="244"/>
    </contour>
  </outline>
</glyph>
<glyph name="greater" format="1">
  <advance width="396"/>
  <unicode hex="003E"/>
  <outline>
    <contour>
      <point x="51" y="149" type="qcurve"/>
      <point x="40" y="172"/>
      <point x="32" y="197"/>
      <point x="29" y="212" type="qcurve"/>
      <point x="101" y="243"/>
      <point x="222" y="306"/>
      <point x="277" y="342" type="qcurve"/>
      <point x="230" y="374"/>
      <point x="111" y="437"/>
      <point x="31" y="471" type="qcurve"/>
      <point x="34" y="489"/>
      <point x="44" y="518"/>
      <point x="53" y="533" type="qcurve"/>
      <point x="140" y="500"/>
      <point x="308" y="409"/>
      <point x="366" y="364" type="qcurve"/>
      <point x="364" y="319" type="line"/>
      <point x="301" y="272"/>
      <point x="137" y="183"/>
    </contour>
  </outline>
</glyph>
<glyph name="at" format="1">
  <advance width="889"/>
  <unicode hex="0040"/>
  <outline>
    <contour>
      <point x="649" y="-42" type="qcurve"/>
      <point x="598" y="-73"/>
      <point x="482" y="-103"/>
      <point x="416" y="-103" type="qcurve" smooth="yes"/>
      <point x="244" y="-103"/>
      <point x="38" y="110"/>
      <point x="38" y="286" type="qcurve" smooth="yes"/>
      <point x="38" y="484"/>
      <point x="272" y="723"/>
      <point x="468" y="723" type="qcurve" smooth="yes"/>
      <point x="639" y="723"/>
      <point x="835" y="522"/>
      <point x="835" y="358" type="qcurve" smooth="yes"/>
      <point x="835" y="238"/>
      <point x="719" y="85"/>
      <point x="633" y="85" type="qcurve" smooth="yes"/>
      <point x="582" y="85"/>
      <point x="515" y="137"/>
      <point x="501" y="187" type="qcurve"/>
      <point x="483" y="141"/>
      <point x="427" y="96"/>
      <point x="388" y="96" type="qcurve" smooth="yes"/>
      <point x="328" y="96"/>
      <point x="256" y="202"/>
      <point x="256" y="290" type="qcurve" smooth="yes"/>
      <point x="256" y="400"/>
      <point x="357" y="531"/>
      <point x="441" y="531" type="qcurve" smooth="yes"/>
      <point x="449" y="531"/>
      <point x="468" y="528"/>
      <point x="484" y="525" type="qcurve"/>
      <point x="484" y="531"/>
      <point x="484" y="543"/>
      <point x="484" y="549" type="qcurve"/>
      <point x="510" y="555"/>
      <point x="556" y="557"/>
      <point x="579" y="552" type="qcurve"/>
      <point x="574" y="475"/>
      <point x="570" y="362"/>
      <point x="570" y="309" type="qcurve" smooth="yes"/>
      <point x="570" y="221"/>
      <point x="603" y="141"/>
      <point x="640" y="141" type="qcurve" smooth="yes"/>
      <point x="691" y="141"/>
      <point x="758" y="264"/>
      <point x="758" y="360" type="qcurve" smooth="yes"/>
      <point x="758" y="497"/>
      <point x="597" y="659"/>
      <point x="456" y="659" type="qcurve" smooth="yes"/>
      <point x="303" y="659"/>
      <point x="119" y="465"/>
      <point x="119" y="305" type="qcurve" smooth="yes"/>
      <point x="119" y="146"/>
      <point x="281" y="-37"/>
      <point x="424" y="-37" type="qcurve" smooth="yes"/>
      <point x="481" y="-37"/>
      <point x="568" y="-11"/>
      <point x="604" y="18" type="qcurve"/>
      <point x="618" y="6"/>
      <point x="639" y="-21"/>
    </contour>
    <contour>
      <point x="343" y="303" type="qcurve" smooth="yes"/>
      <point x="343" y="236"/>
      <point x="378" y="161"/>
      <point x="409" y="161" type="qcurve" smooth="yes"/>
      <point x="439" y="161"/>
      <point x="481" y="219"/>
      <point x="492" y="275" type="qcurve"/>
      <point x="491" y="306"/>
      <point x="488" y="395"/>
      <point x="486" y="468" type="qcurve"/>
      <point x="478" y="471"/>
      <point x="459" y="473"/>
      <point x="449" y="473" type="qcurve" smooth="yes"/>
      <point x="402" y="473"/>
      <point x="343" y="381"/>
    </contour>
  </outline>
</glyph>
<glyph name="E" format="1">
  <advance width="541"/>
  <unicode hex="0045"/>
  <outline>
    <contour>
      <point x="503" y="-12" type="qcurve"/>
      <point x="429" y="-24"/>
      <point x="222" y="-39"/>
      <point x="128" y="-41" type="qcurve"/>
      <point x="100" y="140"/>
      <point x="62" y="544"/>
      <point x="60" y="688" type="qcurve"/>
      <point x="192" y="713"/>
      <point x="378" y="733"/>
      <point x="479" y="735" type="qcurve"/>
      <point x="480" y="714"/>
      <point x="476" y="669"/>
      <point x="471" y="646" type="qcurve"/>
      <point x="395" y="646"/>
      <point x="252" y="636"/>
      <point x="181" y="626" type="qcurve"/>
      <point x="179" y="569"/>
      <point x="180" y="452"/>
      <point x="183" y="392" type="qcurve"/>
      <point x="263" y="408"/>
      <point x="372" y="423"/>
      <point x="426" y="427" type="qcurve"/>
      <point x="431" y="406"/>
      <point x="435" y="365"/>
      <point x="434" y="342" type="qcurve"/>
      <point x="358" y="337"/>
      <point x="247" y="326"/>
      <point x="188" y="316" type="qcurve"/>
      <point x="192" y="257"/>
      <point x="206" y="116"/>
      <point x="216" y="42" type="qcurve"/>
      <point x="286" y="44"/>
      <point x="435" y="61"/>
      <point x="495" y="74" type="qcurve"/>
      <point x="500" y="60"/>
      <point x="504" y="10"/>
    </contour>
  </outline>
</glyph>
<glyph name="I" format="1">
  <advance width="258"/>
  <unicode hex="0049"/>
  <outline>
    <contour>
      <point x="183" y="496" type="qcurve" smooth="yes"/>
      <point x="183" y="330"/>
      <point x="178" y="98"/>
      <point x="173" y="-18" type="qcurve"/>
      <point x="158" y="-22"/>
      <point x="107" y="-28"/>
      <point x="83" y="-29" type="qcurve"/>
      <point x="86" y="167"/>
      <point x="75" y="516"/>
      <point x="62" y="664" type="qcurve"/>
      <point x="77" y="673"/>
      <point x="113" y="682"/>
      <point x="132" y="682" type="qcurve" smooth="yes"/>
      <point x="142" y="682"/>
      <point x="161" y="680"/>
      <point x="179" y="677" type="qcurve"/>
      <point x="181" y="636"/>
      <point x="183" y="550"/>
    </contour>
  </outline>
</glyph>
<glyph name="Q" format="1">
  <advance width="610"/>
  <unicode hex="0051"/>
  <outline>
    <contour>
      <point x="595" y="-42" type="qcurve"/>
      <point x="587" y="-61"/>
      <point x="554" y="-95"/>
      <point x="530" y="-111" type="qcurve"/>
      <point x="502" y="-70"/>
      <point x="455" y="-7"/>
      <point x="432" y="20" type="qcurve"/>
      <point x="397" y="-10"/>
      <point x="314" y="-40"/>
      <point x="267" y="-40" type="qcurve" smooth="yes"/>
      <point x="162" y="-40"/>
      <point x="39" y="132"/>
      <point x="39" y="276" type="qcurve" smooth="yes"/>
      <point x="39" y="450"/>
      <point x="205" y="673"/>
      <point x="335" y="673" type="qcurve" smooth="yes"/>
      <point x="446" y="673"/>
      <point x="564" y="513"/>
      <point x="564" y="365" type="qcurve" smooth="yes"/>
      <point x="564" y="285"/>
      <point x="523" y="136"/>
      <point x="485" y="80" type="qcurve"/>
      <point x="511" y="56"/>
      <point x="564" y="-4"/>
    </contour>
    <contour>
      <point x="149" y="291" type="qcurve" smooth="yes"/>
      <point x="149" y="175"/>
      <point x="221" y="36"/>
      <point x="283" y="36" type="qcurve" smooth="yes"/>
      <point x="310" y="36"/>
      <point x="358" y="58"/>
      <point x="377" y="80" type="qcurve"/>
      <point x="357" y="100"/>
      <point x="317" y="138"/>
      <point x="295" y="155" type="qcurve"/>
      <point x="305" y="172"/>
      <point x="324" y="193"/>
      <point x="334" y="199" type="qcurve"/>
      <point x="353" y="187"/>
      <point x="392" y="159"/>
      <point x="416" y="141" type="qcurve"/>
      <point x="434" y="181"/>
      <point x="452" y="282"/>
      <point x="452" y="339" type="qcurve" smooth="yes"/>
      <point x="452" y="470"/>
      <point x="387" y="596"/>
      <point x="320" y="596" type="qcurve" smooth="yes"/>
      <point x="243" y="596"/>
      <point x="149" y="428"/>
    </contour>
  </outline>
</glyph>
<glyph name="R" format="1">
  <advance width="580"/>
  <unicode hex="0052"/>
  <outline>
    <contour>
      <point x="566" y="15" type="qcurve"/>
      <point x="552" y="1"/>
      <point x="498" y="-26"/>
      <point x="470" y="-34" type="qcurve"/>
      <point x="412" y="95"/>
      <point x="333" y="242"/>
      <point x="287" y="308" type="qcurve"/>
      <point x="268" y="301"/>
      <point x="224" y="286"/>
      <point x="191" y="276" type="qcurve"/>
      <point x="188" y="197"/>
      <point x="180" y="58"/>
      <point x="174" y="-5" type="qcurve"/>
      <point x="154" y="-7"/>
      <point x="102" y="-4"/>
      <point x="84" y="0" type="qcurve"/>
      <point x="89" y="116"/>
      <point x="90" y="174"/>
      <point x="90" y="202" type="qcurve" smooth="yes"/>
      <point x="90" y="355"/>
      <point x="79" y="565"/>
      <point x="64" y="698" type="qcurve"/>
      <point x="108" y="732"/>
      <point x="225" y="770"/>
      <point x="284" y="770" type="qcurve" smooth="yes"/>
      <point x="390" y="770"/>
      <point x="512" y="664"/>
      <point x="512" y="574" type="qcurve" smooth="yes"/>
      <point x="512" y="504"/>
      <point x="440" y="390"/>
      <point x="369" y="347" type="qcurve"/>
      <point x="418" y="288"/>
      <point x="516" y="123"/>
    </contour>
    <contour>
      <point x="181" y="680" type="qcurve"/>
      <point x="187" y="603"/>
      <point x="192" y="467"/>
      <point x="192" y="394" type="qcurve" smooth="yes"/>
      <point x="192" y="383"/>
      <point x="192" y="360"/>
      <point x="192" y="348" type="qcurve"/>
      <point x="299" y="375"/>
      <point x="402" y="478"/>
      <point x="402" y="559" type="qcurve" smooth="yes"/>
      <point x="402" y="627"/>
      <point x="334" y="700"/>
      <point x="272" y="700" type="qcurve" smooth="yes"/>
      <point x="250" y="700"/>
      <point x="204" y="690"/>
    </contour>
  </outline>
</glyph>
<glyph name="S" format="1">
  <advance width="495"/>
  <unicode hex="0053"/>
  <outline>
    <contour>
      <point x="416" y="300" type="qcurve" smooth="yes"/>
      <point x="436" y="270"/>
      <point x="456" y="201"/>
      <point x="456" y="160" type="qcurve" smooth="yes"/>
      <point x="456" y="72"/>
      <point x="340" y="-40"/>
      <point x="251" y="-40" type="qcurve" smooth="yes"/>
      <point x="146" y="-40"/>
      <point x="22" y="108"/>
      <point x="22" y="221" type="qcurve"/>
      <point x="42" y="231"/>
      <point x="93" y="245"/>
      <point x="114" y="246" type="qcurve"/>
      <point x="113" y="146"/>
      <point x="182" y="31"/>
      <point x="244" y="31" type="qcurve" smooth="yes"/>
      <point x="291" y="31"/>
      <point x="346" y="91"/>
      <point x="346" y="141" type="qcurve" smooth="yes"/>
      <point x="346" y="188"/>
      <point x="300" y="265"/>
      <point x="222" y="323" type="qcurve" smooth="yes"/>
      <point x="173" y="360"/>
      <point x="129" y="403"/>
      <point x="113" y="426" type="qcurve" smooth="yes"/>
      <point x="92" y="456"/>
      <point x="72" y="527"/>
      <point x="72" y="568" type="qcurve" smooth="yes"/>
      <point x="72" y="658"/>
      <point x="181" y="767"/>
      <point x="272" y="767" type="qcurve" smooth="yes"/>
      <point x="355" y="767"/>
      <point x="450" y="677"/>
      <point x="469" y="575" type="qcurve"/>
      <point x="453" y="565"/>
      <point x="411" y="554"/>
      <point x="376" y="551" type="qcurve"/>
      <point x="367" y="626"/>
      <point x="317" y="693"/>
      <point x="269" y="693" type="qcurve" smooth="yes"/>
      <point x="228" y="693"/>
      <point x="184" y="639"/>
      <point x="184" y="588" type="qcurve" smooth="yes"/>
      <point x="184" y="538"/>
      <point x="231" y="459"/>
      <point x="309" y="401" type="qcurve" smooth="yes"/>
      <point x="357" y="365"/>
      <point x="401" y="322"/>
    </contour>
  </outline>
</glyph>
<glyph name="V" format="1">
  <advance width="574"/>
  <unicode hex="0056"/>
  <outline>
    <contour>
      <point x="546" y="743" type="qcurve"/>
      <point x="519" y="514"/>
      <point x="410" y="137"/>
      <point x="305" y="-85" type="qcurve"/>
      <point x="288" y="-91"/>
      <point x="243" y="-96"/>
      <point x="216" y="-96" type="qcurve"/>
      <point x="146" y="70"/>
      <point x="46" y="421"/>
      <point x="16" y="608" type="qcurve"/>
      <point x="43" y="620"/>
      <point x="98" y="634"/>
      <point x="129" y="635" type="qcurve"/>
      <point x="149" y="469"/>
      <point x="222" y="160"/>
      <point x="273" y="26" type="qcurve"/>
      <point x="344" y="201"/>
      <point x="425" y="545"/>
      <point x="446" y="763" type="qcurve"/>
      <point x="470" y="762"/>
      <point x="519" y="753"/>
    </contour>
  </outline>
</glyph>
<glyph name="Z" format="1">
  <advance width="586"/>
  <unicode hex="005A"/>
  <outline>
    <contour>
      <point x="529" y="72" type="qcurve"/>
      <point x="528" y="43"/>
      <point x="518" y="-10"/>
      <point x="508" y="-34" type="qcurve"/>
      <point x="394" y="-33"/>
      <point x="133" y="-12"/>
      <point x="20" y="5" type="qcurve"/>
      <point x="19" y="30"/>
      <point x="23" y="75"/>
      <point x="28" y="91" type="qcurve"/>
      <point x="168" y="237"/>
      <point x="367" y="486"/>
      <point x="434" y="599" type="qcurve"/>
      <point x="342" y="606"/>
      <point x="170" y="627"/>
      <point x="80" y="642" type="qcurve"/>
      <point x="81" y="671"/>
      <point x="93" y="718"/>
      <point x="106" y="739" type="qcurve"/>
      <point x="210" y="718"/>
      <point x="427" y="682"/>
      <point x="563" y="662" type="qcurve"/>
      <point x="559" y="628"/>
      <point x="552" y="593"/>
      <point x="549" y="585" type="qcurve"/>
      <point x="477" y="475"/>
      <point x="272" y="227"/>
      <point x="126" y="72" type="qcurve"/>
      <point x="235" y="65"/>
      <point x="435" y="65"/>
    </contour>
  </outline>
</glyph>
<glyph name="bracketleft" format="1">
  <advance width="373"/>
  <unicode hex="005B"/>
  <outline>
    <contour>
      <point x="353" y="-54" type="qcurve"/>
      <point x="357" y="-67"/>
      <point x="362" y="-111"/>
      <point x="362" y="-128" type="qcurve"/>
      <point x="308" y="-136"/>
      <point x="189" y="-143"/>
      <point x="127" y="-142" type="qcurve"/>
      <point x="96" y="61"/>
      <point x="62" y="527"/>
      <point x="61" y="754" type="qcurve"/>
      <point x="127" y="769"/>
      <point x="245" y="785"/>
      <point x="306" y="788" type="qcurve"/>
      <point x="306" y="766"/>
      <point x="304" y="730"/>
      <point x="302" y="715" type="qcurve"/>
      <point x="264" y="714"/>
      <point x="193" y="709"/>
      <point x="161" y="705" type="qcurve"/>
      <point x="152" y="519"/>
      <point x="170" y="156"/>
      <point x="198" y="-68" type="qcurve"/>
      <point x="230" y="-68"/>
      <point x="315" y="-60"/>
    </contour>
  </outline>
</glyph>
<glyph name="bracketright" format="1">
  <advance width="355"/>
  <unicode hex="005D"/>
  <outline>
    <contour>
      <point x="258" y="804" type="qcurve"/>
      <point x="281" y="669"/>
      <point x="288" y="181"/>
      <point x="271" y="-86" type="qcurve"/>
      <point x="213" y="-98"/>
      <point x="96" y="-113"/>
      <point x="32" y="-117" type="qcurve"/>
      <point x="31" y="-100"/>
      <point x="33" y="-62"/>
      <point x="36" y="-43" type="qcurve"/>
      <point x="86" y="-41"/>
      <point x="159" y="-36"/>
      <point x="189" y="-32" type="qcurve"/>
      <point x="204" y="165"/>
      <point x="195" y="546"/>
      <point x="171" y="729" type="qcurve"/>
      <point x="136" y="729"/>
      <point x="56" y="722"/>
      <point x="21" y="715" type="qcurve"/>
      <point x="17" y="728"/>
      <point x="12" y="773"/>
      <point x="12" y="790" type="qcurve"/>
      <point x="69" y="798"/>
      <point x="193" y="805"/>
    </contour>
  </outline>
</glyph>
<glyph name="asciicircum" format="1">
  <advance width="420"/>
  <unicode hex="005E"/>
  <outline>
    <contour>
      <point x="401" y="203" type="qcurve"/>
      <point x="374" y="192"/>
      <point x="352" y="185"/>
      <point x="339" y="182" type="qcurve"/>
      <point x="308" y="254"/>
      <point x="244" y="375"/>
      <point x="208" y="429" type="qcurve"/>
      <point x="176" y="382"/>
      <point x="113" y="262"/>
      <point x="80" y="184" type="qcurve"/>
      <point x="62" y="187"/>
      <point x="33" y="197"/>
      <point x="18" y="205" type="qcurve"/>
      <point x="50" y="292"/>
      <point x="141" y="461"/>
      <point x="187" y="519" type="qcurve"/>
      <point x="232" y="517" type="line"/>
      <point x="278" y="456"/>
      <point x="366" y="291"/>
    </contour>
  </outline>
</glyph>
<glyph name="a" format="1">
  <advance width="476"/>
  <unicode hex="0061"/>
  <outline>
    <contour>
      <point x="423" y="345" type="qcurve" smooth="yes"/>
      <point x="423" y="278"/>
      <point x="387" y="57"/>
      <point x="362" y="-35" type="qcurve"/>
      <point x="342" y="-35"/>
      <point x="298" y="-28"/>
      <point x="277" y="-22" type="qcurve"/>
      <point x="280" y="-5"/>
      <point x="286" y="23"/>
      <point x="289" y="34" type="qcurve"/>
      <point x="267" y="20"/>
      <point x="215" y="6"/>
      <point x="186" y="6" type="qcurve" smooth="yes"/>
      <point x="114" y="6"/>
      <point x="26" y="81"/>
      <point x="26" y="144" type="qcurve" smooth="yes"/>
      <point x="26" y="211"/>
      <point x="138" y="279"/>
      <point x="247" y="279" type="qcurve" smooth="yes"/>
      <point x="265" y="279"/>
      <point x="296" y="278"/>
      <point x="319" y="277" type="qcurve"/>
      <point x="319" y="288"/>
      <point x="319" y="309"/>
      <point x="319" y="319" type="qcurve" smooth="yes"/>
      <point x="319" y="403"/>
      <point x="283" y="477"/>
      <point x="243" y="477" type="qcurve" smooth="yes"/>
      <point x="202" y="477"/>
      <point x="147" y="401"/>
      <point x="145" y="341" type="qcurve"/>
      <point x="109" y="344"/>
      <point x="63" y="370"/>
      <point x="52" y="392" type="qcurve"/>
      <point x="65" y="455"/>
      <point x="180" y="543"/>
      <point x="254" y="543" type="qcurve" smooth="yes"/>
      <point x="338" y="543"/>
      <point x="423" y="443"/>
    </contour>
    <contour>
      <point x="133" y="139" type="qcurve" smooth="yes"/>
      <point x="133" y="106"/>
      <point x="175" y="66"/>
      <point x="211" y="66" type="qcurve" smooth="yes"/>
      <point x="236" y="66"/>
      <point x="281" y="81"/>
      <point x="300" y="95" type="qcurve"/>
      <point x="307" y="132"/>
      <point x="315" y="194"/>
      <point x="316" y="226" type="qcurve"/>
      <point x="224" y="229"/>
      <point x="133" y="186"/>
    </contour>
  </outline>
</glyph>
<glyph name="b" format="1">
  <advance width="476"/>
  <unicode hex="0062"/>
  <outline>
    <contour>
      <point x="439" y="293" type="qcurve" smooth="yes"/>
      <point x="439" y="144"/>
      <point x="306" y="-40"/>
      <point x="200" y="-40" type="qcurve" smooth="yes"/>
      <point x="161" y="-40"/>
      <point x="94" y="-17"/>
      <point x="63" y="7" type="qcurve"/>
      <point x="59" y="69"/>
      <point x="55" y="245"/>
      <point x="55" y="342" type="qcurve" smooth="yes"/>
      <point x="55" y="451"/>
      <point x="63" y="644"/>
      <point x="71" y="703" type="qcurve"/>
      <point x="83" y="709"/>
      <point x="123" y="715"/>
      <point x="149" y="715" type="qcurve" smooth="yes"/>
      <point x="159" y="715"/>
      <point x="177" y="713"/>
      <point x="194" y="710" type="qcurve"/>
      <point x="185" y="656"/>
      <point x="170" y="520"/>
      <point x="164" y="443" type="qcurve"/>
      <point x="188" y="476"/>
      <point x="251" y="509"/>
      <point x="290" y="509" type="qcurve" smooth="yes"/>
      <point x="363" y="509"/>
      <point x="439" y="399"/>
    </contour>
    <contour>
      <point x="155" y="53" type="qcurve"/>
      <point x="166" y="43"/>
      <point x="192" y="34"/>
      <point x="207" y="34" type="qcurve" smooth="yes"/>
      <point x="267" y="34"/>
      <point x="331" y="176"/>
      <point x="331" y="303" type="qcurve" smooth="yes"/>
      <point x="331" y="369"/>
      <point x="293" y="437"/>
      <point x="255" y="437" type="qcurve" smooth="yes"/>
      <point x="226" y="437"/>
      <point x="175" y="381"/>
      <point x="157" y="330" type="qcurve"/>
      <point x="156" y="292"/>
      <point x="154" y="216"/>
      <point x="154" y="180" type="qcurve" smooth="yes"/>
      <point x="154" y="120"/>
      <point x="154" y="71"/>
    </contour>
  </outline>
</glyph>
<glyph name="c" format="1">
  <advance width="447"/>
  <unicode hex="0063"/>
  <outline>
    <contour>
      <point x="416" y="369" type="qcurve"/>
      <point x="396" y="359"/>
      <point x="347" y="350"/>
      <point x="317" y="350" type="qcurve"/>
      <point x="317" y="415"/>
      <point x="285" y="478"/>
      <point x="252" y="478" type="qcurve" smooth="yes"/>
      <point x="203" y="478"/>
      <point x="132" y="312"/>
      <point x="132" y="205" type="qcurve" smooth="yes"/>
      <point x="132" y="129"/>
      <point x="181" y="42"/>
      <point x="225" y="42" type="qcurve" smooth="yes"/>
      <point x="260" y="42"/>
      <point x="325" y="103"/>
      <point x="350" y="158" type="qcurve"/>
      <point x="368" y="154"/>
      <point x="400" y="132"/>
      <point x="411" y="117" type="qcurve"/>
      <point x="395" y="59"/>
      <point x="280" y="-25"/>
      <point x="207" y="-25" type="qcurve" smooth="yes"/>
      <point x="120" y="-25"/>
      <point x="26" y="94"/>
      <point x="26" y="199" type="qcurve" smooth="yes"/>
      <point x="26" y="344"/>
      <point x="156" y="541"/>
      <point x="256" y="541" type="qcurve" smooth="yes"/>
      <point x="332" y="541"/>
      <point x="416" y="449"/>
    </contour>
  </outline>
</glyph>
<glyph name="f" format="1">
  <advance width="403"/>
  <unicode hex="0066"/>
  <outline>
    <contour>
      <point x="189" y="376" type="qcurve"/>
      <point x="193" y="277"/>
      <point x="221" y="71"/>
      <point x="239" y="-2" type="qcurve"/>
      <point x="215" y="-10"/>
      <point x="154" y="-21"/>
      <point x="129" y="-21" type="qcurve"/>
      <point x="116" y="38"/>
      <point x="91" y="287"/>
      <point x="90" y="388" type="qcurve"/>
      <point x="70" y="391"/>
      <point x="36" y="400"/>
      <point x="25" y="404" type="qcurve"/>
      <point x="25" y="417"/>
      <point x="32" y="454"/>
      <point x="36" y="458" type="qcurve"/>
      <point x="46" y="457"/>
      <point x="73" y="454"/>
      <point x="91" y="452" type="qcurve"/>
      <point x="97" y="590"/>
      <point x="181" y="727"/>
      <point x="258" y="727" type="qcurve" smooth="yes"/>
      <point x="315" y="727"/>
      <point x="382" y="655"/>
      <point x="382" y="597" type="qcurve" smooth="yes"/>
      <point x="382" y="582"/>
      <point x="376" y="549"/>
      <point x="371" y="539" type="qcurve"/>
      <point x="350" y="539"/>
      <point x="309" y="546"/>
      <point x="290" y="552" type="qcurve"/>
      <point x="294" y="567"/>
      <point x="298" y="591"/>
      <point x="298" y="602" type="qcurve" smooth="yes"/>
      <point x="298" y="628"/>
      <point x="276" y="658"/>
      <point x="257" y="658" type="qcurve" smooth="yes"/>
      <point x="223" y="658"/>
      <point x="187" y="550"/>
      <point x="187" y="448" type="qcurve"/>
      <point x="187" y="446" type="line"/>
      <point x="219" y="445"/>
      <point x="251" y="444"/>
      <point x="264" y="444" type="qcurve" smooth="yes"/>
      <point x="286" y="444"/>
      <point x="330" y="447"/>
      <point x="349" y="450" type="qcurve"/>
      <point x="349" y="436"/>
      <point x="345" y="397"/>
      <point x="342" y="379" type="qcurve"/>
      <point x="331" y="376"/>
      <point x="295" y="373"/>
      <point x="266" y="373" type="qcurve" smooth="yes"/>
      <point x="246" y="373"/>
      <point x="207" y="375"/>
    </contour>
  </outline>
</glyph>
<glyph name="j" format="1">
  <advance width="251"/>
  <unicode hex="006A"/>
  <outline>
    <contour>
      <point x="156" y="740" type="qcurve"/>
      <point x="148" y="716"/>
      <point x="132" y="648"/>
      <point x="128" y="619" type="qcurve"/>
      <point x="114" y="615"/>
      <point x="73" y="610"/>
      <point x="36" y="609" type="qcurve"/>
      <point x="32" y="625"/>
      <point x="27" y="656"/>
      <point x="26" y="670" type="qcurve" smooth="yes"/>
      <point x="25" y="692"/>
      <point x="29" y="725"/>
      <point x="33" y="739" type="qcurve"/>
      <point x="47" y="746"/>
      <point x="76" y="752"/>
      <point x="95" y="752" type="qcurve" smooth="yes"/>
      <point x="116" y="751"/>
      <point x="145" y="746"/>
    </contour>
    <contour>
      <point x="190" y="206" type="qcurve" smooth="yes"/>
      <point x="190" y="12"/>
      <point x="96" y="-194"/>
      <point x="7" y="-194" type="qcurve" smooth="yes"/>
      <point x="-38" y="-194"/>
      <point x="-108" y="-150"/>
      <point x="-134" y="-106" type="qcurve"/>
      <point x="-123" y="-83"/>
      <point x="-95" y="-51"/>
      <point x="-80" y="-43" type="qcurve"/>
      <point x="-62" y="-77"/>
      <point x="-24" y="-110"/>
      <point x="-1" y="-110" type="qcurve" smooth="yes"/>
      <point x="42" y="-110"/>
      <point x="86" y="13"/>
      <point x="86" y="131" type="qcurve" smooth="yes"/>
      <point x="86" y="212"/>
      <point x="57" y="404"/>
      <point x="27" y="526" type="qcurve"/>
      <point x="52" y="534"/>
      <point x="119" y="540"/>
      <point x="152" y="538" type="qcurve"/>
      <point x="172" y="438"/>
      <point x="190" y="277"/>
    </contour>
  </outline>
</glyph>
<glyph name="k" format="1">
  <advance width="478"/>
  <unicode hex="006B"/>
  <outline>
    <contour>
      <point x="149" y="225" type="qcurve" smooth="yes"/>
      <point x="149" y="154"/>
      <point x="157" y="25"/>
      <point x="166" y="-39" type="qcurve"/>
      <point x="145" y="-45"/>
      <point x="98" y="-51"/>
      <point x="73" y="-51" type="qcurve"/>
      <point x="60" y="60"/>
      <point x="51" y="216"/>
      <point x="51" y="302" type="qcurve" smooth="yes"/>
      <point x="51" y="418"/>
      <point x="66" y="654"/>
      <point x="79" y="737" type="qcurve"/>
      <point x="104" y="739"/>
      <point x="173" y="731"/>
      <point x="194" y="723" type="qcurve"/>
      <point x="177" y="634"/>
      <point x="155" y="423"/>
      <point x="151" y="320" type="qcurve"/>
      <point x="209" y="372"/>
      <point x="305" y="486"/>
      <point x="366" y="578" type="qcurve"/>
      <point x="385" y="568"/>
      <point x="424" y="535"/>
      <point x="437" y="517" type="qcurve"/>
      <point x="392" y="452"/>
      <point x="296" y="350"/>
      <point x="227" y="293" type="qcurve"/>
      <point x="271" y="234"/>
      <point x="376" y="139"/>
      <point x="458" y="84" type="qcurve"/>
      <point x="433" y="51"/>
      <point x="399" y="21"/>
      <point x="380" y="13" type="qcurve"/>
      <point x="318" y="63"/>
      <point x="221" y="168"/>
      <point x="166" y="245" type="qcurve"/>
      <point x="163" y="243"/>
      <point x="152" y="235"/>
      <point x="149" y="233" type="qcurve"/>
      <point x="149" y="231"/>
      <point x="149" y="227"/>
    </contour>
  </outline>
</glyph>
<glyph name="l" format="1">
  <advance width="228"/>
  <unicode hex="006C"/>
  <outline>
    <contour>
      <point x="166" y="-50" type="qcurve"/>
      <point x="152" y="-54"/>
      <point x="94" y="-61"/>
      <point x="73" y="-61" type="qcurve"/>
      <point x="57" y="157"/>
      <point x="49" y="541"/>
      <point x="57" y="724" type="qcurve"/>
      <point x="71" y="732"/>
      <point x="107" y="742"/>
      <point x="124" y="742" type="qcurve" smooth="yes"/>
      <point x="138" y="742"/>
      <point x="164" y="739"/>
      <point x="177" y="735" type="qcurve"/>
      <point x="162" y="588"/>
      <point x="156" y="148"/>
    </contour>
  </outline>
</glyph>
<glyph name="m" format="1">
  <advance width="745"/>
  <unicode hex="006D"/>
  <outline>
    <contour>
      <point x="688" y="378" type="qcurve" smooth="yes"/>
      <point x="688" y="287"/>
      <point x="653" y="54"/>
      <point x="630" y="-27" type="qcurve"/>
      <point x="600" y="-26"/>
      <point x="548" y="-18"/>
      <point x="527" y="-12" type="qcurve"/>
      <point x="555" y="100"/>
      <point x="583" y="297"/>
      <point x="583" y="379" type="qcurve" smooth="yes"/>
      <point x="583" y="434"/>
      <point x="557" y="483"/>
      <point x="528" y="483" type="qcurve" smooth="yes"/>
      <point x="500" y="483"/>
      <point x="444" y="421"/>
      <point x="422" y="365" type="qcurve"/>
      <point x="423" y="359"/>
      <point x="423" y="343"/>
      <point x="423" y="326" type="qcurve" smooth="yes"/>
      <point x="423" y="254"/>
      <point x="399" y="70"/>
      <point x="384" y="11" type="qcurve"/>
      <point x="365" y="11"/>
      <point x="316" y="18"/>
      <point x="286" y="25" type="qcurve"/>
      <point x="305" y="128"/>
      <point x="321" y="268"/>
      <point x="321" y="323" type="qcurve" smooth="yes"/>
      <point x="321" y="378"/>
      <point x="295" y="427"/>
      <point x="266" y="427" type="qcurve" smooth="yes"/>
      <point x="235" y="427"/>
      <point x="175" y="368"/>
      <point x="155" y="316" type="qcurve"/>
      <point x="154" y="241"/>
      <point x="153" y="176"/>
      <point x="153" y="151" type="qcurve" smooth="yes"/>
      <point x="153" y="105"/>
      <point x="156" y="14"/>
      <point x="158" y="-9" type="qcurve"/>
      <point x="142" y="-14"/>
      <point x="91" y="-22"/>
      <point x="69" y="-22" type="qcurve"/>
      <point x="59" y="104"/>
      <point x="44" y="423"/>
      <point x="44" y="527" type="qcurve"/>
      <point x="58" y="534"/>
      <point x="99" y="542"/>
      <point x="120" y="542" type="qcurve" smooth="yes"/>
      <point x="134" y="542"/>
      <point x="156" y="540"/>
      <point x="168" y="537" type="qcurve"/>
      <point x="165" y="514"/>
      <point x="161" y="453"/>
      <point x="159" y="416" type="qcurve"/>
      <point x="189" y="464"/>
      <point x="265" y="513"/>
      <point x="308" y="513" type="qcurve" smooth="yes"/>
      <point x="344" y="513"/>
      <point x="392" y="480"/>
      <point x="405" y="447" type="qcurve"/>
      <point x="439" y="508"/>
      <point x="522" y="569"/>
      <point x="571" y="569" type="qcurve" smooth="yes"/>
      <point x="631" y="569"/>
      <point x="688" y="476"/>
    </contour>
  </outline>
</glyph>
<glyph name="n" format="1">
  <advance width="493"/>
  <unicode hex="006E"/>
  <outline>
    <contour>
      <point x="153" y="151" type="qcurve" smooth="yes"/>
      <point x="153" y="98"/>
      <point x="156" y="1"/>
      <point x="159" y="-25" type="qcurve"/>
      <point x="142" y="-30"/>
      <point x="92" y="-37"/>
      <point x="70" y="-37" type="qcurve"/>
      <point x="62" y="72"/>
      <point x="48" y="407"/>
      <point x="48" y="521" type="qcurve"/>
      <point x="61" y="527"/>
      <point x="103" y="535"/>
      <point x="124" y="535" type="qcurve" smooth="yes"/>
      <point x="137" y="535"/>
      <point x="161" y="533"/>
      <point x="172" y="530" type="qcurve"/>
      <point x="169" y="506"/>
      <point x="165" y="453"/>
      <point x="164" y="426" type="qcurve"/>
      <point x="196" y="478"/>
      <point x="269" y="530"/>
      <point x="311" y="530" type="qcurve" smooth="yes"/>
      <point x="375" y="530"/>
      <point x="436" y="437"/>
      <point x="436" y="339" type="qcurve" smooth="yes"/>
      <point x="436" y="259"/>
      <point x="410" y="62"/>
      <point x="396" y="11" type="qcurve"/>
      <point x="377" y="11"/>
      <point x="327" y="18"/>
      <point x="296" y="25" type="qcurve"/>
      <point x="314" y="124"/>
      <point x="331" y="277"/>
      <point x="331" y="340" type="qcurve" smooth="yes"/>
      <point x="331" y="395"/>
      <point x="303" y="444"/>
      <point x="272" y="444" type="qcurve" smooth="yes"/>
      <point x="241" y="444"/>
      <point x="180" y="380"/>
      <point x="158" y="323" type="qcurve"/>
      <point x="156" y="273"/>
      <point x="153" y="186"/>
    </contour>
  </outline>
</glyph>
<glyph name="o" format="1">
  <advance width="474"/>
  <unicode hex="006F"/>
  <outline>
    <contour>
      <point x="28" y="240" type="qcurve" smooth="yes"/>
      <point x="28" y="372"/>
      <point x="158" y="540"/>
      <point x="260" y="540" type="qcurve" smooth="yes"/>
      <point x="342" y="540"/>
      <point x="436" y="425"/>
      <point x="436" y="325" type="qcurve" smooth="yes"/>
      <point x="436" y="179"/>
      <point x="313" y="-10"/>
      <point x="210" y="-10" type="qcurve" smooth="yes"/>
      <point x="126" y="-10"/>
      <point x="28" y="128"/>
    </contour>
    <contour>
      <point x="328" y="280" type="qcurve" smooth="yes"/>
      <point x="328" y="377"/>
      <point x="283" y="470"/>
      <point x="237" y="470" type="qcurve" smooth="yes"/>
      <point x="194" y="470"/>
      <point x="132" y="345"/>
      <point x="132" y="254" type="qcurve" smooth="yes"/>
      <point x="132" y="172"/>
      <point x="185" y="59"/>
      <point x="230" y="59" type="qcurve" smooth="yes"/>
      <point x="270" y="59"/>
      <point x="328" y="190"/>
    </contour>
  </outline>
</glyph>
<glyph name="p" format="1">
  <advance width="480"/>
  <unicode hex="0070"/>
  <outline>
    <contour>
      <point x="159" y="95" type="qcurve"/>
      <point x="171" y="85"/>
      <point x="196" y="75"/>
      <point x="210" y="75" type="qcurve" smooth="yes"/>
      <point x="262" y="75"/>
      <point x="338" y="235"/>
      <point x="338" y="354" type="qcurve" smooth="yes"/>
      <point x="338" y="410"/>
      <point x="302" y="473"/>
      <point x="270" y="473" type="qcurve" smooth="yes"/>
      <point x="233" y="473"/>
      <point x="177" y="407"/>
      <point x="159" y="342" type="qcurve"/>
      <point x="158" y="297"/>
      <point x="157" y="246"/>
      <point x="157" y="223" type="qcurve"/>
      <point x="157" y="197"/>
      <point x="158" y="139"/>
    </contour>
    <contour>
      <point x="164" y="14" type="qcurve"/>
      <point x="167" y="-32"/>
      <point x="176" y="-127"/>
      <point x="188" y="-211" type="qcurve"/>
      <point x="171" y="-216"/>
      <point x="120" y="-223"/>
      <point x="98" y="-223" type="qcurve"/>
      <point x="81" y="-103"/>
      <point x="59" y="216"/>
      <point x="59" y="349" type="qcurve" smooth="yes"/>
      <point x="59" y="408"/>
      <point x="63" y="502"/>
      <point x="68" y="548" type="qcurve"/>
      <point x="83" y="556"/>
      <point x="126" y="565"/>
      <point x="149" y="565" type="qcurve" smooth="yes"/>
      <point x="157" y="565"/>
      <point x="171" y="563"/>
      <point x="187" y="560" type="qcurve"/>
      <point x="182" y="538"/>
      <point x="173" y="489"/>
      <point x="169" y="463" type="qcurve"/>
      <point x="197" y="511"/>
      <point x="271" y="560"/>
      <point x="314" y="560" type="qcurve" smooth="yes"/>
      <point x="375" y="560"/>
      <point x="446" y="453"/>
      <point x="446" y="363" type="qcurve" smooth="yes"/>
      <point x="446" y="211"/>
      <point x="310" y="10"/>
      <point x="210" y="10" type="qcurve" smooth="yes"/>
      <point x="200" y="10"/>
      <point x="178" y="12"/>
    </contour>
  </outline>
</glyph>
<glyph name="r" format="1">
  <advance width="396"/>
  <unicode hex="0072"/>
  <outline>
    <contour>
      <point x="149" y="246" type="qcurve"/>
      <point x="152" y="191"/>
      <point x="166" y="68"/>
      <point x="177" y="-2" type="qcurve"/>
      <point x="163" y="-7"/>
      <point x="132" y="-11"/>
      <point x="116" y="-10" type="qcurve" smooth="yes"/>
      <point x="106" y="-10"/>
      <point x="90" y="-8"/>
      <point x="81" y="-5" type="qcurve"/>
      <point x="56" y="121"/>
      <point x="37" y="406"/>
      <point x="45" y="538" type="qcurve"/>
      <point x="57" y="542"/>
      <point x="87" y="546"/>
      <point x="105" y="546" type="qcurve" smooth="yes"/>
      <point x="118" y="546"/>
      <point x="146" y="542"/>
      <point x="162" y="537" type="qcurve"/>
      <point x="158" y="510"/>
      <point x="151" y="453"/>
      <point x="149" y="420" type="qcurve"/>
      <point x="172" y="491"/>
      <point x="248" y="575"/>
      <point x="288" y="575" type="qcurve" smooth="yes"/>
      <point x="332" y="575"/>
      <point x="377" y="508"/>
      <point x="377" y="442" type="qcurve" smooth="yes"/>
      <point x="377" y="431"/>
      <point x="375" y="405"/>
      <point x="374" y="392" type="qcurve"/>
      <point x="359" y="386"/>
      <point x="314" y="382"/>
      <point x="283" y="383" type="qcurve"/>
      <point x="285" y="397"/>
      <point x="287" y="421"/>
      <point x="287" y="433" type="qcurve" smooth="yes"/>
      <point x="287" y="463"/>
      <point x="272" y="494"/>
      <point x="257" y="494" type="qcurve" smooth="yes"/>
      <point x="225" y="494"/>
      <point x="166" y="359"/>
    </contour>
  </outline>
</glyph>
<glyph name="t" format="1">
  <advance width="392"/>
  <unicode hex="0074"/>
  <outline>
    <contour>
      <point x="281" y="213" type="qcurve"/>
      <point x="301" y="211"/>
      <point x="340" y="196"/>
      <point x="356" y="186" type="qcurve"/>
      <point x="354" y="104"/>
      <point x="286" y="9"/>
      <point x="225" y="9" type="qcurve" smooth="yes"/>
      <point x="154" y="9"/>
      <point x="78" y="154"/>
      <point x="78" y="291" type="qcurve" smooth="yes"/>
      <point x="78" y="337"/>
      <point x="83" y="424"/>
      <point x="88" y="465" type="qcurve"/>
      <point x="64" y="469"/>
      <point x="29" y="475"/>
      <point x="15" y="478" type="qcurve"/>
      <point x="15" y="495"/>
      <point x="23" y="530"/>
      <point x="29" y="542" type="qcurve"/>
      <point x="44" y="538"/>
      <point x="78" y="532"/>
      <point x="97" y="530" type="qcurve"/>
      <point x="102" y="563"/>
      <point x="116" y="629"/>
      <point x="124" y="661" type="qcurve"/>
      <point x="159" y="659"/>
      <point x="215" y="651"/>
      <point x="235" y="644" type="qcurve"/>
      <point x="227" y="620"/>
      <point x="212" y="558"/>
      <point x="205" y="522" type="qcurve"/>
      <point x="244" y="521"/>
      <point x="321" y="524"/>
      <point x="357" y="528" type="qcurve"/>
      <point x="357" y="514"/>
      <point x="351" y="481"/>
      <point x="345" y="465" type="qcurve"/>
      <point x="309" y="461"/>
      <point x="232" y="457"/>
      <point x="195" y="458" type="qcurve"/>
      <point x="188" y="412"/>
      <point x="181" y="320"/>
      <point x="181" y="277" type="qcurve" smooth="yes"/>
      <point x="181" y="178"/>
      <point x="207" y="77"/>
      <point x="233" y="77" type="qcurve" smooth="yes"/>
      <point x="256" y="77"/>
      <point x="280" y="144"/>
    </contour>
  </outline>
</glyph>
<glyph name="u" format="1">
  <advance width="443"/>
  <unicode hex="0075"/>
  <outline>
    <contour>
      <point x="201" y="-10" type="qcurve" smooth="yes"/>
      <point x="120" y="-10"/>
      <point x="37" y="132"/>
      <point x="37" y="268" type="qcurve" smooth="yes"/>
      <point x="37" y="337"/>
      <point x="62" y="484"/>
      <point x="78" y="515" type="qcurve"/>
      <point x="89" y="519"/>
      <point x="115" y="523"/>
      <point x="127" y="523" type="qcurve" smooth="yes"/>
      <point x="140" y="523"/>
      <point x="163" y="518"/>
      <point x="171" y="514" type="qcurve"/>
      <point x="157" y="462"/>
      <point x="143" y="343"/>
      <point x="143" y="276" type="qcurve" smooth="yes"/>
      <point x="143" y="180"/>
      <point x="182" y="61"/>
      <point x="217" y="61" type="qcurve" smooth="yes"/>
      <point x="257" y="61"/>
      <point x="299" y="197"/>
      <point x="299" y="321" type="qcurve" smooth="yes"/>
      <point x="299" y="362"/>
      <point x="291" y="451"/>
      <point x="287" y="469" type="qcurve"/>
      <point x="307" y="478"/>
      <point x="368" y="488"/>
      <point x="395" y="488" type="qcurve"/>
      <point x="400" y="467"/>
      <point x="405" y="402"/>
      <point x="405" y="364" type="qcurve" smooth="yes"/>
      <point x="405" y="181"/>
      <point x="302" y="-10"/>
    </contour>
  </outline>
</glyph>
<glyph name="y" format="1">
  <advance width="477"/>
  <unicode hex="0079"/>
  <outline>
    <contour>
      <point x="422" y="188" type="qcurve" smooth="yes"/>
      <point x="422" y="-14"/>
      <point x="311" y="-227"/>
      <point x="210" y="-227" type="qcurve" smooth="yes"/>
      <point x="142" y="-227"/>
      <point x="58" y="-142"/>
      <point x="48" y="-67" type="qcurve"/>
      <point x="68" y="-53"/>
      <point x="116" y="-33"/>
      <point x="140" y="-29" type="qcurve"/>
      <point x="151" y="-100"/>
      <point x="187" y="-159"/>
      <point x="218" y="-159" type="qcurve" smooth="yes"/>
      <point x="259" y="-159"/>
      <point x="309" y="-29"/>
      <point x="314" y="95" type="qcurve"/>
      <point x="290" y="56"/>
      <point x="229" y="17"/>
      <point x="192" y="17" type="qcurve" smooth="yes"/>
      <point x="124" y="17"/>
      <point x="37" y="146"/>
      <point x="37" y="250" type="qcurve" smooth="yes"/>
      <point x="37" y="318"/>
      <point x="56" y="437"/>
      <point x="85" y="533" type="qcurve"/>
      <point x="109" y="532"/>
      <point x="159" y="525"/>
      <point x="185" y="518" type="qcurve"/>
      <point x="162" y="435"/>
      <point x="144" y="321"/>
      <point x="144" y="255" type="qcurve" smooth="yes"/>
      <point x="144" y="186"/>
      <point x="188" y="100"/>
      <point x="225" y="100" type="qcurve" smooth="yes"/>
      <point x="252" y="100"/>
      <point x="298" y="149"/>
      <point x="316" y="198" type="qcurve"/>
      <point x="314" y="283"/>
      <point x="293" y="437"/>
      <point x="275" y="495" type="qcurve"/>
      <point x="295" y="507"/>
      <point x="358" y="518"/>
      <point x="387" y="515" type="qcurve"/>
      <point x="402" y="454"/>
      <point x="422" y="268"/>
    </contour>
  </outline>
</glyph>
<glyph name="z" format="1">
  <advance width="467"/>
  <unicode hex="007A"/>
  <outline>
    <contour>
      <point x="407" y="66" type="qcurve"/>
      <point x="406" y="43"/>
      <point x="396" y="-3"/>
      <point x="387" y="-25" type="qcurve"/>
      <point x="279" y="-24"/>
      <point x="90" y="-1"/>
      <point x="13" y="22" type="qcurve"/>
      <point x="13" y="41"/>
      <point x="17" y="74"/>
      <point x="20" y="87" type="qcurve"/>
      <point x="97" y="190"/>
      <point x="246" y="359"/>
      <point x="329" y="438" type="qcurve"/>
      <point x="273" y="446"/>
      <point x="154" y="455"/>
      <point x="61" y="458" type="qcurve"/>
      <point x="63" y="488"/>
      <point x="71" y="525"/>
      <point x="81" y="547" type="qcurve"/>
      <point x="192" y="539"/>
      <point x="353" y="510"/>
      <point x="437" y="483" type="qcurve"/>
      <point x="435" y="461"/>
      <point x="427" y="426"/>
      <point x="422" y="414" type="qcurve"/>
      <point x="322" y="314"/>
      <point x="178" y="150"/>
      <point x="115" y="66" type="qcurve"/>
      <point x="208" y="58"/>
      <point x="336" y="59"/>
    </contour>
  </outline>
</glyph>
<glyph name="exclamdown" format="1">
  <advance width="242"/>
  <unicode hex="00A1"/>
  <outline>
    <contour>
      <point x="108" y="559" type="qcurve" smooth="yes"/>
      <point x="121" y="559"/>
      <point x="147" y="555"/>
      <point x="161" y="551" type="qcurve"/>
      <point x="162" y="532"/>
      <point x="162" y="490"/>
      <point x="161" y="453" type="qcurve"/>
      <point x="137" y="452"/>
      <point x="95" y="453"/>
      <point x="63" y="455" type="qcurve"/>
      <point x="63" y="457"/>
      <point x="59" y="528"/>
      <point x="57" y="554" type="qcurve"/>
      <point x="75" y="557"/>
      <point x="98" y="559"/>
    </contour>
    <contour>
      <point x="158" y="329" type="qcurve"/>
      <point x="166" y="209"/>
      <point x="174" y="4"/>
      <point x="174" y="-113" type="qcurve" smooth="yes"/>
      <point x="174" y="-137"/>
      <point x="174" y="-162"/>
      <point x="173" y="-171" type="qcurve"/>
      <point x="154" y="-180"/>
      <point x="120" y="-188"/>
      <point x="101" y="-188" type="qcurve" smooth="yes"/>
      <point x="88" y="-188"/>
      <point x="66" y="-185"/>
      <point x="56" y="-182" type="qcurve"/>
      <point x="70" y="-69"/>
      <point x="81" y="202"/>
      <point x="77" y="331" type="qcurve"/>
      <point x="83" y="333"/>
      <point x="98" y="334"/>
      <point x="108" y="334" type="qcurve" smooth="yes"/>
      <point x="120" y="334"/>
      <point x="146" y="331"/>
    </contour>
  </outline>
</glyph>
<glyph name="sterling" format="1">
  <advance width="463"/>
  <unicode hex="00A3"/>
  <outline>
    <contour>
      <point x="209" y="-6" type="qcurve" smooth="yes"/>
      <point x="174" y="-2"/>
      <point x="141" y="1"/>
      <point x="128" y="1" type="qcurve" smooth="yes"/>
      <point x="108" y="1"/>
      <point x="69" y="-9"/>
      <point x="39" y="-21" type="qcurve"/>
      <point x="29" y="-6"/>
      <point x="20" y="22"/>
      <point x="19" y="37" type="qcurve"/>
      <point x="45" y="50"/>
      <point x="96" y="65"/>
      <point x="118" y="67" type="qcurve"/>
      <point x="141" y="86"/>
      <point x="163" y="132"/>
      <point x="163" y="160" type="qcurve" smooth="yes"/>
      <point x="163" y="180"/>
      <point x="155" y="212"/>
      <point x="146" y="229" type="qcurve"/>
      <point x="106" y="228"/>
      <point x="45" y="229"/>
      <point x="22" y="230" type="qcurve"/>
      <point x="20" y="258"/>
      <point x="20" y="286"/>
      <point x="22" y="295" type="qcurve"/>
      <point x="34" y="294"/>
      <point x="65" y="293"/>
      <point x="100" y="293" type="qcurve"/>
      <point x="66" y="340"/>
      <point x="35" y="425"/>
      <point x="35" y="469" type="qcurve" smooth="yes"/>
      <point x="35" y="557"/>
      <point x="152" y="673"/>
      <point x="243" y="673" type="qcurve" smooth="yes"/>
      <point x="332" y="673"/>
      <point x="431" y="548"/>
      <point x="432" y="433" type="qcurve"/>
      <point x="410" y="427"/>
      <point x="358" y="427"/>
      <point x="330" y="433" type="qcurve"/>
      <point x="334" y="518"/>
      <point x="290" y="604"/>
      <point x="242" y="604" type="qcurve" smooth="yes"/>
      <point x="196" y="604"/>
      <point x="143" y="529"/>
      <point x="143" y="464" type="qcurve" smooth="yes"/>
      <point x="143" y="426"/>
      <point x="162" y="359"/>
      <point x="199" y="296" type="qcurve"/>
      <point x="245" y="299"/>
      <point x="344" y="310"/>
      <point x="388" y="317" type="qcurve"/>
      <point x="390" y="309"/>
      <point x="391" y="294"/>
      <point x="390" y="288" type="qcurve" smooth="yes"/>
      <point x="390" y="278"/>
      <point x="387" y="256"/>
      <point x="385" y="247" type="qcurve"/>
      <point x="351" y="242"/>
      <point x="273" y="234"/>
      <point x="230" y="232" type="qcurve"/>
      <point x="234" y="220"/>
      <point x="238" y="194"/>
      <point x="238" y="181" type="qcurve" smooth="yes"/>
      <point x="238" y="147"/>
      <point x="211" y="89"/>
      <point x="183" y="62" type="qcurve"/>
      <point x="215" y="57"/>
      <point x="246" y="56"/>
      <point x="262" y="56" type="qcurve" smooth="yes"/>
      <point x="306" y="57"/>
      <point x="396" y="71"/>
      <point x="440" y="85" type="qcurve"/>
      <point x="449" y="62"/>
      <point x="456" y="13"/>
      <point x="452" y="-11" type="qcurve"/>
      <point x="396" y="-18"/>
      <point x="289" y="-17"/>
    </contour>
  </outline>
</glyph>
<glyph name="currency" format="1">
  <advance width="564"/>
  <unicode hex="00A4"/>
  <outline>
    <contour>
      <point x="376" y="371" type="qcurve" smooth="yes"/>
      <point x="376" y="450"/>
      <point x="332" y="531"/>
      <point x="288" y="531" type="qcurve" smooth="yes"/>
      <point x="241" y="531"/>
      <point x="183" y="430"/>
      <point x="183" y="349" type="qcurve" smooth="yes"/>
      <point x="183" y="278"/>
      <point x="237" y="181"/>
      <point x="278" y="181" type="qcurve" smooth="yes"/>
      <point x="320" y="181"/>
      <point x="376" y="293"/>
    </contour>
    <contour>
      <point x="402" y="184" type="qcurve"/>
      <point x="375" y="152"/>
      <point x="303" y="119"/>
      <point x="261" y="119" type="qcurve" smooth="yes"/>
      <point x="229" y="119"/>
      <point x="175" y="140"/>
      <point x="153" y="160" type="qcurve"/>
      <point x="132" y="131"/>
      <point x="87" y="79"/>
      <point x="66" y="59" type="qcurve"/>
      <point x="49" y="66"/>
      <point x="16" y="91"/>
      <point x="4" y="106" type="qcurve"/>
      <point x="36" y="134"/>
      <point x="87" y="189"/>
      <point x="111" y="222" type="qcurve"/>
      <point x="101" y="246"/>
      <point x="90" y="304"/>
      <point x="90" y="335" type="qcurve" smooth="yes"/>
      <point x="90" y="386"/>
      <point x="114" y="473"/>
      <point x="137" y="506" type="qcurve"/>
      <point x="107" y="534"/>
      <point x="60" y="585"/>
      <point x="44" y="608" type="qcurve"/>
      <point x="51" y="623"/>
      <point x="80" y="654"/>
      <point x="97" y="665" type="qcurve"/>
      <point x="119" y="631"/>
      <point x="159" y="582"/>
      <point x="186" y="556" type="qcurve"/>
      <point x="211" y="574"/>
      <point x="272" y="593"/>
      <point x="305" y="593" type="qcurve" smooth="yes"/>
      <point x="336" y="593"/>
      <point x="391" y="574"/>
      <point x="413" y="556" type="qcurve"/>
      <point x="434" y="586"/>
      <point x="477" y="637"/>
      <point x="497" y="656" type="qcurve"/>
      <point x="512" y="650"/>
      <point x="544" y="625"/>
      <point x="556" y="609" type="qcurve"/>
      <point x="526" y="583"/>
      <point x="477" y="530"/>
      <point x="454" y="499" type="qcurve"/>
      <point x="463" y="478"/>
      <point x="471" y="431"/>
      <point x="471" y="405" type="qcurve" smooth="yes"/>
      <point x="471" y="360"/>
      <point x="454" y="276"/>
      <point x="438" y="241" type="qcurve"/>
      <point x="469" y="214"/>
      <point x="521" y="159"/>
      <point x="541" y="132" type="qcurve"/>
      <point x="532" y="118"/>
      <point x="504" y="90"/>
      <point x="487" y="80" type="qcurve"/>
      <point x="459" y="119"/>
      <point x="424" y="162"/>
    </contour>
  </outline>
</glyph>
<glyph name="brokenbar" format="1">
  <advance width="270"/>
  <unicode hex="00A6"/>
  <outline>
    <contour>
      <point x="181" y="725" type="qcurve"/>
      <point x="177" y="655"/>
      <point x="171" y="474"/>
      <point x="170" y="377" type="qcurve"/>
      <point x="153" y="373"/>
      <point x="113" y="370"/>
      <point x="88" y="371" type="qcurve"/>
      <point x="85" y="452"/>
      <point x="84" y="623"/>
      <point x="86" y="713" type="qcurve"/>
      <point x="106" y="722"/>
      <point x="158" y="729"/>
    </contour>
    <contour>
      <point x="176" y="-162" type="qcurve"/>
      <point x="161" y="-166"/>
      <point x="120" y="-170"/>
      <point x="106" y="-169" type="qcurve"/>
      <point x="101" y="-95"/>
      <point x="94" y="89"/>
      <point x="91" y="221" type="qcurve"/>
      <point x="110" y="223"/>
      <point x="150" y="222"/>
      <point x="169" y="219" type="qcurve"/>
      <point x="169" y="114"/>
      <point x="173" y="-88"/>
    </contour>
  </outline>
</glyph>
<glyph name="section" format="1">
  <advance width="397"/>
  <unicode hex="00A7"/>
  <outline>
    <contour>
      <point x="188" y="344" type="qcurve"/>
      <point x="155" y="335"/>
      <point x="121" y="294"/>
      <point x="121" y="263" type="qcurve" smooth="yes"/>
      <point x="121" y="234"/>
      <point x="160" y="183"/>
      <point x="206" y="151" type="qcurve"/>
      <point x="239" y="160"/>
      <point x="273" y="201"/>
      <point x="273" y="232" type="qcurve" smooth="yes"/>
      <point x="273" y="262"/>
      <point x="235" y="313"/>
    </contour>
    <contour>
      <point x="352" y="-41" type="qcurve" smooth="yes"/>
      <point x="352" y="-103"/>
      <point x="263" y="-187"/>
      <point x="195" y="-187" type="qcurve" smooth="yes"/>
      <point x="127" y="-187"/>
      <point x="47" y="-113"/>
      <point x="29" y="-36" type="qcurve"/>
      <point x="43" y="-26"/>
      <point x="83" y="-14"/>
      <point x="102" y="-13" type="qcurve"/>
      <point x="112" y="-70"/>
      <point x="158" y="-127"/>
      <point x="194" y="-127" type="qcurve" smooth="yes"/>
      <point x="223" y="-127"/>
      <point x="258" y="-88"/>
      <point x="258" y="-56" type="qcurve" smooth="yes"/>
      <point x="258" y="-19"/>
      <point x="213" y="40"/>
      <point x="155" y="78" type="qcurve" smooth="yes"/>
      <point x="85" y="123"/>
      <point x="33" y="199"/>
      <point x="33" y="245" type="qcurve" smooth="yes"/>
      <point x="33" y="290"/>
      <point x="85" y="361"/>
      <point x="133" y="381" type="qcurve"/>
      <point x="91" y="413"/>
      <point x="53" y="485"/>
      <point x="53" y="530" type="qcurve" smooth="yes"/>
      <point x="53" y="594"/>
      <point x="142" y="679"/>
      <point x="210" y="679" type="qcurve" smooth="yes"/>
      <point x="278" y="679"/>
      <point x="357" y="607"/>
      <point x="370" y="533" type="qcurve"/>
      <point x="355" y="524"/>
      <point x="320" y="515"/>
      <point x="295" y="514" type="qcurve"/>
      <point x="287" y="570"/>
      <point x="247" y="620"/>
      <point x="213" y="620" type="qcurve" smooth="yes"/>
      <point x="182" y="620"/>
      <point x="147" y="581"/>
      <point x="147" y="545" type="qcurve" smooth="yes"/>
      <point x="147" y="508"/>
      <point x="191" y="449"/>
      <point x="244" y="415" type="qcurve" smooth="yes"/>
      <point x="311" y="372"/>
      <point x="360" y="297"/>
      <point x="360" y="250" type="qcurve" smooth="yes"/>
      <point x="360" y="205"/>
      <point x="309" y="134"/>
      <point x="262" y="114" type="qcurve"/>
      <point x="309" y="80"/>
      <point x="352" y="5"/>
    </contour>
  </outline>
</glyph>
<glyph name="copyright" format="1">
  <advance width="777"/>
  <unicode hex="00A9"/>
  <outline>
    <contour>
      <point x="414" y="701" type="qcurve" smooth="yes"/>
      <point x="566" y="701"/>
      <point x="739" y="502"/>
      <point x="739" y="336" type="qcurve" smooth="yes"/>
      <point x="739" y="161"/>
      <point x="548" y="-39"/>
      <point x="381" y="-39" type="qcurve" smooth="yes"/>
      <point x="226" y="-39"/>
      <point x="38" y="153"/>
      <point x="38" y="313" type="qcurve" smooth="yes"/>
      <point x="38" y="485"/>
      <point x="248" y="701"/>
    </contour>
    <contour>
      <point x="389" y="26" type="qcurve" smooth="yes"/>
      <point x="517" y="26"/>
      <point x="658" y="190"/>
      <point x="658" y="338" type="qcurve" smooth="yes"/>
      <point x="658" y="477"/>
      <point x="523" y="635"/>
      <point x="402" y="635" type="qcurve" smooth="yes"/>
      <point x="282" y="635"/>
      <point x="119" y="456"/>
      <point x="119" y="323" type="qcurve" smooth="yes"/>
      <point x="119" y="185"/>
      <point x="264" y="26"/>
    </contour>
    <contour>
      <point x="459" y="278" type="qcurve"/>
      <point x="478" y="280"/>
      <point x="515" y="274"/>
      <point x="525" y="267" type="qcurve"/>
      <point x="521" y="203"/>
      <point x="446" y="134"/>
      <point x="380" y="134" type="qcurve" smooth="yes"/>
      <point x="314" y="134"/>
      <point x="241" y="221"/>
      <point x="241" y="301" type="qcurve" smooth="yes"/>
      <point x="241" y="401"/>
      <point x="342" y="533"/>
      <point x="421" y="533" type="qcurve"/>
      <point x="471" y="533"/>
      <point x="528" y="470"/>
      <point x="530" y="411" type="qcurve"/>
      <point x="509" y="401"/>
      <point x="475" y="395"/>
      <point x="450" y="395" type="qcurve"/>
      <point x="451" y="438"/>
      <point x="430" y="480"/>
      <point x="406" y="480" type="qcurve"/>
      <point x="375" y="480"/>
      <point x="333" y="388"/>
      <point x="333" y="320" type="qcurve" smooth="yes"/>
      <point x="333" y="256"/>
      <point x="368" y="188"/>
      <point x="401" y="188" type="qcurve" smooth="yes"/>
      <point x="432" y="188"/>
      <point x="464" y="236"/>
    </contour>
  </outline>
</glyph>
<glyph name="guillemotleft" format="1">
  <advance width="502"/>
  <unicode hex="00AB"/>
  <outline>
    <contour>
      <point x="479" y="114" type="qcurve"/>
      <point x="464" y="91"/>
      <point x="435" y="64"/>
      <point x="414" y="53" type="qcurve"/>
      <point x="352" y="102"/>
      <point x="263" y="206"/>
      <point x="232" y="265" type="qcurve"/>
      <point x="285" y="301"/>
      <point x="373" y="395"/>
      <point x="411" y="456" type="qcurve"/>
      <point x="435" y="442"/>
      <point x="468" y="414"/>
      <point x="478" y="399" type="qcurve"/>
      <point x="438" y="350"/>
      <point x="365" y="281"/>
      <point x="325" y="254" type="qcurve"/>
      <point x="355" y="216"/>
      <point x="431" y="147"/>
    </contour>
    <contour>
      <point x="255" y="114" type="qcurve"/>
      <point x="240" y="91"/>
      <point x="211" y="64"/>
      <point x="191" y="53" type="qcurve"/>
      <point x="129" y="102"/>
      <point x="40" y="205"/>
      <point x="8" y="265" type="qcurve"/>
      <point x="61" y="301"/>
      <point x="149" y="395"/>
      <point x="187" y="456" type="qcurve"/>
      <point x="211" y="442"/>
      <point x="244" y="414"/>
      <point x="254" y="399" type="qcurve"/>
      <point x="214" y="350"/>
      <point x="141" y="281"/>
      <point x="101" y="254" type="qcurve"/>
      <point x="131" y="216"/>
      <point x="207" y="147"/>
    </contour>
  </outline>
</glyph>
<glyph name="logicalnot" format="1">
  <advance width="396"/>
  <unicode hex="00AC"/>
  <outline>
    <contour>
      <point x="366" y="400" type="qcurve"/>
      <point x="370" y="354"/>
      <point x="367" y="249"/>
      <point x="360" y="195" type="qcurve"/>
      <point x="342" y="195"/>
      <point x="310" y="198"/>
      <point x="291" y="201" type="qcurve"/>
      <point x="295" y="235"/>
      <point x="299" y="294"/>
      <point x="298" y="325" type="qcurve"/>
      <point x="232" y="320"/>
      <point x="90" y="324"/>
      <point x="26" y="332" type="qcurve"/>
      <point x="26" y="350"/>
      <point x="29" y="382"/>
      <point x="32" y="402" type="qcurve"/>
      <point x="110" y="392"/>
      <point x="269" y="391"/>
    </contour>
  </outline>
</glyph>
<glyph name="registered" format="1">
  <advance width="777"/>
  <unicode hex="00AE"/>
  <outline>
    <contour>
      <point x="414" y="701" type="qcurve" smooth="yes"/>
      <point x="566" y="701"/>
      <point x="739" y="502"/>
      <point x="739" y="336" type="qcurve" smooth="yes"/>
      <point x="739" y="161"/>
      <point x="548" y="-39"/>
      <point x="381" y="-39" type="qcurve" smooth="yes"/>
      <point x="226" y="-39"/>
      <point x="38" y="153"/>
      <point x="38" y="313" type="qcurve" smooth="yes"/>
      <point x="38" y="485"/>
      <point x="248" y="701"/>
    </contour>
    <contour>
      <point x="119" y="323" type="qcurve" smooth="yes"/>
      <point x="119" y="185"/>
      <point x="264" y="26"/>
      <point x="389" y="26" type="qcurve" smooth="yes"/>
      <point x="517" y="26"/>
      <point x="658" y="190"/>
      <point x="658" y="338" type="qcurve" smooth="yes"/>
      <point x="658" y="477"/>
      <point x="523" y="635"/>
      <point x="402" y="635" type="qcurve" smooth="yes"/>
      <point x="282" y="635"/>
      <point x="119" y="456"/>
    </contour>
    <contour>
      <point x="556" y="148" type="qcurve"/>
      <point x="543" y="136"/>
      <point x="502" y="115"/>
      <point x="480" y="109" type="qcurve"/>
      <point x="448" y="182"/>
      <point x="407" y="259"/>
      <point x="383" y="292" type="qcurve"/>
      <point x="380" y="291"/>
      <point x="371" y="288"/>
      <point x="363" y="286" type="qcurve" smooth="yes"/>
      <point x="357" y="284"/>
      <point x="352" y="282"/>
      <point x="349" y="281" type="qcurve"/>
      <point x="348" y="243"/>
      <point x="344" y="167"/>
      <point x="340" y="129" type="qcurve"/>
      <point x="316" y="129"/>
      <point x="279" y="132"/>
      <point x="267" y="135" type="qcurve"/>
      <point x="269" y="159"/>
      <point x="270" y="200"/>
      <point x="270" y="223" type="qcurve" smooth="yes"/>
      <point x="270" y="299"/>
      <point x="262" y="433"/>
      <point x="253" y="512" type="qcurve"/>
      <point x="281" y="532"/>
      <point x="352" y="554"/>
      <point x="388" y="554" type="qcurve" smooth="yes"/>
      <point x="452" y="554"/>
      <point x="528" y="493"/>
      <point x="528" y="443" type="qcurve" smooth="yes"/>
      <point x="528" y="407"/>
      <point x="487" y="346"/>
      <point x="448" y="322" type="qcurve"/>
      <point x="475" y="291"/>
      <point x="528" y="207"/>
    </contour>
    <contour>
      <point x="345" y="500" type="qcurve"/>
      <point x="348" y="454"/>
      <point x="350" y="381"/>
      <point x="350" y="349" type="qcurve" smooth="yes"/>
      <point x="350" y="344"/>
      <point x="350" y="335"/>
      <point x="350" y="330" type="qcurve"/>
      <point x="397" y="342"/>
      <point x="443" y="393"/>
      <point x="443" y="434" type="qcurve" smooth="yes"/>
      <point x="443" y="468"/>
      <point x="410" y="506"/>
      <point x="380" y="506" type="qcurve" smooth="yes"/>
      <point x="371" y="506"/>
      <point x="353" y="503"/>
    </contour>
  </outline>
</glyph>
<glyph name="degree" format="1">
  <advance width="255"/>
  <unicode hex="00B0"/>
  <outline>
    <contour>
      <point x="10" y="630" type="qcurve" smooth="yes"/>
      <point x="10" y="682"/>
      <point x="78" y="743"/>
      <point x="136" y="743" type="qcurve" smooth="yes"/>
      <point x="186" y="743"/>
      <point x="245" y="691"/>
      <point x="245" y="648" type="qcurve" smooth="yes"/>
      <point x="245" y="587"/>
      <point x="180" y="519"/>
      <point x="121" y="519" type="qcurve" smooth="yes"/>
      <point x="71" y="519"/>
      <point x="10" y="580"/>
    </contour>
    <contour>
      <point x="179" y="639" type="qcurve" smooth="yes"/>
      <point x="179" y="667"/>
      <point x="152" y="699"/>
      <point x="130" y="699" type="qcurve" smooth="yes"/>
      <point x="105" y="699"/>
      <point x="73" y="660"/>
      <point x="73" y="628" type="qcurve" smooth="yes"/>
      <point x="73" y="599"/>
      <point x="101" y="566"/>
      <point x="125" y="566" type="qcurve" smooth="yes"/>
      <point x="148" y="566"/>
      <point x="179" y="607"/>
    </contour>
  </outline>
</glyph>
<glyph name="threesuperior" format="1">
  <advance width="321"/>
  <unicode hex="00B3"/>
  <outline>
    <contour>
      <point x="309" y="411" type="qcurve" smooth="yes"/>
      <point x="309" y="350"/>
      <point x="225" y="270"/>
      <point x="162" y="270" type="qcurve" smooth="yes"/>
      <point x="100" y="270"/>
      <point x="25" y="343"/>
      <point x="22" y="408" type="qcurve"/>
      <point x="37" y="415"/>
      <point x="76" y="422"/>
      <point x="105" y="423" type="qcurve"/>
      <point x="105" y="375"/>
      <point x="139" y="321"/>
      <point x="166" y="321" type="qcurve" smooth="yes"/>
      <point x="191" y="321"/>
      <point x="218" y="358"/>
      <point x="218" y="392" type="qcurve" smooth="yes"/>
      <point x="218" y="445"/>
      <point x="154" y="500"/>
      <point x="97" y="494" type="qcurve"/>
      <point x="94" y="507"/>
      <point x="90" y="531"/>
      <point x="90" y="542" type="qcurve"/>
      <point x="129" y="563"/>
      <point x="191" y="612"/>
      <point x="213" y="639" type="qcurve"/>
      <point x="160" y="635"/>
      <point x="68" y="623"/>
      <point x="24" y="613" type="qcurve"/>
      <point x="20" y="627"/>
      <point x="15" y="663"/>
      <point x="16" y="680" type="qcurve"/>
      <point x="78" y="695"/>
      <point x="227" y="712"/>
      <point x="289" y="712" type="qcurve"/>
      <point x="295" y="698"/>
      <point x="301" y="662"/>
      <point x="300" y="643" type="qcurve"/>
      <point x="275" y="609"/>
      <point x="225" y="560"/>
      <point x="189" y="535" type="qcurve"/>
      <point x="247" y="523"/>
      <point x="309" y="460"/>
    </contour>
  </outline>
</glyph>
<glyph name="uni00B5" format="1">
  <advance width="474"/>
  <unicode hex="00B5"/>
  <outline>
    <contour>
      <point x="108" y="36" type="qcurve"/>
      <point x="114" y="-31"/>
      <point x="133" y="-152"/>
      <point x="145" y="-198" type="qcurve"/>
      <point x="134" y="-201"/>
      <point x="115" y="-203"/>
      <point x="102" y="-203" type="qcurve" smooth="yes"/>
      <point x="86" y="-203"/>
      <point x="55" y="-196"/>
      <point x="40" y="-190" type="qcurve"/>
      <point x="37" y="-63"/>
      <point x="36" y="100"/>
      <point x="39" y="179" type="qcurve" smooth="yes"/>
      <point x="41" y="255"/>
      <point x="62" y="426"/>
      <point x="80" y="514" type="qcurve"/>
      <point x="102" y="514"/>
      <point x="156" y="507"/>
      <point x="181" y="500" type="qcurve"/>
      <point x="163" y="401"/>
      <point x="146" y="248"/>
      <point x="146" y="185" type="qcurve" smooth="yes"/>
      <point x="146" y="130"/>
      <point x="173" y="82"/>
      <point x="204" y="82" type="qcurve" smooth="yes"/>
      <point x="236" y="82"/>
      <point x="299" y="149"/>
      <point x="321" y="207" type="qcurve"/>
      <point x="324" y="302"/>
      <point x="321" y="481"/>
      <point x="315" y="551" type="qcurve"/>
      <point x="330" y="556"/>
      <point x="384" y="563"/>
      <point x="407" y="563" type="qcurve"/>
      <point x="415" y="455"/>
      <point x="429" y="119"/>
      <point x="429" y="5" type="qcurve"/>
      <point x="415" y="-1"/>
      <point x="373" y="-9"/>
      <point x="353" y="-9" type="qcurve" smooth="yes"/>
      <point x="345" y="-9"/>
      <point x="328" y="-7"/>
      <point x="308" y="-4" type="qcurve"/>
      <point x="310" y="15"/>
      <point x="314" y="69"/>
      <point x="317" y="105" type="qcurve"/>
      <point x="286" y="51"/>
      <point x="217" y="-2"/>
      <point x="180" y="-2" type="qcurve" smooth="yes"/>
      <point x="156" y="-2"/>
      <point x="121" y="17"/>
    </contour>
  </outline>
</glyph>
<glyph name="paragraph" format="1">
  <advance width="669"/>
  <unicode hex="00B6"/>
  <outline>
    <contour>
      <point x="598" y="708" type="qcurve"/>
      <point x="604" y="466"/>
      <point x="589" y="-39"/>
      <point x="568" y="-280" type="qcurve"/>
      <point x="551" y="-284"/>
      <point x="516" y="-288"/>
      <point x="498" y="-287" type="qcurve"/>
      <point x="524" y="121"/>
      <point x="528" y="445"/>
      <point x="520" y="656" type="qcurve"/>
      <point x="510" y="660"/>
      <point x="487" y="666"/>
      <point x="473" y="669" type="qcurve"/>
      <point x="478" y="402"/>
      <point x="463" y="-11"/>
      <point x="440" y="-280" type="qcurve"/>
      <point x="426" y="-283"/>
      <point x="390" y="-286"/>
      <point x="369" y="-285" type="qcurve"/>
      <point x="385" y="-19"/>
      <point x="394" y="168"/>
      <point x="394" y="234" type="qcurve"/>
      <point x="225" y="285"/>
      <point x="61" y="443"/>
      <point x="61" y="556" type="qcurve" smooth="yes"/>
      <point x="61" y="651"/>
      <point x="204" y="762"/>
      <point x="329" y="762" type="qcurve" smooth="yes"/>
      <point x="393" y="762"/>
      <point x="503" y="741"/>
    </contour>
  </outline>
</glyph>
<glyph name="onesuperior" format="1">
  <advance width="268"/>
  <unicode hex="00B9"/>
  <outline>
    <contour>
      <point x="181" y="279" type="qcurve"/>
      <point x="170" y="275"/>
      <point x="148" y="271"/>
      <point x="136" y="271" type="qcurve" smooth="yes"/>
      <point x="128" y="270"/>
      <point x="114" y="271"/>
      <point x="106" y="273" type="qcurve"/>
      <point x="107" y="298"/>
      <point x="110" y="340"/>
      <point x="114" y="367" type="qcurve" smooth="yes"/>
      <point x="117" y="422"/>
      <point x="133" y="550"/>
      <point x="145" y="611" type="qcurve"/>
      <point x="125" y="596"/>
      <point x="79" y="568"/>
      <point x="54" y="553" type="qcurve"/>
      <point x="37" y="566"/>
      <point x="16" y="593"/>
      <point x="8" y="612" type="qcurve"/>
      <point x="63" y="638"/>
      <point x="164" y="701"/>
      <point x="209" y="737" type="qcurve"/>
      <point x="227" y="730"/>
      <point x="252" y="714"/>
      <point x="262" y="704" type="qcurve"/>
      <point x="238" y="646"/>
      <point x="192" y="401"/>
    </contour>
  </outline>
</glyph>
<glyph name="ordmasculine" format="1">
  <advance width="271"/>
  <unicode hex="00BA"/>
  <outline>
    <contour>
      <point x="9" y="557" type="qcurve" smooth="yes"/>
      <point x="9" y="631"/>
      <point x="91" y="726"/>
      <point x="156" y="726" type="qcurve" smooth="yes"/>
      <point x="206" y="726"/>
      <point x="262" y="665"/>
      <point x="262" y="610" type="qcurve" smooth="yes"/>
      <point x="262" y="530"/>
      <point x="183" y="421"/>
      <point x="117" y="421" type="qcurve" smooth="yes"/>
      <point x="67" y="421"/>
      <point x="9" y="496"/>
    </contour>
    <contour>
      <point x="177" y="582" type="qcurve" smooth="yes"/>
      <point x="177" y="630"/>
      <point x="158" y="676"/>
      <point x="137" y="676" type="qcurve" smooth="yes"/>
      <point x="118" y="676"/>
      <point x="92" y="614"/>
      <point x="92" y="567" type="qcurve" smooth="yes"/>
      <point x="92" y="527"/>
      <point x="115" y="471"/>
      <point x="134" y="471" type="qcurve" smooth="yes"/>
      <point x="152" y="471"/>
      <point x="177" y="537"/>
    </contour>
  </outline>
</glyph>
<glyph name="guillemotright" format="1">
  <advance width="502"/>
  <unicode hex="00BB"/>
  <outline>
    <contour>
      <point x="493" y="265" type="qcurve"/>
      <point x="462" y="206"/>
      <point x="373" y="102"/>
      <point x="311" y="53" type="qcurve"/>
      <point x="290" y="64"/>
      <point x="261" y="91"/>
      <point x="246" y="114" type="qcurve"/>
      <point x="294" y="147"/>
      <point x="370" y="216"/>
      <point x="400" y="254" type="qcurve"/>
      <point x="359" y="281"/>
      <point x="286" y="351"/>
      <point x="248" y="399" type="qcurve"/>
      <point x="258" y="414"/>
      <point x="293" y="444"/>
      <point x="317" y="457" type="qcurve"/>
      <point x="355" y="396"/>
      <point x="442" y="302"/>
    </contour>
    <contour>
      <point x="269" y="265" type="qcurve"/>
      <point x="238" y="206"/>
      <point x="149" y="102"/>
      <point x="87" y="53" type="qcurve"/>
      <point x="66" y="64"/>
      <point x="36" y="92"/>
      <point x="22" y="114" type="qcurve"/>
      <point x="70" y="147"/>
      <point x="146" y="216"/>
      <point x="176" y="254" type="qcurve"/>
      <point x="135" y="281"/>
      <point x="62" y="351"/>
      <point x="24" y="399" type="qcurve"/>
      <point x="34" y="414"/>
      <point x="69" y="444"/>
      <point x="93" y="457" type="qcurve"/>
      <point x="131" y="396"/>
      <point x="218" y="302"/>
    </contour>
  </outline>
</glyph>
<glyph name="AE" format="1">
  <advance width="842"/>
  <unicode hex="00C6"/>
  <outline>
    <contour>
      <point x="804" y="-15" type="qcurve"/>
      <point x="729" y="-27"/>
      <point x="522" y="-42"/>
      <point x="428" y="-44" type="qcurve"/>
      <point x="418" y="30"/>
      <point x="405" y="137"/>
      <point x="400" y="184" type="qcurve"/>
      <point x="345" y="182"/>
      <point x="246" y="174"/>
      <point x="204" y="168" type="qcurve"/>
      <point x="183" y="123"/>
      <point x="134" y="26"/>
      <point x="104" y="-27" type="qcurve"/>
      <point x="76" y="-22"/>
      <point x="30" y="4"/>
      <point x="14" y="22" type="qcurve"/>
      <point x="108" y="180"/>
      <point x="231" y="481"/>
      <point x="290" y="702" type="qcurve"/>
      <point x="309" y="701"/>
      <point x="351" y="695"/>
      <point x="380" y="689" type="qcurve"/>
      <point x="516" y="713"/>
      <point x="687" y="730"/>
      <point x="780" y="732" type="qcurve"/>
      <point x="780" y="710"/>
      <point x="775" y="665"/>
      <point x="771" y="644" type="qcurve"/>
      <point x="696" y="643"/>
      <point x="553" y="633"/>
      <point x="482" y="624" type="qcurve"/>
      <point x="480" y="575"/>
      <point x="481" y="460"/>
      <point x="484" y="390" type="qcurve"/>
      <point x="558" y="405"/>
      <point x="669" y="420"/>
      <point x="727" y="424" type="qcurve"/>
      <point x="732" y="403"/>
      <point x="736" y="362"/>
      <point x="735" y="339" type="qcurve"/>
      <point x="662" y="335"/>
      <point x="550" y="324"/>
      <point x="489" y="314" type="qcurve"/>
      <point x="493" y="246"/>
      <point x="507" y="106"/>
      <point x="517" y="39" type="qcurve"/>
      <point x="587" y="41"/>
      <point x="736" y="58"/>
      <point x="796" y="71" type="qcurve"/>
      <point x="800" y="56"/>
      <point x="805" y="5"/>
    </contour>
    <contour>
      <point x="367" y="612" type="qcurve"/>
      <point x="340" y="514"/>
      <point x="276" y="332"/>
      <point x="240" y="247" type="qcurve"/>
      <point x="272" y="252"/>
      <point x="345" y="258"/>
      <point x="392" y="261" type="qcurve"/>
      <point x="383" y="359"/>
      <point x="370" y="537"/>
    </contour>
  </outline>
</glyph>
<glyph name="Eth" format="1">
  <advance width="589"/>
  <unicode hex="00D0"/>
  <outline>
    <contour>
      <point x="165" y="339" type="qcurve"/>
      <point x="165" y="309"/>
      <point x="165" y="250"/>
      <point x="165" y="220" type="qcurve" smooth="yes"/>
      <point x="165" y="189"/>
      <point x="166" y="125"/>
      <point x="167" y="69" type="qcurve"/>
      <point x="302" y="122"/>
      <point x="442" y="313"/>
      <point x="442" y="444" type="qcurve" smooth="yes"/>
      <point x="442" y="541"/>
      <point x="342" y="645"/>
      <point x="248" y="645" type="qcurve" smooth="yes"/>
      <point x="232" y="645"/>
      <point x="197" y="639"/>
      <point x="177" y="633" type="qcurve"/>
      <point x="173" y="575"/>
      <point x="168" y="464"/>
      <point x="166" y="403" type="qcurve"/>
      <point x="200" y="405"/>
      <point x="267" y="411"/>
      <point x="300" y="416" type="qcurve"/>
      <point x="301" y="404"/>
      <point x="301" y="373"/>
      <point x="299" y="354" type="qcurve"/>
      <point x="265" y="348"/>
      <point x="198" y="341"/>
    </contour>
    <contour>
      <point x="553" y="443" type="qcurve" smooth="yes"/>
      <point x="553" y="294"/>
      <point x="342" y="43"/>
      <point x="171" y="-10" type="qcurve"/>
      <point x="156" y="-10"/>
      <point x="93" y="-4"/>
      <point x="79" y="-1" type="qcurve"/>
      <point x="72" y="107"/>
      <point x="64" y="269"/>
      <point x="62" y="338" type="qcurve"/>
      <point x="40" y="339"/>
      <point x="-3" y="342"/>
      <point x="-24" y="344" type="qcurve"/>
      <point x="-25" y="364"/>
      <point x="-24" y="397"/>
      <point x="-22" y="407" type="qcurve"/>
      <point x="13" y="405"/>
      <point x="46" y="403"/>
      <point x="60" y="402" type="qcurve"/>
      <point x="59" y="421"/>
      <point x="59" y="465"/>
      <point x="59" y="508" type="qcurve" smooth="yes"/>
      <point x="59" y="548"/>
      <point x="61" y="635"/>
      <point x="62" y="671" type="qcurve"/>
      <point x="112" y="694"/>
      <point x="207" y="717"/>
      <point x="253" y="717" type="qcurve" smooth="yes"/>
      <point x="401" y="717"/>
      <point x="553" y="578"/>
    </contour>
  </outline>
</glyph>
<glyph name="germandbls" format="1">
  <advance width="615"/>
  <unicode hex="00DF"/>
  <outline>
    <contour>
      <point x="591" y="124" type="qcurve" smooth="yes"/>
      <point x="591" y="49"/>
      <point x="504" y="-41"/>
      <point x="431" y="-41" type="qcurve" smooth="yes"/>
      <point x="358" y="-41"/>
      <point x="265" y="59"/>
      <point x="263" y="142" type="qcurve"/>
      <point x="280" y="149"/>
      <point x="324" y="156"/>
      <point x="342" y="155" type="qcurve"/>
      <point x="340" y="92"/>
      <point x="387" y="22"/>
      <point x="429" y="22" type="qcurve" smooth="yes"/>
      <point x="460" y="22"/>
      <point x="495" y="65"/>
      <point x="495" y="102" type="qcurve" smooth="yes"/>
      <point x="495" y="133"/>
      <point x="457" y="182"/>
      <point x="394" y="219" type="qcurve" smooth="yes"/>
      <point x="322" y="261"/>
      <point x="277" y="325"/>
      <point x="277" y="367" type="qcurve" smooth="yes"/>
      <point x="277" y="402"/>
      <point x="300" y="458"/>
      <point x="328" y="488" type="qcurve" smooth="yes"/>
      <point x="351" y="514"/>
      <point x="368" y="555"/>
      <point x="368" y="585" type="qcurve" smooth="yes"/>
      <point x="368" y="617"/>
      <point x="329" y="658"/>
      <point x="298" y="658" type="qcurve" smooth="yes"/>
      <point x="242" y="658"/>
      <point x="182" y="551"/>
      <point x="182" y="448" type="qcurve" smooth="yes"/>
      <point x="182" y="337"/>
      <point x="212" y="88"/>
      <point x="234" y="-2" type="qcurve"/>
      <point x="208" y="-11"/>
      <point x="149" y="-21"/>
      <point x="124" y="-21" type="qcurve"/>
      <point x="111" y="38"/>
      <point x="86" y="287"/>
      <point x="85" y="388" type="qcurve"/>
      <point x="60" y="392"/>
      <point x="29" y="400"/>
      <point x="20" y="404" type="qcurve"/>
      <point x="20" y="419"/>
      <point x="27" y="454"/>
      <point x="31" y="458" type="qcurve"/>
      <point x="42" y="457"/>
      <point x="70" y="454"/>
      <point x="87" y="452" type="qcurve"/>
      <point x="95" y="587"/>
      <point x="202" y="727"/>
      <point x="295" y="727" type="qcurve" smooth="yes"/>
      <point x="358" y="727"/>
      <point x="440" y="650"/>
      <point x="440" y="593" type="qcurve" smooth="yes"/>
      <point x="440" y="568"/>
      <point x="421" y="525"/>
      <point x="399" y="501" type="qcurve" smooth="yes"/>
      <point x="377" y="476"/>
      <point x="360" y="435"/>
      <point x="360" y="410" type="qcurve" smooth="yes"/>
      <point x="360" y="379"/>
      <point x="399" y="328"/>
      <point x="464" y="288" type="qcurve" smooth="yes"/>
      <point x="542" y="241"/>
      <point x="591" y="170"/>
    </contour>
  </outline>
</glyph>
<glyph name="ae" format="1">
  <advance width="743"/>
  <unicode hex="00E6"/>
  <outline>
    <contour>
      <point x="431" y="308" type="qcurve"/>
      <point x="456" y="300"/>
      <point x="513" y="291"/>
      <point x="542" y="291" type="qcurve" smooth="yes"/>
      <point x="552" y="291"/>
      <point x="577" y="293"/>
      <point x="583" y="295" type="qcurve"/>
      <point x="590" y="320"/>
      <point x="597" y="369"/>
      <point x="597" y="389" type="qcurve" smooth="yes"/>
      <point x="597" y="427"/>
      <point x="572" y="461"/>
      <point x="545" y="461" type="qcurve" smooth="yes"/>
      <point x="509" y="461"/>
      <point x="448" y="378"/>
    </contour>
    <contour>
      <point x="629" y="163" type="qcurve"/>
      <point x="650" y="159"/>
      <point x="694" y="136"/>
      <point x="709" y="120" type="qcurve"/>
      <point x="691" y="64"/>
      <point x="568" y="-26"/>
      <point x="497" y="-26" type="qcurve" smooth="yes"/>
      <point x="448" y="-26"/>
      <point x="372" y="21"/>
      <point x="348" y="66" type="qcurve"/>
      <point x="312" y="29"/>
      <point x="229" y="-6"/>
      <point x="179" y="-6" type="qcurve" smooth="yes"/>
      <point x="109" y="-6"/>
      <point x="26" y="67"/>
      <point x="26" y="128" type="qcurve" smooth="yes"/>
      <point x="26" y="195"/>
      <point x="139" y="266"/>
      <point x="247" y="266" type="qcurve" smooth="yes"/>
      <point x="265" y="266"/>
      <point x="297" y="265"/>
      <point x="318" y="264" type="qcurve"/>
      <point x="319" y="284"/>
      <point x="319" y="314"/>
      <point x="318" y="327" type="qcurve" smooth="yes"/>
      <point x="318" y="399"/>
      <point x="282" y="465"/>
      <point x="243" y="465" type="qcurve" smooth="yes"/>
      <point x="203" y="465"/>
      <point x="147" y="388"/>
      <point x="145" y="329" type="qcurve"/>
      <point x="109" y="332"/>
      <point x="63" y="358"/>
      <point x="52" y="380" type="qcurve"/>
      <point x="65" y="443"/>
      <point x="181" y="531"/>
      <point x="254" y="531" type="qcurve" smooth="yes"/>
      <point x="303" y="531"/>
      <point x="373" y="481"/>
      <point x="393" y="432" type="qcurve"/>
      <point x="428" y="477"/>
      <point x="512" y="526"/>
      <point x="557" y="526" type="qcurve" smooth="yes"/>
      <point x="619" y="526"/>
      <point x="695" y="447"/>
      <point x="695" y="383" type="qcurve" smooth="yes"/>
      <point x="695" y="349"/>
      <point x="682" y="278"/>
      <point x="670" y="249" type="qcurve"/>
      <point x="647" y="239"/>
      <point x="580" y="230"/>
      <point x="536" y="230" type="qcurve" smooth="yes"/>
      <point x="508" y="230"/>
      <point x="449" y="239"/>
      <point x="420" y="248" type="qcurve"/>
      <point x="419" y="231"/>
      <point x="418" y="213"/>
      <point x="418" y="206" type="qcurve" smooth="yes"/>
      <point x="418" y="131"/>
      <point x="467" y="42"/>
      <point x="509" y="42" type="qcurve" smooth="yes"/>
      <point x="544" y="42"/>
      <point x="616" y="115"/>
    </contour>
    <contour>
      <point x="133" y="123" type="qcurve" smooth="yes"/>
      <point x="133" y="90"/>
      <point x="171" y="54"/>
      <point x="205" y="54" type="qcurve" smooth="yes"/>
      <point x="237" y="54"/>
      <point x="303" y="81"/>
      <point x="331" y="105" type="qcurve"/>
      <point x="323" y="128"/>
      <point x="315" y="178"/>
      <point x="315" y="207" type="qcurve" smooth="yes"/>
      <point x="315" y="209"/>
      <point x="315" y="212"/>
      <point x="315" y="213" type="qcurve"/>
      <point x="225" y="217"/>
      <point x="133" y="172"/>
    </contour>
  </outline>
</glyph>
<glyph name="ccedilla" format="1">
  <advance width="447"/>
  <unicode hex="00E7"/>
  <outline>
    <contour>
      <point x="329" y="-133" type="qcurve" smooth="yes"/>
      <point x="329" y="-178"/>
      <point x="264" y="-231"/>
      <point x="210" y="-231" type="qcurve" smooth="yes"/>
      <point x="172" y="-231"/>
      <point x="118" y="-194"/>
      <point x="105" y="-158" type="qcurve"/>
      <point x="128" y="-144"/>
      <point x="141" y="-137"/>
      <point x="153" y="-132" type="qcurve"/>
      <point x="161" y="-154"/>
      <point x="190" y="-180"/>
      <point x="208" y="-180" type="qcurve" smooth="yes"/>
      <point x="229" y="-180"/>
      <point x="252" y="-158"/>
      <point x="252" y="-139" type="qcurve" smooth="yes"/>
      <point x="252" y="-122"/>
      <point x="229" y="-101"/>
      <point x="210" y="-101" type="qcurve" smooth="yes"/>
      <point x="202" y="-101"/>
      <point x="185" y="-105"/>
      <point x="176" y="-110" type="qcurve"/>
      <point x="168" y="-103"/>
      <point x="154" y="-90"/>
      <point x="151" y="-85" type="qcurve"/>
      <point x="160" y="-69"/>
      <point x="173" y="-38"/>
      <point x="177" y="-22" type="qcurve"/>
      <point x="104" y="-12"/>
      <point x="26" y="105"/>
      <point x="26" y="201" type="qcurve" smooth="yes"/>
      <point x="26" y="345"/>
      <point x="156" y="543"/>
      <point x="256" y="543" type="qcurve" smooth="yes"/>
      <point x="332" y="543"/>
      <point x="416" y="451"/>
      <point x="416" y="370" type="qcurve"/>
      <point x="396" y="360"/>
      <point x="347" y="351"/>
      <point x="317" y="351" type="qcurve"/>
      <point x="317" y="416"/>
      <point x="285" y="479"/>
      <point x="252" y="479" type="qcurve" smooth="yes"/>
      <point x="203" y="479"/>
      <point x="132" y="313"/>
      <point x="132" y="206" type="qcurve" smooth="yes"/>
      <point x="132" y="130"/>
      <point x="181" y="43"/>
      <point x="225" y="43" type="qcurve" smooth="yes"/>
      <point x="261" y="43"/>
      <point x="325" y="104"/>
      <point x="350" y="160" type="qcurve"/>
      <point x="369" y="155"/>
      <point x="400" y="133"/>
      <point x="411" y="119" type="qcurve"/>
      <point x="396" y="65"/>
      <point x="294" y="-17"/>
      <point x="229" y="-23" type="qcurve"/>
      <point x="225" y="-37"/>
      <point x="220" y="-50"/>
      <point x="217" y="-56" type="qcurve"/>
      <point x="227" y="-55"/>
      <point x="237" y="-54"/>
      <point x="241" y="-54" type="qcurve" smooth="yes"/>
      <point x="280" y="-54"/>
      <point x="329" y="-98"/>
    </contour>
  </outline>
</glyph>
<glyph name="eth" format="1">
  <advance width="493"/>
  <unicode hex="00F0"/>
  <outline>
    <contour>
      <point x="424" y="-31" type="qcurve"/>
      <point x="407" y="-36"/>
      <point x="361" y="-42"/>
      <point x="344" y="-42" type="qcurve"/>
      <point x="341" y="-12"/>
      <point x="335" y="51"/>
      <point x="333" y="82" type="qcurve"/>
      <point x="313" y="25"/>
      <point x="250" y="-30"/>
      <point x="203" y="-30" type="qcurve" smooth="yes"/>
      <point x="123" y="-30"/>
      <point x="32" y="111"/>
      <point x="32" y="229" type="qcurve" smooth="yes"/>
      <point x="32" y="364"/>
      <point x="157" y="525"/>
      <point x="263" y="525" type="qcurve" smooth="yes"/>
      <point x="276" y="525"/>
      <point x="303" y="522"/>
      <point x="315" y="519" type="qcurve"/>
      <point x="315" y="524"/>
      <point x="315" y="535"/>
      <point x="314" y="546" type="qcurve" smooth="yes"/>
      <point x="314" y="557"/>
      <point x="314" y="568"/>
      <point x="314" y="572" type="qcurve"/>
      <point x="281" y="572"/>
      <point x="216" y="575"/>
      <point x="186" y="578" type="qcurve"/>
      <point x="185" y="598"/>
      <point x="186" y="631"/>
      <point x="188" y="641" type="qcurve"/>
      <point x="221" y="639"/>
      <point x="283" y="636"/>
      <point x="313" y="635" type="qcurve"/>
      <point x="313" y="654"/>
      <point x="313" y="693"/>
      <point x="313" y="712" type="qcurve"/>
      <point x="326" y="718"/>
      <point x="367" y="727"/>
      <point x="387" y="727" type="qcurve" smooth="yes"/>
      <point x="398" y="727"/>
      <point x="421" y="724"/>
      <point x="434" y="721" type="qcurve"/>
      <point x="433" y="705"/>
      <point x="430" y="664"/>
      <point x="428" y="639" type="qcurve"/>
      <point x="450" y="640"/>
      <point x="499" y="646"/>
      <point x="527" y="650" type="qcurve"/>
      <point x="528" y="638"/>
      <point x="528" y="608"/>
      <point x="526" y="588" type="qcurve"/>
      <point x="502" y="584"/>
      <point x="452" y="578"/>
      <point x="426" y="576" type="qcurve"/>
      <point x="423" y="503"/>
      <point x="421" y="304"/>
      <point x="421" y="117" type="qcurve" smooth="yes"/>
      <point x="421" y="76"/>
      <point x="422" y="12"/>
    </contour>
    <contour>
      <point x="136" y="243" type="qcurve" smooth="yes"/>
      <point x="136" y="150"/>
      <point x="184" y="47"/>
      <point x="226" y="47" type="qcurve" smooth="yes"/>
      <point x="263" y="47"/>
      <point x="315" y="138"/>
      <point x="325" y="224" type="qcurve"/>
      <point x="322" y="276"/>
      <point x="318" y="392"/>
      <point x="316" y="453" type="qcurve"/>
      <point x="307" y="456"/>
      <point x="285" y="458"/>
      <point x="273" y="458" type="qcurve" smooth="yes"/>
      <point x="211" y="458"/>
      <point x="136" y="344"/>
    </contour>
  </outline>
</glyph>
<glyph name="divide" format="1">
  <advance width="397"/>
  <unicode hex="00F7"/>
  <outline>
    <contour>
      <point x="275" y="508" type="qcurve"/>
      <point x="274" y="476"/>
      <point x="270" y="429"/>
      <point x="266" y="406" type="qcurve"/>
      <point x="235" y="402"/>
      <point x="187" y="402"/>
      <point x="161" y="406" type="qcurve"/>
      <point x="161" y="409"/>
      <point x="157" y="478"/>
      <point x="157" y="503" type="qcurve"/>
      <point x="185" y="510"/>
      <point x="245" y="512"/>
    </contour>
    <contour>
      <point x="28" y="290" type="qcurve"/>
      <point x="28" y="308"/>
      <point x="31" y="340"/>
      <point x="34" y="360" type="qcurve"/>
      <point x="112" y="350"/>
      <point x="271" y="349"/>
      <point x="368" y="358" type="qcurve"/>
      <point x="368" y="342"/>
      <point x="364" y="308"/>
      <point x="360" y="290" type="qcurve"/>
      <point x="284" y="280"/>
      <point x="107" y="280"/>
    </contour>
    <contour>
      <point x="271" y="228" type="qcurve"/>
      <point x="269" y="191"/>
      <point x="265" y="146"/>
      <point x="262" y="125" type="qcurve"/>
      <point x="230" y="122"/>
      <point x="182" y="122"/>
      <point x="157" y="126" type="qcurve"/>
      <point x="157" y="130"/>
      <point x="153" y="197"/>
      <point x="153" y="223" type="qcurve"/>
      <point x="180" y="230"/>
      <point x="240" y="232"/>
    </contour>
  </outline>
</glyph>
<glyph name="oslash" format="1">
  <advance width="474"/>
  <unicode hex="00F8"/>
  <outline>
    <contour>
      <point x="237" y="470" type="qcurve" smooth="yes"/>
      <point x="194" y="470"/>
      <point x="132" y="345"/>
      <point x="132" y="254" type="qcurve" smooth="yes"/>
      <point x="132" y="233"/>
      <point x="137" y="189"/>
      <point x="141" y="169" type="qcurve"/>
      <point x="200" y="282"/>
      <point x="260" y="398"/>
      <point x="286" y="451" type="qcurve"/>
      <point x="277" y="460"/>
      <point x="252" y="470"/>
    </contour>
    <contour>
      <point x="180" y="83" type="qcurve"/>
      <point x="190" y="71"/>
      <point x="216" y="59"/>
      <point x="230" y="59" type="qcurve" smooth="yes"/>
      <point x="270" y="59"/>
      <point x="328" y="190"/>
      <point x="328" y="280" type="qcurve" smooth="yes"/>
      <point x="328" y="304"/>
      <point x="326" y="341"/>
      <point x="324" y="356" type="qcurve"/>
      <point x="279" y="267"/>
      <point x="211" y="138"/>
    </contour>
    <contour>
      <point x="436" y="325" type="qcurve" smooth="yes"/>
      <point x="436" y="179"/>
      <point x="313" y="-10"/>
      <point x="210" y="-10" type="qcurve" smooth="yes"/>
      <point x="190" y="-10"/>
      <point x="153" y="-2"/>
      <point x="136" y="7" type="qcurve"/>
      <point x="126" y="-11"/>
      <point x="105" y="-47"/>
      <point x="93" y="-67" type="qcurve"/>
      <point x="76" y="-61"/>
      <point x="46" y="-44"/>
      <point x="31" y="-31" type="qcurve"/>
      <point x="43" y="-9"/>
      <point x="67" y="34"/>
      <point x="79" y="56" type="qcurve"/>
      <point x="54" y="89"/>
      <point x="28" y="184"/>
      <point x="28" y="240" type="qcurve" smooth="yes"/>
      <point x="28" y="372"/>
      <point x="158" y="540"/>
      <point x="260" y="540" type="qcurve" smooth="yes"/>
      <point x="277" y="540"/>
      <point x="309" y="535"/>
      <point x="324" y="529" type="qcurve"/>
      <point x="326" y="534"/>
      <point x="332" y="545"/>
      <point x="338" y="557" type="qcurve" smooth="yes"/>
      <point x="346" y="574"/>
      <point x="355" y="591"/>
      <point x="358" y="599" type="qcurve"/>
      <point x="378" y="590"/>
      <point x="405" y="573"/>
      <point x="420" y="559" type="qcurve"/>
      <point x="411" y="537"/>
      <point x="394" y="502"/>
      <point x="386" y="486" type="qcurve"/>
      <point x="411" y="458"/>
      <point x="436" y="376"/>
    </contour>
  </outline>
</glyph>
<glyph name="thorn" format="1">
  <advance width="474"/>
  <unicode hex="00FE"/>
  <outline>
    <contour>
      <point x="158" y="91" type="qcurve"/>
      <point x="169" y="83"/>
      <point x="192" y="75"/>
      <point x="205" y="75" type="qcurve" smooth="yes"/>
      <point x="257" y="75"/>
      <point x="333" y="235"/>
      <point x="333" y="354" type="qcurve" smooth="yes"/>
      <point x="333" y="410"/>
      <point x="297" y="473"/>
      <point x="265" y="473" type="qcurve" smooth="yes"/>
      <point x="229" y="473"/>
      <point x="172" y="407"/>
      <point x="155" y="344" type="qcurve"/>
      <point x="154" y="281"/>
      <point x="156" y="153"/>
    </contour>
    <contour>
      <point x="162" y="14" type="qcurve"/>
      <point x="166" y="-57"/>
      <point x="176" y="-167"/>
      <point x="181" y="-210" type="qcurve"/>
      <point x="162" y="-216"/>
      <point x="112" y="-224"/>
      <point x="91" y="-224" type="qcurve"/>
      <point x="60" y="39"/>
      <point x="47" y="550"/>
      <point x="68" y="726" type="qcurve"/>
      <point x="83" y="737"/>
      <point x="120" y="748"/>
      <point x="140" y="748" type="qcurve" smooth="yes"/>
      <point x="155" y="748"/>
      <point x="178" y="744"/>
      <point x="189" y="740" type="qcurve"/>
      <point x="178" y="686"/>
      <point x="162" y="540"/>
      <point x="158" y="451" type="qcurve"/>
      <point x="186" y="504"/>
      <point x="263" y="560"/>
      <point x="309" y="560" type="qcurve" smooth="yes"/>
      <point x="370" y="560"/>
      <point x="441" y="453"/>
      <point x="441" y="363" type="qcurve" smooth="yes"/>
      <point x="441" y="211"/>
      <point x="305" y="10"/>
      <point x="205" y="10" type="qcurve" smooth="yes"/>
      <point x="192" y="10"/>
      <point x="171" y="12"/>
    </contour>
  </outline>
</glyph>
<glyph name="Aogonek" format="1">
  <advance width="628"/>
  <unicode hex="0104"/>
  <outline>
    <contour>
      <point x="638" y="-233" type="qcurve"/>
      <point x="619" y="-263"/>
      <point x="567" y="-292"/>
      <point x="533" y="-292" type="qcurve" smooth="yes"/>
      <point x="493" y="-292"/>
      <point x="446" y="-251"/>
      <point x="446" y="-216" type="qcurve" smooth="yes"/>
      <point x="446" y="-186"/>
      <point x="476" y="-131"/>
      <point x="507" y="-105" type="qcurve"/>
      <point x="495" y="-20"/>
      <point x="467" y="132"/>
      <point x="450" y="201" type="qcurve"/>
      <point x="379" y="201"/>
      <point x="251" y="192"/>
      <point x="197" y="184" type="qcurve"/>
      <point x="176" y="131"/>
      <point x="129" y="27"/>
      <point x="103" y="-24" type="qcurve"/>
      <point x="75" y="-19"/>
      <point x="30" y="6"/>
      <point x="13" y="24" type="qcurve"/>
      <point x="99" y="178"/>
      <point x="212" y="477"/>
      <point x="267" y="706" type="qcurve"/>
      <point x="300" y="705"/>
      <point x="346" y="700"/>
      <point x="369" y="694" type="qcurve"/>
      <point x="465" y="519"/>
      <point x="577" y="163"/>
      <point x="613" y="-74" type="qcurve"/>
      <point x="605" y="-79"/>
      <point x="589" y="-87"/>
      <point x="579" y="-90" type="qcurve"/>
      <point x="549" y="-116"/>
      <point x="519" y="-170"/>
      <point x="519" y="-196" type="qcurve" smooth="yes"/>
      <point x="519" y="-213"/>
      <point x="536" y="-233"/>
      <point x="552" y="-233" type="qcurve" smooth="yes"/>
      <point x="569" y="-233"/>
      <point x="597" y="-212"/>
      <point x="610" y="-190" type="qcurve"/>
      <point x="618" y="-196"/>
      <point x="632" y="-217"/>
    </contour>
    <contour>
      <point x="318" y="581" type="qcurve"/>
      <point x="296" y="488"/>
      <point x="251" y="332"/>
      <point x="226" y="262" type="qcurve"/>
      <point x="279" y="269"/>
      <point x="382" y="277"/>
      <point x="430" y="278" type="qcurve"/>
      <point x="408" y="359"/>
      <point x="353" y="508"/>
    </contour>
  </outline>
</glyph>
<glyph name="oe" format="1">
  <advance width="777"/>
  <unicode hex="0153"/>
  <outline>
    <contour>
      <point x="441" y="302" type="qcurve"/>
      <point x="466" y="293"/>
      <point x="522" y="284"/>
      <point x="552" y="284" type="qcurve" smooth="yes"/>
      <point x="562" y="284"/>
      <point x="588" y="287"/>
      <point x="593" y="288" type="qcurve"/>
      <point x="601" y="319"/>
      <point x="608" y="364"/>
      <point x="608" y="382" type="qcurve" smooth="yes"/>
      <point x="608" y="421"/>
      <point x="583" y="455"/>
      <point x="556" y="455" type="qcurve" smooth="yes"/>
      <point x="520" y="455"/>
      <point x="458" y="371"/>
    </contour>
    <contour>
      <point x="227" y="44" type="qcurve" smooth="yes"/>
      <point x="267" y="44"/>
      <point x="326" y="175"/>
      <point x="326" y="265" type="qcurve" smooth="yes"/>
      <point x="326" y="362"/>
      <point x="281" y="455"/>
      <point x="234" y="455" type="qcurve" smooth="yes"/>
      <point x="191" y="455"/>
      <point x="130" y="330"/>
      <point x="130" y="239" type="qcurve" smooth="yes"/>
      <point x="130" y="156"/>
      <point x="183" y="44"/>
    </contour>
    <contour>
      <point x="640" y="157" type="qcurve"/>
      <point x="661" y="152"/>
      <point x="704" y="129"/>
      <point x="719" y="114" type="qcurve"/>
      <point x="702" y="59"/>
      <point x="577" y="-32"/>
      <point x="514" y="-32" type="qcurve" smooth="yes"/>
      <point x="461" y="-32"/>
      <point x="382" y="18"/>
      <point x="359" y="67" type="qcurve"/>
      <point x="329" y="21"/>
      <point x="252" y="-25"/>
      <point x="206" y="-25" type="qcurve" smooth="yes"/>
      <point x="124" y="-25"/>
      <point x="26" y="112"/>
      <point x="26" y="224" type="qcurve" smooth="yes"/>
      <point x="26" y="356"/>
      <point x="153" y="524"/>
      <point x="253" y="524" type="qcurve" smooth="yes"/>
      <point x="303" y="524"/>
      <point x="381" y="474"/>
      <point x="405" y="426" type="qcurve"/>
      <point x="439" y="471"/>
      <point x="522" y="519"/>
      <point x="567" y="519" type="qcurve" smooth="yes"/>
      <point x="630" y="519"/>
      <point x="705" y="441"/>
      <point x="705" y="376" type="qcurve" smooth="yes"/>
      <point x="705" y="344"/>
      <point x="692" y="272"/>
      <point x="681" y="242" type="qcurve"/>
      <point x="658" y="233"/>
      <point x="593" y="224"/>
      <point x="546" y="224" type="qcurve" smooth="yes"/>
      <point x="518" y="224"/>
      <point x="459" y="233"/>
      <point x="430" y="242" type="qcurve"/>
      <point x="429" y="222"/>
      <point x="428" y="206"/>
      <point x="428" y="199" type="qcurve" smooth="yes"/>
      <point x="428" y="124"/>
      <point x="477" y="35"/>
      <point x="520" y="35" type="qcurve" smooth="yes"/>
      <point x="555" y="35"/>
      <point x="626" y="108"/>
    </contour>
  </outline>
</glyph>
<glyph name="Uogonek" format="1">
  <advance width="561"/>
  <unicode hex="0172"/>
  <outline>
    <contour>
      <point x="380" y="-219" type="qcurve"/>
      <point x="361" y="-247"/>
      <point x="308" y="-275"/>
      <point x="275" y="-275" type="qcurve" smooth="yes"/>
      <point x="234" y="-275"/>
      <point x="187" y="-232"/>
      <point x="187" y="-194" type="qcurve" smooth="yes"/>
      <point x="187" y="-163"/>
      <point x="219" y="-107"/>
      <point x="251" y="-80" type="qcurve"/>
      <point x="250" y="-80"/>
      <point x="248" y="-80"/>
      <point x="247" y="-80" type="qcurve" smooth="yes"/>
      <point x="147" y="-80"/>
      <point x="49" y="94"/>
      <point x="49" y="270" type="qcurve" smooth="yes"/>
      <point x="49" y="364"/>
      <point x="80" y="569"/>
      <point x="101" y="627" type="qcurve"/>
      <point x="111" y="630"/>
      <point x="146" y="634"/>
      <point x="160" y="634" type="qcurve" smooth="yes"/>
      <point x="174" y="634"/>
      <point x="197" y="630"/>
      <point x="205" y="627" type="qcurve"/>
      <point x="185" y="535"/>
      <point x="164" y="369"/>
      <point x="164" y="297" type="qcurve" smooth="yes"/>
      <point x="164" y="143"/>
      <point x="213" y="-2"/>
      <point x="265" y="-2" type="qcurve" smooth="yes"/>
      <point x="327" y="-2"/>
      <point x="396" y="172"/>
      <point x="396" y="327" type="qcurve" smooth="yes"/>
      <point x="396" y="419"/>
      <point x="374" y="595"/>
      <point x="350" y="687" type="qcurve"/>
      <point x="373" y="696"/>
      <point x="435" y="706"/>
      <point x="464" y="707" type="qcurve"/>
      <point x="487" y="615"/>
      <point x="509" y="454"/>
      <point x="509" y="380" type="qcurve" smooth="yes"/>
      <point x="509" y="196"/>
      <point x="430" y="-17"/>
      <point x="345" y="-61" type="qcurve" smooth="yes"/>
      <point x="306" y="-82"/>
      <point x="261" y="-143"/>
      <point x="261" y="-174" type="qcurve" smooth="yes"/>
      <point x="261" y="-194"/>
      <point x="278" y="-218"/>
      <point x="293" y="-218" type="qcurve" smooth="yes"/>
      <point x="311" y="-218"/>
      <point x="339" y="-198"/>
      <point x="351" y="-176" type="qcurve"/>
      <point x="360" y="-183"/>
      <point x="374" y="-204"/>
    </contour>
  </outline>
</glyph>
<glyph name="uogonek" format="1">
  <advance width="443"/>
  <unicode hex="0173"/>
  <outline>
    <contour>
      <point x="324" y="-146" type="qcurve"/>
      <point x="305" y="-173"/>
      <point x="252" y="-201"/>
      <point x="219" y="-201" type="qcurve" smooth="yes"/>
      <point x="178" y="-201"/>
      <point x="131" y="-160"/>
      <point x="131" y="-123" type="qcurve" smooth="yes"/>
      <point x="131" y="-95"/>
      <point x="165" y="-37"/>
      <point x="198" y="-10" type="qcurve"/>
      <point x="118" y="-9"/>
      <point x="37" y="133"/>
      <point x="37" y="268" type="qcurve" smooth="yes"/>
      <point x="37" y="337"/>
      <point x="62" y="484"/>
      <point x="78" y="515" type="qcurve"/>
      <point x="89" y="519"/>
      <point x="115" y="523"/>
      <point x="127" y="523" type="qcurve" smooth="yes"/>
      <point x="140" y="523"/>
      <point x="163" y="518"/>
      <point x="171" y="514" type="qcurve"/>
      <point x="157" y="462"/>
      <point x="143" y="343"/>
      <point x="143" y="276" type="qcurve" smooth="yes"/>
      <point x="143" y="180"/>
      <point x="182" y="61"/>
      <point x="217" y="61" type="qcurve" smooth="yes"/>
      <point x="257" y="61"/>
      <point x="299" y="197"/>
      <point x="299" y="321" type="qcurve" smooth="yes"/>
      <point x="299" y="362"/>
      <point x="291" y="451"/>
      <point x="287" y="469" type="qcurve"/>
      <point x="307" y="478"/>
      <point x="368" y="488"/>
      <point x="395" y="488" type="qcurve"/>
      <point x="400" y="467"/>
      <point x="405" y="402"/>
      <point x="405" y="364" type="qcurve" smooth="yes"/>
      <point x="405" y="226"/>
      <point x="347" y="50"/>
      <point x="290" y="14" type="qcurve" smooth="yes"/>
      <point x="250" y="-11"/>
      <point x="205" y="-77"/>
      <point x="205" y="-108" type="qcurve" smooth="yes"/>
      <point x="205" y="-124"/>
      <point x="223" y="-145"/>
      <point x="238" y="-145" type="qcurve" smooth="yes"/>
      <point x="255" y="-145"/>
      <point x="283" y="-124"/>
      <point x="296" y="-102" type="qcurve"/>
      <point x="305" y="-110"/>
      <point x="318" y="-132"/>
    </contour>
  </outline>
</glyph>
<glyph name="breve" format="1">
  <advance width="260"/>
  <unicode hex="02D8"/>
  <outline>
    <contour>
      <point x="34" y="650" type="qcurve" smooth="yes"/>
      <point x="23" y="665"/>
      <point x="14" y="700"/>
      <point x="14" y="727" type="qcurve"/>
      <point x="26" y="731"/>
      <point x="57" y="736"/>
      <point x="74" y="736" type="qcurve"/>
      <point x="70" y="699"/>
      <point x="97" y="667"/>
      <point x="132" y="667" type="qcurve" smooth="yes"/>
      <point x="166" y="667"/>
      <point x="193" y="703"/>
      <point x="184" y="736" type="qcurve"/>
      <point x="197" y="739"/>
      <point x="231" y="740"/>
      <point x="244" y="737" type="qcurve"/>
      <point x="246" y="711"/>
      <point x="240" y="671"/>
      <point x="231" y="654" type="qcurve" smooth="yes"/>
      <point x="218" y="631"/>
      <point x="167" y="607"/>
      <point x="131" y="607" type="qcurve" smooth="yes"/>
      <point x="99" y="607"/>
      <point x="51" y="629"/>
    </contour>
    <contour>
      <point x="137" y="560" type="move" name="_top"/>
    </contour>
  </outline>
</glyph>
<glyph name="dotaccent" format="1">
  <advance width="261"/>
  <unicode hex="02D9"/>
  <outline>
    <contour>
      <point x="150" y="748" type="qcurve" smooth="yes"/>
      <point x="169" y="747"/>
      <point x="197" y="741"/>
      <point x="207" y="735" type="qcurve"/>
      <point x="196" y="709"/>
      <point x="176" y="644"/>
      <point x="171" y="618" type="qcurve"/>
      <point x="153" y="615"/>
      <point x="107" y="613"/>
      <point x="82" y="614" type="qcurve"/>
      <point x="79" y="626"/>
      <point x="77" y="648"/>
      <point x="77" y="659" type="qcurve" smooth="yes"/>
      <point x="77" y="680"/>
      <point x="84" y="722"/>
      <point x="91" y="736" type="qcurve"/>
      <point x="104" y="742"/>
      <point x="131" y="748"/>
    </contour>
    <contour>
      <point x="130" y="560" type="move" name="_top"/>
    </contour>
  </outline>
</glyph>
<glyph name="ogonek" format="1">
  <advance width="261"/>
  <unicode hex="02DB"/>
  <outline>
    <contour>
      <point x="134" y="8" type="qcurve"/>
      <point x="167" y="-4" type="line"/>
      <point x="134" y="-32"/>
      <point x="101" y="-87"/>
      <point x="101" y="-115" type="qcurve" smooth="yes"/>
      <point x="101" y="-132"/>
      <point x="118" y="-152"/>
      <point x="134" y="-152" type="qcurve" smooth="yes"/>
      <point x="151" y="-152"/>
      <point x="179" y="-131"/>
      <point x="192" y="-109" type="qcurve"/>
      <point x="200" y="-115"/>
      <point x="214" y="-136"/>
      <point x="220" y="-152" type="qcurve"/>
      <point x="199" y="-182"/>
      <point x="147" y="-211"/>
      <point x="114" y="-211" type="qcurve" smooth="yes"/>
      <point x="75" y="-211"/>
      <point x="27" y="-169"/>
      <point x="27" y="-135" type="qcurve" smooth="yes"/>
      <point x="27" y="-96"/>
      <point x="79" y="-26"/>
    </contour>
    <contour>
      <point x="144" y="0" type="move" name="_bottom"/>
    </contour>
  </outline>
</glyph>
<glyph name="hungarumlaut" format="1">
  <advance width="260"/>
  <unicode hex="02DD"/>
  <outline>
    <component base="acute" xOffset="-54"/>
    <component base="acute" xOffset="83"/>
    <contour>
      <point x="130" y="560" type="move" name="_top"/>
    </contour>
  </outline>
</glyph>
<glyph name="pi" format="1">
  <advance width="647"/>
  <unicode hex="03C0"/>
  <outline>
    <contour>
      <point x="246" y="317" type="qcurve" smooth="yes"/>
      <point x="246" y="236"/>
      <point x="228" y="100"/>
      <point x="205" y="7" type="qcurve"/>
      <point x="185" y="2"/>
      <point x="121" y="8"/>
      <point x="98" y="16" type="qcurve"/>
      <point x="125" y="107"/>
      <point x="146" y="225"/>
      <point x="149" y="298" type="qcurve" smooth="yes"/>
      <point x="151" y="334"/>
      <point x="150" y="397"/>
      <point x="147" y="434" type="qcurve"/>
      <point x="101" y="430"/>
      <point x="48" y="424"/>
      <point x="28" y="422" type="qcurve"/>
      <point x="21" y="453"/>
      <point x="21" y="514"/>
      <point x="29" y="539" type="qcurve"/>
      <point x="127" y="543"/>
      <point x="491" y="540"/>
      <point x="610" y="535" type="qcurve"/>
      <point x="614" y="512"/>
      <point x="611" y="457"/>
      <point x="606" y="433" type="qcurve"/>
      <point x="556" y="436"/>
      <point x="492" y="439"/>
      <point x="478" y="439" type="qcurve"/>
      <point x="470" y="381"/>
      <point x="463" y="305"/>
      <point x="463" y="274" type="qcurve" smooth="yes"/>
      <point x="463" y="176"/>
      <point x="488" y="77"/>
      <point x="513" y="77" type="qcurve" smooth="yes"/>
      <point x="528" y="77"/>
      <point x="542" y="128"/>
      <point x="544" y="189" type="qcurve"/>
      <point x="564" y="188"/>
      <point x="604" y="174"/>
      <point x="620" y="163" type="qcurve"/>
      <point x="618" y="90"/>
      <point x="559" y="9"/>
      <point x="505" y="9" type="qcurve" smooth="yes"/>
      <point x="437" y="9"/>
      <point x="361" y="156"/>
      <point x="361" y="288" type="qcurve" smooth="yes"/>
      <point x="361" y="319"/>
      <point x="366" y="391"/>
      <point x="372" y="442" type="qcurve"/>
      <point x="365" y="442"/>
      <point x="352" y="442"/>
      <point x="345" y="442" type="qcurve" smooth="yes"/>
      <point x="321" y="442"/>
      <point x="267" y="440"/>
      <point x="239" y="439" type="qcurve"/>
      <point x="242" y="412"/>
      <point x="245" y="351"/>
    </contour>
  </outline>
</glyph>
<glyph name="bn_danda" format="1">
  <advance width="586"/>
  <unicode hex="0964"/>
  <outline>
    <contour>
      <point x="440" y="262" type="qcurve" smooth="yes"/>
      <point x="440" y="158"/>
      <point x="455" y="-20"/>
      <point x="469" y="-81" type="qcurve"/>
      <point x="443" y="-90"/>
      <point x="392" y="-101"/>
      <point x="372" y="-101" type="qcurve"/>
      <point x="372" y="-91"/>
      <point x="370" y="-66"/>
      <point x="368" y="-41" type="qcurve" smooth="yes"/>
      <point x="365" y="-1"/>
      <point x="363" y="41"/>
      <point x="363" y="60" type="qcurve" smooth="yes"/>
      <point x="363" y="265"/>
      <point x="373" y="472"/>
      <point x="385" y="584" type="qcurve"/>
      <point x="455" y="595" type="line"/>
      <point x="446" y="479"/>
      <point x="440" y="333"/>
    </contour>
  </outline>
</glyph>
<glyph name="bn_chandrabindu" format="1">
  <advance width="0"/>
  <unicode hex="0981"/>
  <outline>
    <contour>
      <point x="5" y="904" type="qcurve" smooth="yes"/>
      <point x="26" y="904"/>
      <point x="54" y="875"/>
      <point x="54" y="853" type="qcurve" smooth="yes"/>
      <point x="54" y="833"/>
      <point x="27" y="805"/>
      <point x="7" y="805" type="qcurve" smooth="yes"/>
      <point x="-14" y="805"/>
      <point x="-42" y="835"/>
      <point x="-42" y="856" type="qcurve" smooth="yes"/>
      <point x="-42" y="876"/>
      <point x="-14" y="904"/>
    </contour>
    <contour>
      <point x="105" y="835" type="qcurve"/>
      <point x="153" y="820" type="line"/>
      <point x="141" y="755"/>
      <point x="54" y="672"/>
      <point x="-4" y="672" type="qcurve" smooth="yes"/>
      <point x="-59" y="672"/>
      <point x="-140" y="740"/>
      <point x="-148" y="791" type="qcurve"/>
      <point x="-81" y="812" type="line"/>
      <point x="-73" y="783"/>
      <point x="-23" y="744"/>
      <point x="7" y="744" type="qcurve" smooth="yes"/>
      <point x="42" y="744"/>
      <point x="95" y="793"/>
    </contour>
    <contour>
      <point x="0" y="665" type="move" name="_chandrabindu"/>
    </contour>
  </outline>
</glyph>
<glyph name="bn_bisarga" format="1">
  <advance width="433"/>
  <unicode hex="0983"/>
  <outline>
    <contour>
      <point x="231" y="616" type="qcurve" smooth="yes"/>
      <point x="293" y="616"/>
      <point x="373" y="539"/>
      <point x="372" y="480" type="qcurve" smooth="yes"/>
      <point x="372" y="416"/>
      <point x="278" y="326"/>
      <point x="213" y="326" type="qcurve" smooth="yes"/>
      <point x="153" y="326"/>
      <point x="73" y="403"/>
      <point x="74" y="461" type="qcurve" smooth="yes"/>
      <point x="75" y="526"/>
      <point x="166" y="616"/>
    </contour>
    <contour>
      <point x="210" y="552" type="qcurve" smooth="yes"/>
      <point x="177" y="552"/>
      <point x="140" y="515"/>
      <point x="140" y="483" type="qcurve" smooth="yes"/>
      <point x="140" y="443"/>
      <point x="193" y="390"/>
      <point x="233" y="390" type="qcurve" smooth="yes"/>
      <point x="266" y="390"/>
      <point x="306" y="428"/>
      <point x="306" y="461" type="qcurve" smooth="yes"/>
      <point x="306" y="501"/>
      <point x="251" y="552"/>
    </contour>
    <contour>
      <point x="227" y="275" type="qcurve" smooth="yes"/>
      <point x="286" y="275"/>
      <point x="366" y="198"/>
      <point x="366" y="141" type="qcurve" smooth="yes"/>
      <point x="366" y="80"/>
      <point x="278" y="-5"/>
      <point x="215" y="-5" type="qcurve" smooth="yes"/>
      <point x="156" y="-5"/>
      <point x="78" y="70"/>
      <point x="78" y="127" type="qcurve" smooth="yes"/>
      <point x="78" y="189"/>
      <point x="165" y="275"/>
    </contour>
    <contour>
      <point x="211" y="210" type="qcurve" smooth="yes"/>
      <point x="180" y="210"/>
      <point x="144" y="176"/>
      <point x="144" y="146" type="qcurve" smooth="yes"/>
      <point x="144" y="109"/>
      <point x="196" y="59"/>
      <point x="234" y="59" type="qcurve" smooth="yes"/>
      <point x="265" y="59"/>
      <point x="300" y="92"/>
      <point x="300" y="121" type="qcurve" smooth="yes"/>
      <point x="300" y="159"/>
      <point x="249" y="210"/>
    </contour>
  </outline>
</glyph>
<glyph name="bn_a" format="1">
  <advance width="659"/>
  <unicode hex="0985"/>
  <note>
    uni0985
  </note>
  <outline>
    <contour>
      <point x="591" y="403" type="qcurve" smooth="yes"/>
      <point x="591" y="280"/>
      <point x="555" y="39"/>
      <point x="526" y="-25" type="qcurve"/>
      <point x="507" y="-25"/>
      <point x="464" y="-16"/>
      <point x="450" y="-9" type="qcurve"/>
      <point x="433" y="21"/>
      <point x="391" y="74"/>
      <point x="367" y="97" type="qcurve"/>
      <point x="352" y="87"/>
      <point x="316" y="77"/>
      <point x="295" y="77" type="qcurve" smooth="yes"/>
      <point x="208" y="77"/>
      <point x="66" y="253"/>
      <point x="13" y="426" type="qcurve"/>
      <point x="25" y="437"/>
      <point x="54" y="453"/>
      <point x="68" y="458" type="qcurve"/>
      <point x="114" y="319"/>
      <point x="227" y="171"/>
      <point x="288" y="171" type="qcurve" smooth="yes"/>
      <point x="330" y="171"/>
      <point x="375" y="235"/>
      <point x="375" y="296" type="qcurve" smooth="yes"/>
      <point x="375" y="357"/>
      <point x="336" y="432"/>
      <point x="304" y="432" type="qcurve" smooth="yes"/>
      <point x="284" y="432"/>
      <point x="263" y="399"/>
      <point x="263" y="369" type="qcurve" smooth="yes"/>
      <point x="263" y="353"/>
      <point x="272" y="319"/>
      <point x="281" y="305" type="qcurve"/>
      <point x="261" y="305"/>
      <point x="215" y="313"/>
      <point x="202" y="318" type="qcurve"/>
      <point x="196" y="332"/>
      <point x="190" y="363"/>
      <point x="190" y="379" type="qcurve" smooth="yes"/>
      <point x="190" y="431"/>
      <point x="244" y="499"/>
      <point x="286" y="499" type="qcurve" smooth="yes"/>
      <point x="353" y="499"/>
      <point x="442" y="361"/>
      <point x="442" y="265" type="qcurve" smooth="yes"/>
      <point x="442" y="230"/>
      <point x="427" y="169"/>
      <point x="413" y="145" type="qcurve"/>
      <point x="430" y="122"/>
      <point x="460" y="74"/>
      <point x="472" y="49" type="qcurve"/>
      <point x="489" y="108"/>
      <point x="505" y="268"/>
      <point x="505" y="380" type="qcurve" smooth="yes"/>
      <point x="505" y="435"/>
      <point x="501" y="513"/>
      <point x="497" y="548" type="qcurve"/>
      <point x="457" y="552"/>
      <point x="376" y="556"/>
      <point x="336" y="556" type="qcurve" smooth="yes"/>
      <point x="251" y="556"/>
      <point x="83" y="540"/>
      <point x="0" y="524" type="qcurve"/>
      <point x="-3" y="531"/>
      <point x="-6" y="554"/>
      <point x="-6" y="568" type="qcurve" smooth="yes"/>
      <point x="-6" y="578"/>
      <point x="-3" y="595"/>
      <point x="0" y="601" type="qcurve"/>
      <point x="77" y="618"/>
      <point x="251" y="636"/>
      <point x="340" y="636" type="qcurve" smooth="yes"/>
      <point x="427" y="636"/>
      <point x="596" y="617"/>
      <point x="659" y="601" type="qcurve"/>
      <point x="662" y="594"/>
      <point x="665" y="577"/>
      <point x="665" y="567" type="qcurve" smooth="yes"/>
      <point x="665" y="556"/>
      <point x="662" y="533"/>
      <point x="659" y="524" type="qcurve"/>
      <point x="645" y="527"/>
      <point x="610" y="533"/>
      <point x="586" y="537" type="qcurve"/>
      <point x="589" y="502"/>
      <point x="591" y="436"/>
    </contour>
    <contour>
      <point x="341" y="690" type="move" name="chandrabindu"/>
    </contour>
  </outline>
</glyph>
<glyph name="bn_i" format="1">
  <advance width="471"/>
  <unicode hex="0987"/>
  <outline>
    <contour>
      <point x="476" y="566" type="qcurve" smooth="yes"/>
      <point x="476" y="555"/>
      <point x="473" y="531"/>
      <point x="471" y="524" type="qcurve"/>
      <point x="426" y="535"/>
      <point x="296" y="550"/>
      <point x="237" y="550" type="qcurve" smooth="yes"/>
      <point x="181" y="550"/>
      <point x="56" y="536"/>
      <point x="0" y="524" type="qcurve"/>
      <point x="-3" y="534"/>
      <point x="-7" y="557"/>
      <point x="-7" y="567" type="qcurve" smooth="yes"/>
      <point x="-7" y="578"/>
      <point x="-3" y="595"/>
      <point x="0" y="601" type="qcurve"/>
      <point x="49" y="615"/>
      <point x="179" y="631"/>
      <point x="239" y="631" type="qcurve" smooth="yes"/>
      <point x="281" y="631"/>
      <point x="374" y="623"/>
      <point x="416" y="615" type="qcurve"/>
      <point x="403" y="661"/>
      <point x="353" y="708"/>
      <point x="315" y="708" type="qcurve" smooth="yes"/>
      <point x="298" y="708"/>
      <point x="258" y="703"/>
      <point x="219" y="694" type="qcurve" smooth="yes"/>
      <point x="181" y="685"/>
      <point x="143" y="680"/>
      <point x="127" y="680" type="qcurve" smooth="yes"/>
      <point x="79" y="680"/>
      <point x="2" y="733"/>
      <point x="-28" y="788" type="qcurve"/>
      <point x="-18" y="802"/>
      <point x="10" y="829"/>
      <point x="23" y="837" type="qcurve"/>
      <point x="51" y="791"/>
      <point x="102" y="755"/>
      <point x="133" y="755" type="qcurve" smooth="yes"/>
      <point x="145" y="755"/>
      <point x="177" y="760"/>
      <point x="212" y="767" type="qcurve" smooth="yes"/>
      <point x="254" y="776"/>
      <point x="297" y="782"/>
      <point x="314" y="782" type="qcurve" smooth="yes"/>
      <point x="375" y="782"/>
      <point x="457" y="686"/>
      <point x="471" y="601" type="qcurve"/>
      <point x="474" y="595"/>
      <point x="476" y="579"/>
    </contour>
    <contour>
      <point x="488" y="-71" type="qcurve"/>
      <point x="479" y="-84"/>
      <point x="454" y="-112"/>
      <point x="437" y="-129" type="qcurve"/>
      <point x="348" y="-33"/>
      <point x="160" y="92"/>
      <point x="54" y="125" type="qcurve"/>
      <point x="34" y="232" type="line"/>
      <point x="82" y="216"/>
      <point x="166" y="199"/>
      <point x="202" y="199" type="qcurve" smooth="yes"/>
      <point x="261" y="199"/>
      <point x="324" y="247"/>
      <point x="324" y="292" type="qcurve" smooth="yes"/>
      <point x="324" y="346"/>
      <point x="251" y="432"/>
      <point x="204" y="432" type="qcurve" smooth="yes"/>
      <point x="182" y="432"/>
      <point x="157" y="410"/>
      <point x="157" y="391" type="qcurve" smooth="yes"/>
      <point x="157" y="375"/>
      <point x="175" y="344"/>
      <point x="198" y="322" type="qcurve"/>
      <point x="181" y="313"/>
      <point x="133" y="302"/>
      <point x="112" y="302" type="qcurve"/>
      <point x="94" y="324"/>
      <point x="75" y="372"/>
      <point x="75" y="397" type="qcurve" smooth="yes"/>
      <point x="75" y="443"/>
      <point x="136" y="498"/>
      <point x="186" y="498" type="qcurve" smooth="yes"/>
      <point x="270" y="498"/>
      <point x="407" y="351"/>
      <point x="407" y="261" type="qcurve" smooth="yes"/>
      <point x="407" y="196"/>
      <point x="323" y="117"/>
      <point x="248" y="111" type="qcurve"/>
      <point x="306" y="77"/>
      <point x="425" y="-13"/>
    </contour>
    <contour>
      <point x="204" y="804" type="move" name="chandrabindu"/>
    </contour>
  </outline>
</glyph>
<glyph name="bn_ii" format="1">
  <advance width="563"/>
  <unicode hex="0988"/>
  <outline>
    <contour>
      <point x="568" y="566" type="qcurve" smooth="yes"/>
      <point x="568" y="555"/>
      <point x="565" y="531"/>
      <point x="563" y="524" type="qcurve"/>
      <point x="508" y="536"/>
      <point x="361" y="550"/>
      <point x="283" y="550" type="qcurve" smooth="yes"/>
      <point x="208" y="550"/>
      <point x="66" y="537"/>
      <point x="0" y="524" type="qcurve"/>
      <point x="-3" y="534"/>
      <point x="-7" y="557"/>
      <point x="-7" y="567" type="qcurve" smooth="yes"/>
      <point x="-7" y="578"/>
      <point x="-3" y="595"/>
      <point x="0" y="601" type="qcurve"/>
      <point x="58" y="616"/>
      <point x="204" y="631"/>
      <point x="284" y="631" type="qcurve" smooth="yes"/>
      <point x="347" y="631"/>
      <point x="463" y="622"/>
      <point x="509" y="613" type="qcurve"/>
      <point x="495" y="661"/>
      <point x="444" y="708"/>
      <point x="406" y="708" type="qcurve" smooth="yes"/>
      <point x="389" y="708"/>
      <point x="350" y="703"/>
      <point x="310" y="696" type="qcurve" smooth="yes"/>
      <point x="271" y="689"/>
      <point x="233" y="684"/>
      <point x="217" y="684" type="qcurve" smooth="yes"/>
      <point x="169" y="684"/>
      <point x="93" y="734"/>
      <point x="60" y="788" type="qcurve"/>
      <point x="68" y="798"/>
      <point x="91" y="819"/>
      <point x="114" y="834" type="qcurve"/>
      <point x="142" y="791"/>
      <point x="191" y="758"/>
      <point x="223" y="758" type="qcurve" smooth="yes"/>
      <point x="235" y="758"/>
      <point x="266" y="762"/>
      <point x="302" y="769" type="qcurve" smooth="yes"/>
      <point x="345" y="777"/>
      <point x="388" y="782"/>
      <point x="405" y="782" type="qcurve" smooth="yes"/>
      <point x="467" y="782"/>
      <point x="549" y="686"/>
      <point x="563" y="601" type="qcurve"/>
      <point x="566" y="595"/>
      <point x="568" y="579"/>
    </contour>
    <contour>
      <point x="514" y="-7" type="qcurve"/>
      <point x="501" y="-13"/>
      <point x="456" y="-22"/>
      <point x="436" y="-23" type="qcurve"/>
      <point x="415" y="51"/>
      <point x="413" y="236"/>
      <point x="432" y="326" type="qcurve"/>
      <point x="376" y="177"/>
      <point x="263" y="62"/>
      <point x="177" y="62" type="qcurve" smooth="yes"/>
      <point x="152" y="62"/>
      <point x="99" y="72"/>
      <point x="73" y="82" type="qcurve"/>
      <point x="53" y="182" type="line"/>
      <point x="88" y="168"/>
      <point x="148" y="154"/>
      <point x="173" y="154" type="qcurve" smooth="yes"/>
      <point x="223" y="154"/>
      <point x="281" y="213"/>
      <point x="281" y="262" type="qcurve" smooth="yes"/>
      <point x="281" y="324"/>
      <point x="204" y="419"/>
      <point x="154" y="419" type="qcurve" smooth="yes"/>
      <point x="132" y="419"/>
      <point x="106" y="397"/>
      <point x="106" y="378" type="qcurve" smooth="yes"/>
      <point x="106" y="357"/>
      <point x="139" y="318"/>
      <point x="169" y="302" type="qcurve"/>
      <point x="156" y="287"/>
      <point x="116" y="265"/>
      <point x="100" y="264" type="qcurve"/>
      <point x="66" y="290"/>
      <point x="32" y="350"/>
      <point x="32" y="384" type="qcurve" smooth="yes"/>
      <point x="32" y="430"/>
      <point x="91" y="484"/>
      <point x="141" y="484" type="qcurve" smooth="yes"/>
      <point x="208" y="484"/>
      <point x="322" y="386"/>
      <point x="342" y="312" type="qcurve"/>
      <point x="369" y="363"/>
      <point x="418" y="442"/>
      <point x="435" y="459" type="qcurve"/>
      <point x="460" y="451"/>
      <point x="500" y="426"/>
      <point x="518" y="406" type="qcurve"/>
      <point x="488" y="311"/>
      <point x="486" y="105"/>
    </contour>
    <contour>
      <point x="274" y="804" type="move" name="chandrabindu"/>
    </contour>
  </outline>
</glyph>
<glyph name="bn_uu" format="1">
  <advance width="642"/>
  <unicode hex="098A"/>
  <outline>
    <contour>
      <point x="621" y="209" type="qcurve" smooth="yes"/>
      <point x="621" y="96"/>
      <point x="507" y="-30"/>
      <point x="403" y="-30" type="qcurve" smooth="yes"/>
      <point x="271" y="-30"/>
      <point x="71" y="180"/>
      <point x="5" y="388" type="qcurve"/>
      <point x="16" y="395"/>
      <point x="42" y="408"/>
      <point x="61" y="415" type="qcurve"/>
      <point x="104" y="275"/>
      <point x="210" y="104"/>
      <point x="280" y="60" type="qcurve"/>
      <point x="226" y="112"/>
      <point x="142" y="289"/>
      <point x="104" y="434" type="qcurve"/>
      <point x="115" y="441"/>
      <point x="144" y="455"/>
      <point x="160" y="461" type="qcurve"/>
      <point x="215" y="247"/>
      <point x="336" y="67"/>
      <point x="424" y="67" type="qcurve" smooth="yes"/>
      <point x="489" y="67"/>
      <point x="557" y="152"/>
      <point x="557" y="234" type="qcurve" smooth="yes"/>
      <point x="557" y="256"/>
      <point x="552" y="300"/>
      <point x="548" y="321" type="qcurve"/>
      <point x="511" y="273"/>
      <point x="448" y="233"/>
      <point x="414" y="233" type="qcurve" smooth="yes"/>
      <point x="358" y="233"/>
      <point x="283" y="328"/>
      <point x="283" y="393" type="qcurve" smooth="yes"/>
      <point x="283" y="416"/>
      <point x="296" y="492"/>
      <point x="310" y="552" type="qcurve"/>
      <point x="224" y="551"/>
      <point x="72" y="538"/>
      <point x="0" y="524" type="qcurve"/>
      <point x="-3" y="531"/>
      <point x="-7" y="553"/>
      <point x="-7" y="567" type="qcurve" smooth="yes"/>
      <point x="-7" y="579"/>
      <point x="-4" y="596"/>
      <point x="0" y="601" type="qcurve"/>
      <point x="75" y="617"/>
      <point x="233" y="633"/>
      <point x="321" y="633" type="qcurve" smooth="yes"/>
      <point x="395" y="633"/>
      <point x="529" y="622"/>
      <point x="588" y="611" type="qcurve"/>
      <point x="575" y="659"/>
      <point x="524" y="708"/>
      <point x="485" y="708" type="qcurve" smooth="yes"/>
      <point x="465" y="708"/>
      <point x="417" y="703"/>
      <point x="368" y="694" type="qcurve" smooth="yes"/>
      <point x="320" y="686"/>
      <point x="273" y="681"/>
      <point x="254" y="681" type="qcurve" smooth="yes"/>
      <point x="202" y="681"/>
      <point x="122" y="733"/>
      <point x="91" y="788" type="qcurve"/>
      <point x="101" y="802"/>
      <point x="130" y="829"/>
      <point x="144" y="837" type="qcurve"/>
      <point x="171" y="792"/>
      <point x="225" y="756"/>
      <point x="260" y="756" type="qcurve" smooth="yes"/>
      <point x="274" y="756"/>
      <point x="314" y="760"/>
      <point x="359" y="768" type="qcurve" smooth="yes"/>
      <point x="412" y="776"/>
      <point x="465" y="782"/>
      <point x="485" y="782" type="qcurve" smooth="yes"/>
      <point x="546" y="782"/>
      <point x="628" y="686"/>
      <point x="642" y="601" type="qcurve"/>
      <point x="645" y="592"/>
      <point x="648" y="574"/>
      <point x="648" y="566" type="qcurve" smooth="yes"/>
      <point x="648" y="556"/>
      <point x="645" y="533"/>
      <point x="642" y="524" type="qcurve"/>
      <point x="587" y="535"/>
      <point x="466" y="548"/>
      <point x="399" y="551" type="qcurve"/>
      <point x="378" y="484"/>
      <point x="356" y="389"/>
      <point x="356" y="364" type="qcurve" smooth="yes"/>
      <point x="356" y="339"/>
      <point x="377" y="310"/>
      <point x="395" y="310" type="qcurve" smooth="yes"/>
      <point x="414" y="310"/>
      <point x="462" y="353"/>
      <point x="513" y="424" type="qcurve"/>
      <point x="526" y="421"/>
      <point x="561" y="409"/>
      <point x="578" y="400" type="qcurve"/>
      <point x="598" y="358"/>
      <point x="621" y="258"/>
    </contour>
    <contour>
      <point x="315" y="804" type="move" name="chandrabindu"/>
    </contour>
  </outline>
</glyph>
<glyph name="bn_li" format="1">
  <advance width="491"/>
  <unicode hex="098C"/>
  <outline>
    <contour>
      <point x="454" y="322" type="qcurve" smooth="yes"/>
      <point x="454" y="248"/>
      <point x="411" y="64"/>
      <point x="373" y="-24" type="qcurve"/>
      <point x="352" y="-24"/>
      <point x="313" y="-16"/>
      <point x="296" y="-9" type="qcurve"/>
      <point x="298" y="104"/>
      <point x="227" y="235"/>
      <point x="166" y="235" type="qcurve" smooth="yes"/>
      <point x="128" y="235"/>
      <point x="82" y="183"/>
      <point x="82" y="140" type="qcurve" smooth="yes"/>
      <point x="82" y="106"/>
      <point x="111" y="66"/>
      <point x="135" y="66" type="qcurve" smooth="yes"/>
      <point x="155" y="66"/>
      <point x="189" y="98"/>
      <point x="201" y="129" type="qcurve"/>
      <point x="213" y="107"/>
      <point x="231" y="53"/>
      <point x="232" y="33" type="qcurve"/>
      <point x="219" y="8"/>
      <point x="173" y="-23"/>
      <point x="147" y="-23" type="qcurve" smooth="yes"/>
      <point x="94" y="-23"/>
      <point x="21" y="78"/>
      <point x="21" y="153" type="qcurve" smooth="yes"/>
      <point x="21" y="231"/>
      <point x="103" y="332"/>
      <point x="168" y="332" type="qcurve" smooth="yes"/>
      <point x="236" y="332"/>
      <point x="330" y="214"/>
      <point x="340" y="113" type="qcurve"/>
      <point x="363" y="169"/>
      <point x="391" y="297"/>
      <point x="391" y="349" type="qcurve" smooth="yes"/>
      <point x="391" y="397"/>
      <point x="335" y="447"/>
      <point x="239" y="468" type="qcurve" smooth="yes"/>
      <point x="179" y="481"/>
      <point x="118" y="505"/>
      <point x="97" y="520" type="qcurve" smooth="yes"/>
      <point x="70" y="540"/>
      <point x="37" y="603"/>
      <point x="29" y="651" type="qcurve"/>
      <point x="44" y="661"/>
      <point x="79" y="676"/>
      <point x="95" y="680" type="qcurve"/>
      <point x="106" y="624"/>
      <point x="153" y="572"/>
      <point x="219" y="557" type="qcurve"/>
      <point x="287" y="542" type="line" smooth="yes"/>
      <point x="376" y="521"/>
      <point x="454" y="418"/>
    </contour>
    <contour>
      <point x="258" y="690" type="move" name="chandrabindu"/>
    </contour>
  </outline>
</glyph>
<glyph name="bn_o" format="1">
  <advance width="682"/>
  <unicode hex="0993"/>
  <outline>
    <contour>
      <point x="637" y="158" type="qcurve" smooth="yes"/>
      <point x="637" y="77"/>
      <point x="532" y="-25"/>
      <point x="444" y="-25" type="qcurve" smooth="yes"/>
      <point x="303" y="-25"/>
      <point x="93" y="253"/>
      <point x="19" y="546" type="qcurve"/>
      <point x="34" y="557"/>
      <point x="66" y="574"/>
      <point x="84" y="580" type="qcurve"/>
      <point x="147" y="331"/>
      <point x="334" y="69"/>
      <point x="450" y="69" type="qcurve" smooth="yes"/>
      <point x="505" y="69"/>
      <point x="565" y="128"/>
      <point x="565" y="181" type="qcurve" smooth="yes"/>
      <point x="565" y="205"/>
      <point x="552" y="247"/>
      <point x="539" y="265" type="qcurve"/>
      <point x="520" y="240"/>
      <point x="473" y="213"/>
      <point x="447" y="213" type="qcurve" smooth="yes"/>
      <point x="406" y="213"/>
      <point x="351" y="269"/>
      <point x="351" y="313" type="qcurve" smooth="yes"/>
      <point x="351" y="356"/>
      <point x="405" y="415"/>
      <point x="444" y="415" type="qcurve" smooth="yes"/>
      <point x="466" y="415"/>
      <point x="509" y="396"/>
      <point x="524" y="379" type="qcurve"/>
      <point x="542" y="403"/>
      <point x="560" y="455"/>
      <point x="560" y="482" type="qcurve" smooth="yes"/>
      <point x="560" y="526"/>
      <point x="510" y="573"/>
      <point x="463" y="574" type="qcurve" smooth="yes"/>
      <point x="398" y="575"/>
      <point x="308" y="490"/>
      <point x="308" y="428" type="qcurve" smooth="yes"/>
      <point x="308" y="416"/>
      <point x="310" y="393"/>
      <point x="312" y="385" type="qcurve"/>
      <point x="287" y="385"/>
      <point x="232" y="406"/>
      <point x="217" y="422" type="qcurve"/>
      <point x="215" y="519"/>
      <point x="340" y="644"/>
      <point x="436" y="644" type="qcurve" smooth="yes"/>
      <point x="521" y="644"/>
      <point x="630" y="544"/>
      <point x="630" y="464" type="qcurve" smooth="yes"/>
      <point x="630" y="424"/>
      <point x="602" y="343"/>
      <point x="578" y="314" type="qcurve"/>
      <point x="607" y="280"/>
      <point x="637" y="200"/>
    </contour>
    <contour>
      <point x="400" y="323" type="qcurve" smooth="yes"/>
      <point x="400" y="307"/>
      <point x="421" y="286"/>
      <point x="438" y="286" type="qcurve" smooth="yes"/>
      <point x="454" y="286"/>
      <point x="485" y="307"/>
      <point x="499" y="328" type="qcurve"/>
      <point x="488" y="345"/>
      <point x="458" y="365"/>
      <point x="442" y="365" type="qcurve" smooth="yes"/>
      <point x="424" y="365"/>
      <point x="400" y="341"/>
    </contour>
    <contour>
      <point x="381" y="690" type="move" name="chandrabindu"/>
    </contour>
  </outline>
</glyph>
<glyph name="bn_au" format="1">
  <advance width="745"/>
  <unicode hex="0994"/>
  <outline>
    <contour>
      <point x="637" y="158" type="qcurve" smooth="yes"/>
      <point x="637" y="77"/>
      <point x="532" y="-25"/>
      <point x="444" y="-25" type="qcurve" smooth="yes"/>
      <point x="303" y="-25"/>
      <point x="93" y="253"/>
      <point x="19" y="546" type="qcurve"/>
      <point x="34" y="557"/>
      <point x="66" y="574"/>
      <point x="84" y="580" type="qcurve"/>
      <point x="147" y="331"/>
      <point x="334" y="69"/>
      <point x="450" y="69" type="qcurve" smooth="yes"/>
      <point x="505" y="69"/>
      <point x="565" y="128"/>
      <point x="565" y="181" type="qcurve" smooth="yes"/>
      <point x="565" y="205"/>
      <point x="552" y="247"/>
      <point x="539" y="265" type="qcurve"/>
      <point x="520" y="240"/>
      <point x="473" y="213"/>
      <point x="447" y="213" type="qcurve" smooth="yes"/>
      <point x="406" y="213"/>
      <point x="351" y="269"/>
      <point x="351" y="313" type="qcurve" smooth="yes"/>
      <point x="351" y="356"/>
      <point x="405" y="415"/>
      <point x="444" y="415" type="qcurve" smooth="yes"/>
      <point x="466" y="415"/>
      <point x="509" y="396"/>
      <point x="524" y="379" type="qcurve"/>
      <point x="542" y="403"/>
      <point x="560" y="455"/>
      <point x="560" y="482" type="qcurve" smooth="yes"/>
      <point x="560" y="526"/>
      <point x="510" y="573"/>
      <point x="463" y="574" type="qcurve" smooth="yes"/>
      <point x="398" y="575"/>
      <point x="308" y="490"/>
      <point x="308" y="428" type="qcurve" smooth="yes"/>
      <point x="308" y="416"/>
      <point x="310" y="393"/>
      <point x="312" y="385" type="qcurve"/>
      <point x="287" y="385"/>
      <point x="232" y="406"/>
      <point x="217" y="422" type="qcurve"/>
      <point x="215" y="519"/>
      <point x="340" y="644"/>
      <point x="436" y="644" type="qcurve" smooth="yes"/>
      <point x="511" y="644"/>
      <point x="616" y="564"/>
      <point x="627" y="497" type="qcurve"/>
      <point x="646" y="519"/>
      <point x="668" y="572"/>
      <point x="668" y="597" type="qcurve" smooth="yes"/>
      <point x="668" y="636"/>
      <point x="608" y="678"/>
      <point x="500" y="696" type="qcurve" smooth="yes"/>
      <point x="439" y="706"/>
      <point x="377" y="725"/>
      <point x="356" y="739" type="qcurve" smooth="yes"/>
      <point x="329" y="757"/>
      <point x="296" y="819"/>
      <point x="288" y="867" type="qcurve"/>
      <point x="301" y="875"/>
      <point x="335" y="889"/>
      <point x="353" y="893" type="qcurve"/>
      <point x="364" y="834"/>
      <point x="414" y="785"/>
      <point x="482" y="773" type="qcurve"/>
      <point x="553" y="761" type="line" smooth="yes"/>
      <point x="636" y="746"/>
      <point x="717" y="662"/>
      <point x="717" y="592" type="qcurve" smooth="yes"/>
      <point x="717" y="539"/>
      <point x="666" y="434"/>
      <point x="616" y="384" type="qcurve"/>
      <point x="609" y="364"/>
      <point x="590" y="329"/>
      <point x="578" y="314" type="qcurve"/>
      <point x="607" y="280"/>
      <point x="637" y="200"/>
    </contour>
    <contour>
      <point x="400" y="323" type="qcurve" smooth="yes"/>
      <point x="400" y="307"/>
      <point x="421" y="286"/>
      <point x="438" y="286" type="qcurve" smooth="yes"/>
      <point x="454" y="286"/>
      <point x="485" y="307"/>
      <point x="499" y="328" type="qcurve"/>
      <point x="488" y="345"/>
      <point x="458" y="365"/>
      <point x="442" y="365" type="qcurve" smooth="yes"/>
      <point x="424" y="365"/>
      <point x="400" y="341"/>
    </contour>
    <contour>
      <point x="540" y="804" type="move" name="chandrabindu"/>
    </contour>
  </outline>
</glyph>
<glyph name="bn_kha" format="1">
  <advance width="573"/>
  <unicode hex="0996"/>
  <outline>
    <contour>
      <point x="513" y="465" type="qcurve" smooth="yes"/>
      <point x="513" y="298"/>
      <point x="479" y="54"/>
      <point x="444" y="-26" type="qcurve"/>
      <point x="421" y="-26"/>
      <point x="371" y="-16"/>
      <point x="355" y="-9" type="qcurve"/>
      <point x="314" y="90"/>
      <point x="217" y="194"/>
      <point x="151" y="210" type="qcurve"/>
      <point x="133" y="233"/>
      <point x="113" y="278"/>
      <point x="111" y="300" type="qcurve"/>
      <point x="193" y="343" type="line" smooth="yes"/>
      <point x="252" y="373"/>
      <point x="306" y="436"/>
      <point x="306" y="476" type="qcurve" smooth="yes"/>
      <point x="306" y="480"/>
      <point x="305" y="488"/>
      <point x="304" y="493" type="qcurve"/>
      <point x="276" y="456"/>
      <point x="197" y="411"/>
      <point x="160" y="411" type="qcurve" smooth="yes"/>
      <point x="105" y="411"/>
      <point x="42" y="475"/>
      <point x="42" y="532" type="qcurve" smooth="yes"/>
      <point x="42" y="547"/>
      <point x="47" y="570"/>
      <point x="52" y="580" type="qcurve"/>
      <point x="68" y="589"/>
      <point x="113" y="599"/>
      <point x="138" y="599" type="qcurve"/>
      <point x="131" y="589"/>
      <point x="124" y="565"/>
      <point x="124" y="552" type="qcurve" smooth="yes"/>
      <point x="124" y="524"/>
      <point x="150" y="496"/>
      <point x="176" y="496" type="qcurve" smooth="yes"/>
      <point x="206" y="496"/>
      <point x="272" y="538"/>
      <point x="295" y="572" type="qcurve"/>
      <point x="344" y="543" type="line"/>
      <point x="358" y="523"/>
      <point x="373" y="471"/>
      <point x="373" y="439" type="qcurve" smooth="yes"/>
      <point x="373" y="383"/>
      <point x="305" y="288"/>
      <point x="242" y="258" type="qcurve"/>
      <point x="237" y="256" type="line"/>
      <point x="285" y="225"/>
      <point x="358" y="121"/>
      <point x="382" y="50" type="qcurve"/>
      <point x="407" y="116"/>
      <point x="432" y="296"/>
      <point x="432" y="409" type="qcurve" smooth="yes"/>
      <point x="432" y="424"/>
      <point x="431" y="452"/>
      <point x="430" y="472" type="qcurve" smooth="yes"/>
      <point x="429" y="482"/>
      <point x="429" y="491"/>
      <point x="429" y="494" type="qcurve" smooth="yes"/>
      <point x="429" y="520"/>
      <point x="452" y="559"/>
      <point x="473" y="569" type="qcurve" smooth="yes"/>
      <point x="490" y="578"/>
      <point x="536" y="592"/>
      <point x="573" y="601" type="qcurve"/>
      <point x="577" y="596"/>
      <point x="581" y="577"/>
      <point x="581" y="566" type="qcurve" smooth="yes"/>
      <point x="581" y="554"/>
      <point x="577" y="530"/>
      <point x="573" y="524" type="qcurve"/>
      <point x="559" y="520"/>
      <point x="539" y="513"/>
      <point x="532" y="509" type="qcurve" smooth="yes"/>
      <point x="522" y="504"/>
      <point x="513" y="485"/>
    </contour>
    <contour>
      <point x="398" y="-3" type="move" name="blwm"/>
    </contour>
    <contour>
      <point x="171" y="0" type="move" name="nukt"/>
    </contour>
    <contour>
      <point x="459" y="690" type="move" name="reph"/>
    </contour>
    <contour>
      <point x="459" y="690" type="move" name="chandrabindu"/>
    </contour>
    <contour>
      <point x="266" y="0" type="move" name="haln"/>
    </contour>
  </outline>
</glyph>
<glyph name="bn_gha" format="1">
  <advance width="501"/>
  <unicode hex="0998"/>
  <outline>
    <contour>
      <point x="260" y="419" type="qcurve"/>
      <point x="270" y="404"/>
      <point x="286" y="355"/>
      <point x="288" y="330" type="qcurve"/>
      <point x="168" y="236" type="line"/>
      <point x="222" y="210"/>
      <point x="310" y="132"/>
      <point x="342" y="83" type="qcurve"/>
      <point x="341" y="113"/>
      <point x="340" y="158"/>
      <point x="340" y="180" type="qcurve" smooth="yes"/>
      <point x="340" y="287"/>
      <point x="350" y="458"/>
      <point x="361" y="546" type="qcurve"/>
      <point x="333" y="549"/>
      <point x="281" y="551"/>
      <point x="256" y="551" type="qcurve" smooth="yes"/>
      <point x="248" y="551"/>
      <point x="231" y="551"/>
      <point x="223" y="551" type="qcurve"/>
      <point x="171" y="529"/>
      <point x="118" y="474"/>
      <point x="118" y="442" type="qcurve" smooth="yes"/>
      <point x="118" y="415"/>
      <point x="151" y="380"/>
      <point x="177" y="380" type="qcurve" smooth="yes"/>
      <point x="196" y="380"/>
      <point x="238" y="400"/>
    </contour>
    <contour>
      <point x="422" y="288" type="qcurve" smooth="yes"/>
      <point x="422" y="190"/>
      <point x="434" y="40"/>
      <point x="445" y="-7" type="qcurve"/>
      <point x="429" y="-14"/>
      <point x="381" y="-22"/>
      <point x="354" y="-22" type="qcurve"/>
      <point x="306" y="63"/>
      <point x="183" y="161"/>
      <point x="106" y="177" type="qcurve"/>
      <point x="85" y="196"/>
      <point x="64" y="244"/>
      <point x="64" y="270" type="qcurve"/>
      <point x="146" y="335" type="line"/>
      <point x="97" y="343"/>
      <point x="40" y="403"/>
      <point x="40" y="449" type="qcurve" smooth="yes"/>
      <point x="40" y="475"/>
      <point x="58" y="519"/>
      <point x="75" y="538" type="qcurve"/>
      <point x="56" y="535"/>
      <point x="18" y="528"/>
      <point x="0" y="524" type="qcurve"/>
      <point x="-3" y="533"/>
      <point x="-6" y="555"/>
      <point x="-6" y="567" type="qcurve" smooth="yes"/>
      <point x="-6" y="577"/>
      <point x="-3" y="595"/>
      <point x="0" y="601" type="qcurve"/>
      <point x="49" y="615"/>
      <point x="187" y="632"/>
      <point x="259" y="632" type="qcurve" smooth="yes"/>
      <point x="326" y="632"/>
      <point x="453" y="616"/>
      <point x="501" y="601" type="qcurve"/>
      <point x="504" y="594"/>
      <point x="507" y="577"/>
      <point x="507" y="567" type="qcurve" smooth="yes"/>
      <point x="507" y="556"/>
      <point x="504" y="533"/>
      <point x="501" y="524" type="qcurve"/>
      <point x="474" y="530"/>
      <point x="442" y="536"/>
      <point x="437" y="537" type="qcurve"/>
      <point x="429" y="476"/>
      <point x="422" y="364"/>
    </contour>
    <contour>
      <point x="384" y="0" type="move" name="blwm"/>
    </contour>
    <contour>
      <point x="134" y="0" type="move" name="nukt"/>
    </contour>
    <contour>
      <point x="291" y="690" type="move" name="reph"/>
    </contour>
    <contour>
      <point x="291" y="690" type="move" name="chandrabindu"/>
    </contour>
    <contour>
      <point x="243" y="0" type="move" name="haln"/>
    </contour>
  </outline>
</glyph>
<glyph name="bn_ca" format="1">
  <advance width="452"/>
  <unicode hex="099A"/>
  <outline>
    <contour>
      <point x="335" y="402" type="qcurve" smooth="yes"/>
      <point x="379" y="381"/>
      <point x="417" y="326"/>
      <point x="417" y="282" type="qcurve" smooth="yes"/>
      <point x="417" y="163"/>
      <point x="284" y="-24"/>
      <point x="196" y="-24" type="qcurve" smooth="yes"/>
      <point x="133" y="-24"/>
      <point x="59" y="71"/>
      <point x="59" y="158" type="qcurve" smooth="yes"/>
      <point x="59" y="223"/>
      <point x="82" y="437"/>
      <point x="99" y="540" type="qcurve"/>
      <point x="73" y="537"/>
      <point x="21" y="529"/>
      <point x="0" y="524" type="qcurve"/>
      <point x="-3" y="534"/>
      <point x="-6" y="556"/>
      <point x="-6" y="566" type="qcurve" smooth="yes"/>
      <point x="-6" y="577"/>
      <point x="-3" y="594"/>
      <point x="0" y="601" type="qcurve"/>
      <point x="43" y="613"/>
      <point x="169" y="629"/>
      <point x="225" y="629" type="qcurve" smooth="yes"/>
      <point x="281" y="629"/>
      <point x="416" y="612"/>
      <point x="452" y="601" type="qcurve"/>
      <point x="455" y="595"/>
      <point x="457" y="578"/>
      <point x="457" y="567" type="qcurve" smooth="yes"/>
      <point x="457" y="558"/>
      <point x="455" y="537"/>
      <point x="452" y="524" type="qcurve"/>
      <point x="410" y="534"/>
      <point x="283" y="548"/>
      <point x="230" y="548" type="qcurve" smooth="yes"/>
      <point x="214" y="548"/>
      <point x="196" y="548"/>
      <point x="189" y="547" type="qcurve"/>
      <point x="205" y="500"/>
      <point x="275" y="430"/>
    </contour>
    <contour>
      <point x="138" y="123" type="qcurve" smooth="yes"/>
      <point x="138" y="79"/>
      <point x="159" y="40"/>
      <point x="184" y="40" type="qcurve" smooth="yes"/>
      <point x="235" y="40"/>
      <point x="324" y="201"/>
      <point x="324" y="289" type="qcurve" smooth="yes"/>
      <point x="324" y="310"/>
      <point x="304" y="337"/>
      <point x="274" y="353" type="qcurve" smooth="yes"/>
      <point x="238" y="374"/>
      <point x="186" y="433"/>
      <point x="173" y="468" type="qcurve"/>
      <point x="158" y="375"/>
      <point x="138" y="182"/>
    </contour>
    <contour>
      <point x="183" y="0" type="move" name="blwm"/>
    </contour>
    <contour>
      <point x="115" y="-120" type="move" name="nukt"/>
    </contour>
    <contour>
      <point x="213" y="690" type="move" name="reph"/>
    </contour>
    <contour>
      <point x="213" y="690" type="move" name="chandrabindu"/>
    </contour>
    <contour>
      <point x="107" y="0" type="move" name="haln"/>
    </contour>
  </outline>
</glyph>
<glyph name="bn_cha" format="1">
  <advance width="508"/>
  <unicode hex="099B"/>
  <outline>
    <contour>
      <point x="145" y="325" type="qcurve" smooth="yes"/>
      <point x="145" y="308"/>
      <point x="158" y="293"/>
      <point x="172" y="293" type="qcurve" smooth="yes"/>
      <point x="207" y="293"/>
      <point x="265" y="370"/>
      <point x="265" y="419" type="qcurve" smooth="yes"/>
      <point x="265" y="421"/>
      <point x="265" y="426"/>
      <point x="265" y="428" type="qcurve"/>
      <point x="227" y="436"/>
      <point x="171" y="468"/>
      <point x="153" y="491" type="qcurve"/>
      <point x="149" y="450"/>
      <point x="145" y="362"/>
    </contour>
    <contour>
      <point x="511" y="-94" type="qcurve"/>
      <point x="501" y="-108"/>
      <point x="474" y="-136"/>
      <point x="458" y="-149" type="qcurve"/>
      <point x="379" y="-67"/>
      <point x="212" y="51"/>
      <point x="120" y="90" type="qcurve"/>
      <point x="103" y="197" type="line"/>
      <point x="144" y="184"/>
      <point x="214" y="170"/>
      <point x="244" y="170" type="qcurve" smooth="yes"/>
      <point x="307" y="170"/>
      <point x="381" y="232"/>
      <point x="381" y="287" type="qcurve" smooth="yes"/>
      <point x="381" y="315"/>
      <point x="361" y="366"/>
      <point x="341" y="387" type="qcurve"/>
      <point x="328" y="322"/>
      <point x="236" y="238"/>
      <point x="177" y="238" type="qcurve" smooth="yes"/>
      <point x="130" y="238"/>
      <point x="63" y="297"/>
      <point x="63" y="342" type="qcurve" smooth="yes"/>
      <point x="63" y="391"/>
      <point x="69" y="495"/>
      <point x="75" y="538" type="qcurve"/>
      <point x="53" y="535"/>
      <point x="15" y="528"/>
      <point x="0" y="524" type="qcurve"/>
      <point x="-3" y="534"/>
      <point x="-6" y="556"/>
      <point x="-6" y="566" type="qcurve" smooth="yes"/>
      <point x="-6" y="577"/>
      <point x="-3" y="594"/>
      <point x="0" y="601" type="qcurve"/>
      <point x="40" y="614"/>
      <point x="191" y="633"/>
      <point x="261" y="633" type="qcurve" smooth="yes"/>
      <point x="331" y="633"/>
      <point x="474" y="615"/>
      <point x="508" y="601" type="qcurve"/>
      <point x="511" y="595"/>
      <point x="513" y="578"/>
      <point x="513" y="567" type="qcurve" smooth="yes"/>
      <point x="513" y="555"/>
      <point x="510" y="532"/>
      <point x="508" y="524" type="qcurve"/>
      <point x="468" y="536"/>
      <point x="327" y="552"/>
      <point x="260" y="552" type="qcurve" smooth="yes"/>
      <point x="242" y="552"/>
      <point x="199" y="550"/>
      <point x="160" y="548" type="qcurve"/>
      <point x="159" y="547" type="line"/>
      <point x="182" y="521"/>
      <point x="264" y="487"/>
      <point x="337" y="473" type="qcurve"/>
      <point x="394" y="434"/>
      <point x="461" y="321"/>
      <point x="461" y="259" type="qcurve" smooth="yes"/>
      <point x="461" y="185"/>
      <point x="362" y="95"/>
      <point x="274" y="88" type="qcurve"/>
      <point x="333" y="51"/>
      <point x="451" y="-39"/>
    </contour>
    <contour>
      <point x="300" y="0" type="move" name="blwm"/>
    </contour>
    <contour>
      <point x="118" y="-170" type="move" name="nukt"/>
    </contour>
    <contour>
      <point x="244" y="690" type="move" name="reph"/>
    </contour>
    <contour>
      <point x="244" y="690" type="move" name="chandrabindu"/>
    </contour>
    <contour>
      <point x="100" y="0" type="move" name="haln"/>
    </contour>
  </outline>
</glyph>
<glyph name="bn_nya" format="1">
  <advance width="835"/>
  <unicode hex="099E"/>
  <outline>
    <contour>
      <point x="535" y="260" type="qcurve"/>
      <point x="565" y="222"/>
      <point x="642" y="178"/>
      <point x="679" y="178" type="qcurve" smooth="yes"/>
      <point x="710" y="178"/>
      <point x="746" y="209"/>
      <point x="746" y="234" type="qcurve" smooth="yes"/>
      <point x="746" y="244"/>
      <point x="740" y="266"/>
      <point x="735" y="276" type="qcurve"/>
      <point x="719" y="256"/>
      <point x="681" y="234"/>
      <point x="661" y="234" type="qcurve" smooth="yes"/>
      <point x="627" y="234"/>
      <point x="582" y="280"/>
      <point x="582" y="316" type="qcurve" smooth="yes"/>
      <point x="582" y="352"/>
      <point x="628" y="399"/>
      <point x="662" y="399" type="qcurve" smooth="yes"/>
      <point x="680" y="399"/>
      <point x="716" y="383"/>
      <point x="729" y="369" type="qcurve"/>
      <point x="735" y="382"/>
      <point x="742" y="407"/>
      <point x="742" y="419" type="qcurve" smooth="yes"/>
      <point x="742" y="440"/>
      <point x="711" y="464"/>
      <point x="684" y="464" type="qcurve" smooth="yes"/>
      <point x="645" y="464"/>
      <point x="569" y="415"/>
      <point x="539" y="370" type="qcurve"/>
      <point x="538" y="327"/>
      <point x="536" y="280"/>
    </contour>
    <contour>
      <point x="624" y="323" type="qcurve" smooth="yes"/>
      <point x="624" y="309"/>
      <point x="641" y="292"/>
      <point x="655" y="292" type="qcurve" smooth="yes"/>
      <point x="667" y="292"/>
      <point x="691" y="308"/>
      <point x="704" y="326" type="qcurve"/>
      <point x="703" y="327" type="line"/>
      <point x="704" y="328"/>
      <point x="707" y="332"/>
      <point x="707" y="333" type="qcurve"/>
      <point x="698" y="345"/>
      <point x="673" y="358"/>
      <point x="661" y="358" type="qcurve" smooth="yes"/>
      <point x="645" y="358"/>
      <point x="624" y="338"/>
    </contour>
    <contour>
      <point x="513" y="-12" type="qcurve"/>
      <point x="496" y="-18"/>
      <point x="456" y="-25"/>
      <point x="435" y="-25" type="qcurve"/>
      <point x="422" y="0"/>
      <point x="405" y="30"/>
      <point x="402" y="34" type="qcurve" smooth="yes"/>
      <point x="390" y="49"/>
      <point x="360" y="62"/>
      <point x="341" y="62" type="qcurve" smooth="yes"/>
      <point x="327" y="62"/>
      <point x="290" y="55"/>
      <point x="251" y="43" type="qcurve" smooth="yes"/>
      <point x="207" y="29"/>
      <point x="163" y="21"/>
      <point x="145" y="21" type="qcurve" smooth="yes"/>
      <point x="89" y="21"/>
      <point x="22" y="95"/>
      <point x="22" y="156" type="qcurve" smooth="yes"/>
      <point x="22" y="188"/>
      <point x="42" y="265"/>
      <point x="60" y="300" type="qcurve"/>
      <point x="80" y="299"/>
      <point x="112" y="291"/>
      <point x="125" y="283" type="qcurve"/>
      <point x="114" y="262"/>
      <point x="99" y="206"/>
      <point x="99" y="184" type="qcurve" smooth="yes"/>
      <point x="99" y="152"/>
      <point x="132" y="118"/>
      <point x="161" y="118" type="qcurve" smooth="yes"/>
      <point x="173" y="118"/>
      <point x="205" y="125"/>
      <point x="240" y="137" type="qcurve" smooth="yes"/>
      <point x="278" y="149"/>
      <point x="315" y="157"/>
      <point x="330" y="157" type="qcurve" smooth="yes"/>
      <point x="365" y="157"/>
      <point x="411" y="115"/>
      <point x="429" y="66" type="qcurve"/>
      <point x="443" y="156"/>
      <point x="458" y="395"/>
      <point x="458" y="514" type="qcurve" smooth="yes"/>
      <point x="458" y="545"/>
      <point x="431" y="581"/>
      <point x="407" y="581" type="qcurve" smooth="yes"/>
      <point x="361" y="581"/>
      <point x="258" y="465"/>
      <point x="258" y="411" type="qcurve" smooth="yes"/>
      <point x="258" y="386"/>
      <point x="284" y="360"/>
      <point x="308" y="360" type="qcurve" smooth="yes"/>
      <point x="327" y="360"/>
      <point x="362" y="378"/>
      <point x="379" y="396" type="qcurve"/>
      <point x="381" y="392"/>
      <point x="383" y="379"/>
      <point x="383" y="370" type="qcurve" smooth="yes"/>
      <point x="383" y="352"/>
      <point x="373" y="314"/>
      <point x="365" y="302" type="qcurve"/>
      <point x="350" y="290"/>
      <point x="309" y="276"/>
      <point x="286" y="276" type="qcurve" smooth="yes"/>
      <point x="231" y="276"/>
      <point x="162" y="343"/>
      <point x="162" y="398" type="qcurve" smooth="yes"/>
      <point x="162" y="439"/>
      <point x="201" y="525"/>
      <point x="236" y="563" type="qcurve" smooth="yes"/>
      <point x="273" y="601"/>
      <point x="358" y="645"/>
      <point x="397" y="645" type="qcurve" smooth="yes"/>
      <point x="457" y="645"/>
      <point x="540" y="553"/>
      <point x="540" y="484" type="qcurve" smooth="yes"/>
      <point x="540" y="481"/>
      <point x="540" y="474"/>
      <point x="540" y="470" type="qcurve"/>
      <point x="569" y="502"/>
      <point x="643" y="538"/>
      <point x="681" y="538" type="qcurve" smooth="yes"/>
      <point x="734" y="538"/>
      <point x="801" y="475"/>
      <point x="801" y="424" type="qcurve" smooth="yes"/>
      <point x="801" y="396"/>
      <point x="784" y="341"/>
      <point x="767" y="315" type="qcurve"/>
      <point x="786" y="291"/>
      <point x="805" y="241"/>
      <point x="805" y="214" type="qcurve" smooth="yes"/>
      <point x="805" y="162"/>
      <point x="740" y="100"/>
      <point x="687" y="100" type="qcurve" smooth="yes"/>
      <point x="645" y="100"/>
      <point x="562" y="144"/>
      <point x="531" y="183" type="qcurve"/>
      <point x="529" y="142"/>
      <point x="520" y="51"/>
    </contour>
    <contour>
      <point x="459" y="-1" type="move" name="blwm"/>
    </contour>
    <contour>
      <point x="291" y="-59" type="move" name="nukt"/>
    </contour>
    <contour>
      <point x="414" y="690" type="move" name="reph"/>
    </contour>
    <contour>
      <point x="491" y="690" type="move" name="chandrabindu"/>
    </contour>
    <contour>
      <point x="377" y="0" type="move" name="haln"/>
    </contour>
  </outline>
</glyph>
<glyph name="bn_ttha" format="1">
  <advance width="466"/>
  <unicode hex="09A0"/>
  <outline>
    <contour>
      <point x="69" y="148" type="qcurve"/>
      <point x="80" y="103"/>
      <point x="142" y="56"/>
      <point x="189" y="56" type="qcurve" smooth="yes"/>
      <point x="263" y="56"/>
      <point x="355" y="182"/>
      <point x="355" y="277" type="qcurve" smooth="yes"/>
      <point x="355" y="343"/>
      <point x="310" y="476"/>
      <point x="263" y="550" type="qcurve"/>
      <point x="262" y="551" type="line"/>
      <point x="272" y="526"/>
      <point x="281" y="473"/>
      <point x="281" y="445" type="qcurve" smooth="yes"/>
      <point x="281" y="342"/>
      <point x="169" y="186"/>
    </contour>
    <contour>
      <point x="321" y="547" type="qcurve"/>
      <point x="377" y="462"/>
      <point x="431" y="307"/>
      <point x="431" y="234" type="qcurve" smooth="yes"/>
      <point x="431" y="121"/>
      <point x="310" y="-22"/>
      <point x="213" y="-22" type="qcurve" smooth="yes"/>
      <point x="124" y="-22"/>
      <point x="23" y="92"/>
      <point x="23" y="192" type="qcurve" smooth="yes"/>
      <point x="23" y="198"/>
      <point x="24" y="212"/>
      <point x="25" y="227" type="qcurve"/>
      <point x="114" y="262"/>
      <point x="225" y="401"/>
      <point x="225" y="486" type="qcurve" smooth="yes"/>
      <point x="225" y="503"/>
      <point x="220" y="536"/>
      <point x="216" y="551" type="qcurve"/>
      <point x="165" y="550"/>
      <point x="56" y="536"/>
      <point x="0" y="524" type="qcurve"/>
      <point x="-3" y="534"/>
      <point x="-7" y="557"/>
      <point x="-7" y="568" type="qcurve" smooth="yes"/>
      <point x="-7" y="577"/>
      <point x="-3" y="594"/>
      <point x="0" y="601" type="qcurve"/>
      <point x="46" y="614"/>
      <point x="148" y="629"/>
      <point x="199" y="631" type="qcurve"/>
      <point x="176" y="670"/>
      <point x="152" y="745"/>
      <point x="152" y="782" type="qcurve" smooth="yes"/>
      <point x="152" y="822"/>
      <point x="180" y="901"/>
      <point x="206" y="934" type="qcurve"/>
      <point x="225" y="926"/>
      <point x="254" y="907"/>
      <point x="266" y="895" type="qcurve"/>
      <point x="246" y="874"/>
      <point x="219" y="802"/>
      <point x="219" y="769" type="qcurve" smooth="yes"/>
      <point x="219" y="737"/>
      <point x="241" y="670"/>
      <point x="265" y="631" type="qcurve"/>
      <point x="316" y="629"/>
      <point x="419" y="614"/>
      <point x="466" y="601" type="qcurve"/>
      <point x="469" y="595"/>
      <point x="473" y="579"/>
      <point x="473" y="568" type="qcurve" smooth="yes"/>
      <point x="473" y="557"/>
      <point x="469" y="534"/>
      <point x="466" y="524" type="qcurve"/>
      <point x="427" y="532"/>
      <point x="355" y="544"/>
    </contour>
    <contour>
      <point x="212" y="-3" type="move" name="blwm"/>
    </contour>
    <contour>
      <point x="192" y="-120" type="move" name="nukt"/>
    </contour>
    <contour>
      <point x="254" y="681" type="move" name="reph"/>
    </contour>
    <contour>
      <point x="404" y="690" type="move" name="chandrabindu"/>
    </contour>
    <contour>
      <point x="80" y="0" type="move" name="haln"/>
    </contour>
  </outline>
</glyph>
<glyph name="bn_ta" format="1">
  <advance width="589"/>
  <unicode hex="09A4"/>
  <outline>
    <contour>
      <point x="589" y="524" type="qcurve"/>
      <point x="518" y="537"/>
      <point x="368" y="551"/>
      <point x="294" y="551" type="qcurve" smooth="yes"/>
      <point x="217" y="551"/>
      <point x="72" y="538"/>
      <point x="0" y="524" type="qcurve"/>
      <point x="-3" y="531"/>
      <point x="-7" y="554"/>
      <point x="-7" y="565" type="qcurve" smooth="yes"/>
      <point x="-7" y="577"/>
      <point x="-3" y="596"/>
      <point x="0" y="601" type="qcurve"/>
      <point x="64" y="616"/>
      <point x="212" y="632"/>
      <point x="294" y="632" type="qcurve" smooth="yes"/>
      <point x="372" y="632"/>
      <point x="524" y="616"/>
      <point x="589" y="601" type="qcurve"/>
      <point x="592" y="595"/>
      <point x="596" y="575"/>
      <point x="596" y="565" type="qcurve" smooth="yes"/>
      <point x="596" y="554"/>
      <point x="592" y="532"/>
    </contour>
    <contour>
      <point x="367" y="485" type="qcurve" smooth="yes"/>
      <point x="449" y="485"/>
      <point x="568" y="316"/>
      <point x="568" y="197" type="qcurve" smooth="yes"/>
      <point x="568" y="93"/>
      <point x="468" y="-25"/>
      <point x="380" y="-25" type="qcurve" smooth="yes"/>
      <point x="261" y="-25"/>
      <point x="81" y="195"/>
      <point x="17" y="421" type="qcurve"/>
      <point x="29" y="429"/>
      <point x="58" y="444"/>
      <point x="80" y="453" type="qcurve"/>
      <point x="132" y="272"/>
      <point x="287" y="72"/>
      <point x="376" y="72" type="qcurve" smooth="yes"/>
      <point x="435" y="72"/>
      <point x="497" y="151"/>
      <point x="497" y="226" type="qcurve" smooth="yes"/>
      <point x="497" y="307"/>
      <point x="434" y="409"/>
      <point x="388" y="409" type="qcurve" smooth="yes"/>
      <point x="363" y="409"/>
      <point x="336" y="373"/>
      <point x="336" y="340" type="qcurve" smooth="yes"/>
      <point x="336" y="313"/>
      <point x="358" y="260"/>
      <point x="379" y="238" type="qcurve"/>
      <point x="369" y="232"/>
      <point x="341" y="226"/>
      <point x="327" y="226" type="qcurve" smooth="yes"/>
      <point x="315" y="226"/>
      <point x="289" y="231"/>
      <point x="282" y="235" type="qcurve"/>
      <point x="266" y="258"/>
      <point x="247" y="318"/>
      <point x="247" y="348" type="qcurve" smooth="yes"/>
      <point x="247" y="408"/>
      <point x="314" y="485"/>
    </contour>
    <contour>
      <point x="350" y="-3" type="move" name="blwm"/>
    </contour>
    <contour>
      <point x="325" y="-120" type="move" name="nukt"/>
    </contour>
    <contour>
      <point x="292" y="690" type="move" name="reph"/>
    </contour>
    <contour>
      <point x="292" y="690" type="move" name="chandrabindu"/>
    </contour>
    <contour>
      <point x="239" y="0" type="move" name="haln"/>
    </contour>
  </outline>
</glyph>
<glyph name="bn_da" format="1">
  <advance width="493"/>
  <unicode hex="09A6"/>
  <outline>
    <contour>
      <point x="413" y="187" type="qcurve" smooth="yes"/>
      <point x="413" y="141"/>
      <point x="424" y="46"/>
      <point x="435" y="-1" type="qcurve"/>
      <point x="421" y="-8"/>
      <point x="376" y="-21"/>
      <point x="357" y="-23" type="qcurve"/>
      <point x="347" y="18"/>
      <point x="337" y="108"/>
      <point x="337" y="152" type="qcurve" smooth="yes"/>
      <point x="337" y="208"/>
      <point x="351" y="317"/>
      <point x="364" y="365" type="qcurve"/>
      <point x="296" y="316"/>
      <point x="171" y="180"/>
      <point x="133" y="114" type="qcurve"/>
      <point x="108" y="117"/>
      <point x="56" y="137"/>
      <point x="42" y="149" type="qcurve"/>
      <point x="71" y="245"/>
      <point x="106" y="451"/>
      <point x="109" y="542" type="qcurve"/>
      <point x="75" y="538"/>
      <point x="20" y="529"/>
      <point x="0" y="524" type="qcurve"/>
      <point x="-3" y="532"/>
      <point x="-7" y="556"/>
      <point x="-7" y="568" type="qcurve" smooth="yes"/>
      <point x="-7" y="577"/>
      <point x="-3" y="594"/>
      <point x="0" y="601" type="qcurve"/>
      <point x="49" y="615"/>
      <point x="191" y="632"/>
      <point x="262" y="632" type="qcurve" smooth="yes"/>
      <point x="325" y="632"/>
      <point x="459" y="614"/>
      <point x="493" y="601" type="qcurve"/>
      <point x="496" y="596"/>
      <point x="498" y="580"/>
      <point x="498" y="569" type="qcurve" smooth="yes"/>
      <point x="498" y="556"/>
      <point x="495" y="532"/>
      <point x="493" y="524" type="qcurve"/>
      <point x="453" y="535"/>
      <point x="319" y="551"/>
      <point x="257" y="551" type="qcurve" smooth="yes"/>
      <point x="236" y="551"/>
      <point x="194" y="549"/>
      <point x="174" y="548" type="qcurve"/>
      <point x="175" y="543"/>
      <point x="175" y="530"/>
      <point x="175" y="518" type="qcurve" smooth="yes"/>
      <point x="175" y="463"/>
      <point x="166" y="345"/>
      <point x="157" y="291" type="qcurve"/>
      <point x="205" y="348"/>
      <point x="310" y="441"/>
      <point x="366" y="475" type="qcurve"/>
      <point x="390" y="465"/>
      <point x="429" y="432"/>
      <point x="446" y="406" type="qcurve"/>
      <point x="430" y="353"/>
      <point x="413" y="244"/>
    </contour>
    <contour>
      <point x="385" y="0" type="move" name="blwm"/>
    </contour>
    <contour>
      <point x="166" y="0" type="move" name="nukt"/>
    </contour>
    <contour>
      <point x="261" y="690" type="move" name="reph"/>
    </contour>
    <contour>
      <point x="258" y="690" type="move" name="chandrabindu"/>
    </contour>
    <contour>
      <point x="237" y="0" type="move" name="haln"/>
    </contour>
  </outline>
</glyph>
<glyph name="bn_ma" format="1">
  <advance width="516"/>
  <unicode hex="09AE"/>
  <outline>
    <contour>
      <point x="210" y="398" type="qcurve" smooth="yes"/>
      <point x="259" y="355"/>
      <point x="290" y="295"/>
      <point x="290" y="259" type="qcurve" smooth="yes"/>
      <point x="290" y="248"/>
      <point x="286" y="227"/>
      <point x="282" y="217" type="qcurve"/>
      <point x="300" y="197"/>
      <point x="335" y="145"/>
      <point x="350" y="115" type="qcurve"/>
      <point x="349" y="126"/>
      <point x="349" y="153"/>
      <point x="349" y="185" type="qcurve" smooth="yes"/>
      <point x="350" y="300"/>
      <point x="360" y="462"/>
      <point x="371" y="546" type="qcurve"/>
      <point x="343" y="549"/>
      <point x="290" y="551"/>
      <point x="265" y="551" type="qcurve" smooth="yes"/>
      <point x="242" y="551"/>
      <point x="191" y="549"/>
      <point x="161" y="546" type="qcurve"/>
      <point x="154" y="535"/>
      <point x="147" y="509"/>
      <point x="147" y="496" type="qcurve" smooth="yes"/>
      <point x="147" y="474"/>
      <point x="171" y="433"/>
    </contour>
    <contour>
      <point x="466" y="2" type="qcurve"/>
      <point x="446" y="-11"/>
      <point x="398" y="-24"/>
      <point x="374" y="-24" type="qcurve"/>
      <point x="353" y="29"/>
      <point x="292" y="120"/>
      <point x="253" y="156" type="qcurve"/>
      <point x="237" y="126"/>
      <point x="186" y="95"/>
      <point x="153" y="95" type="qcurve" smooth="yes"/>
      <point x="103" y="95"/>
      <point x="37" y="163"/>
      <point x="37" y="215" type="qcurve" smooth="yes"/>
      <point x="37" y="264"/>
      <point x="95" y="327"/>
      <point x="140" y="327" type="qcurve" smooth="yes"/>
      <point x="160" y="327"/>
      <point x="197" y="314"/>
      <point x="212" y="301" type="qcurve"/>
      <point x="211" y="324"/>
      <point x="180" y="362"/>
      <point x="130" y="389" type="qcurve" smooth="yes"/>
      <point x="78" y="418"/>
      <point x="45" y="460"/>
      <point x="45" y="487" type="qcurve" smooth="yes"/>
      <point x="45" y="498"/>
      <point x="51" y="522"/>
      <point x="57" y="534" type="qcurve"/>
      <point x="37" y="531"/>
      <point x="11" y="526"/>
      <point x="0" y="524" type="qcurve"/>
      <point x="-6" y="542"/>
      <point x="-7" y="590"/>
      <point x="0" y="601" type="qcurve"/>
      <point x="63" y="616"/>
      <point x="201" y="632"/>
      <point x="267" y="632" type="qcurve" smooth="yes"/>
      <point x="335" y="632"/>
      <point x="467" y="615"/>
      <point x="516" y="601" type="qcurve"/>
      <point x="521" y="587"/>
      <point x="521" y="542"/>
      <point x="516" y="524" type="qcurve"/>
      <point x="505" y="527"/>
      <point x="474" y="533"/>
      <point x="447" y="537" type="qcurve"/>
      <point x="438" y="479"/>
      <point x="431" y="368"/>
      <point x="431" y="296" type="qcurve" smooth="yes"/>
      <point x="431" y="199"/>
      <point x="449" y="50"/>
    </contour>
    <contour>
      <point x="94" y="226" type="qcurve" smooth="yes"/>
      <point x="94" y="205"/>
      <point x="123" y="179"/>
      <point x="146" y="179" type="qcurve" smooth="yes"/>
      <point x="168" y="179"/>
      <point x="200" y="204"/>
      <point x="207" y="227" type="qcurve"/>
      <point x="194" y="249"/>
      <point x="157" y="273"/>
      <point x="138" y="273" type="qcurve" smooth="yes"/>
      <point x="119" y="273"/>
      <point x="94" y="246"/>
    </contour>
    <contour>
      <point x="402" y="3" type="move" name="blwm"/>
    </contour>
    <contour>
      <point x="220" y="0" type="move" name="nukt"/>
    </contour>
    <contour>
      <point x="410" y="690" type="move" name="reph"/>
    </contour>
    <contour>
      <point x="410" y="690" type="move" name="chandrabindu"/>
    </contour>
    <contour>
      <point x="304" y="0" type="move" name="haln"/>
    </contour>
  </outline>
</glyph>
<glyph name="bn_ha" format="1">
  <advance width="471"/>
  <unicode hex="09B9"/>
  <outline>
    <contour>
      <point x="471" y="524" type="qcurve"/>
      <point x="426" y="535"/>
      <point x="296" y="550"/>
      <point x="237" y="550" type="qcurve" smooth="yes"/>
      <point x="181" y="550"/>
      <point x="56" y="536"/>
      <point x="0" y="524" type="qcurve"/>
      <point x="-3" y="534"/>
      <point x="-7" y="557"/>
      <point x="-7" y="567" type="qcurve" smooth="yes"/>
      <point x="-7" y="578"/>
      <point x="-3" y="595"/>
      <point x="0" y="601" type="qcurve"/>
      <point x="49" y="615"/>
      <point x="179" y="631"/>
      <point x="239" y="631" type="qcurve" smooth="yes"/>
      <point x="301" y="631"/>
      <point x="433" y="614"/>
      <point x="471" y="601" type="qcurve"/>
      <point x="474" y="595"/>
      <point x="476" y="579"/>
      <point x="476" y="566" type="qcurve" smooth="yes"/>
      <point x="476" y="555"/>
      <point x="473" y="531"/>
    </contour>
    <contour>
      <point x="488" y="-71" type="qcurve"/>
      <point x="479" y="-84"/>
      <point x="454" y="-112"/>
      <point x="437" y="-129" type="qcurve"/>
      <point x="348" y="-33"/>
      <point x="160" y="92"/>
      <point x="54" y="125" type="qcurve"/>
      <point x="34" y="232" type="line"/>
      <point x="82" y="216"/>
      <point x="166" y="199"/>
      <point x="202" y="199" type="qcurve" smooth="yes"/>
      <point x="261" y="199"/>
      <point x="324" y="247"/>
      <point x="324" y="292" type="qcurve" smooth="yes"/>
      <point x="324" y="346"/>
      <point x="251" y="432"/>
      <point x="204" y="432" type="qcurve" smooth="yes"/>
      <point x="182" y="432"/>
      <point x="157" y="410"/>
      <point x="157" y="391" type="qcurve" smooth="yes"/>
      <point x="157" y="375"/>
      <point x="175" y="344"/>
      <point x="198" y="322" type="qcurve"/>
      <point x="181" y="313"/>
      <point x="133" y="302"/>
      <point x="112" y="302" type="qcurve"/>
      <point x="94" y="324"/>
      <point x="75" y="372"/>
      <point x="75" y="397" type="qcurve" smooth="yes"/>
      <point x="75" y="443"/>
      <point x="136" y="498"/>
      <point x="186" y="498" type="qcurve" smooth="yes"/>
      <point x="270" y="498"/>
      <point x="407" y="351"/>
      <point x="407" y="261" type="qcurve" smooth="yes"/>
      <point x="407" y="196"/>
      <point x="323" y="117"/>
      <point x="248" y="111" type="qcurve"/>
      <point x="306" y="77"/>
      <point x="425" y="-13"/>
    </contour>
    <contour>
      <point x="252" y="39" type="move" name="blwm"/>
    </contour>
    <contour>
      <point x="174" y="-66" type="move" name="nukt"/>
    </contour>
    <contour>
      <point x="233" y="690" type="move" name="reph"/>
    </contour>
    <contour>
      <point x="233" y="690" type="move" name="chandrabindu"/>
    </contour>
    <contour>
      <point x="108" y="0" type="move" name="haln"/>
    </contour>
  </outline>
</glyph>
